<svg xmlns="http://www.w3.org/2000/svg" width="179" height="48" viewBox="0 0 179 64" fill="none">
  <path d="M14.4033 2.31445C14.4033 2.31445 95.2069 5.5466 174.394 12.0109C168.491 6.60199 170.074 32.9868 168.491 57.7886C166.314 61.5485 87.1265 64.7806 4.70682 59.9324C5.82817 57.7886 5.30048 32.4591 5.30048 2.90811" stroke="white"/>
  <path d="M7.93896 5.54641C7.75947 5.43872 7.83127 7.4131 7.90306 9.10029C6.82504 10.0273 19.3782 8.00966 29.258 6.21477C29.4637 5.08382 18.2388 8.44229 6.78247 13.6512C6.92636 11.0383 24.767 9.81126 41.2576 6.22148C40.2261 5.54641 25.8173 10.5841 6.89812 15.9688C7.48622 14.5048 28.5681 9.57285 51.461 6.4519C52.8389 6.93421 29.4637 14.1138 7.01377 20.8307C7.93896 22.178 34.8551 12.726 65.1799 3.84202C64.6421 3.23343 33.6884 15.6773 9.6737 25.8083C5.20454 22.1281 42.2872 13.1536 75.9519 6.23002C72.5133 2.77083 40.2261 13.5402 10.7145 25.6973C8.73809 23.8885 49.6134 13.9183 84.0957 8.74294C84.0852 7.1655 43.9882 15.682 10.3676 26.6271C8.85365 28.8455 48.255 19.94 94.0591 6.4611C94.0381 1.84563 53.7641 15.2795 10.7145 33.3394C9.99949 30.1436 60.5014 17.845 108.943 7.60695C101.678 1.38304 60.5331 25.8638 8.9798 39.9361C11.3765 39.0003 66.345 21.7004 120.168 8.98399C112.093 10.1724 57.1249 24.6518 5.62597 36.8182C2.89311 45.2286 67.1428 26.0182 128.87 6.80787C128.87 3.00213 65.86 25.2902 2.85039 43.7618C10.6931 38.1486 67.0157 18.4048 134.355 1.4152C139.863 -0.00475522 76.6767 20.1461 1 54.1749C10.9243 51.6091 76.4126 28.5778 153.842 11.5172C156.871 -1.97079 74.8876 30.3834 6.43552 50.7101C14.3722 58.6467 91.328 30.4883 161.851 3.9381C166.708 5.54641 83.2757 29.0558 3.08169 59.0415C14.8347 50.6315 81.772 37.5706 178.016 3.82248C178.049 7.28115 83.4527 30.735 1 52.4541M169.546 58.3161C169.51 58.4597 169.618 56.4135 169.474 54.8699C168.432 55.3947 158.775 57.4124 147.336 58.9845C148.253 57.8535 158.321 55.4202 170.24 51.3679C170.559 49.4489 153.056 55.0639 134.877 59.3287C137.953 59.7039 153.75 51.8906 169.546 46.159C169.546 47.094 147.106 50.6677 126.024 58.3161C125.571 56.0031 146.634 49.2862 167.233 43.957C168.41 43.3889 144.334 52.841 112.305 60.0205C111.687 60.0509 139.171 49.3417 168.39 38.0543C168.179 39.6836 138.616 51.3925 103.584 54.8981C100.115 56.2344 135.177 47.5468 167.465 34.6958C172.743 32.7818 127.073 44.3503 92.5904 56.7179C89.3522 58.3161 131.068 43.3233 167.118 36.4259C169.546 34.1024 120.998 48.496 81.5967 53.7427C84.3723 58.3161 120.945 43.957 173.247 33.2987C169.546 33.719 122.135 42.9267 67.5122 60.3767C71.6438 61.4387 122.156 40.0804 169.546 24.9673C170.692 29.4457 114.578 41.0163 56.1717 62.8996C53.8268 57.1596 113.421 44.9932 169.546 20.1054C174.592 22.4184 107.819 36.5829 43.5698 54.5317C52.432 53.2275 105.264 38.5724 172.09 20.1007C165.415 21.5827 107.715 31.687 30.7366 55.562C41.7853 62.4795 98.0329 34.0019 168.158 18.0144C168.053 19.7169 99.5799 38.2702 28.1209 55.3307C19.111 50.7989 96.5838 27.4654 162.029 7.13871C169.546 14.8657 84.5488 39.8075 20.4595 58.3161C7.53909 61.5543 94.2095 31.5686 167.927 9.67835C176.442 4.61139 83.6457 29.7398 9.81266 60.0401C9.84507 65.2551 94.0325 27.9233 162.607 1" stroke="white" stroke-width="0.2"/>
</svg>