<svg width="334" height="114" viewBox="0 0 334 114" fill="none" xmlns="http://www.w3.org/2000/svg">
<path d="M1 2.1875C1 2.1875 171.392 12.1932 320.485 5.52272C322.83 13.8153 321.267 54.9297 317.36 96.9008C314.4 104.519 153.136 91.1778 10.1281 104.519C13.8693 101.184 13.0879 60.0691 13.8693 11.2456" stroke="black"/>
<path d="M16.2136 15.5284C16.2437 15.6272 16.2136 17.1756 16.3339 18.8228C16.2136 18.8228 28.1524 17.1756 39.6191 15.787C39.8608 16.5879 26.7081 19.0877 16.4553 21.5875C17.6384 21.7268 34.8363 19.2132 50.2533 17.0901C50.9594 16.323 31.9554 20.0727 15.4887 27.0009C15.2602 27.5018 39.1424 22.5602 63.5014 15.0058C61.0914 14.9986 41.5523 22.1172 18.1468 26.587C18.6031 28.0513 47.2626 18.8433 75.9221 12.9092C72.915 18.1772 47.2829 22.44 13.7971 28.6895C17.6498 29.6392 50.6038 19.829 88.5844 17.8897C82.8054 18.7069 49.872 28.5902 16.9386 36.0896C12.0196 30.6977 54.6569 28.17 94.7777 17.3673C98.9787 13.6742 56.3275 30.7672 17.9052 35.8081C15.2541 38.5894 58.2268 29.1625 106.957 16.5802C105.003 10.2307 60.1248 30.8251 13.3138 40.8243C10.8119 37.147 64.5547 25.1535 119.378 13.16C119.364 11.9525 69.9635 31.5453 15.1262 45.1782C17.4148 49.128 79.5319 29.0367 134.442 8.94538C138.074 12.8796 73.5192 26.7029 21.0466 43.175C14.8917 52.8196 80.5788 29.1025 139.656 12.6304C142.286 21.3558 81.9079 30.734 21.5299 48.8534C20.5418 45.4414 82.102 28.9035 160.975 21.854C152.297 20.2962 82.0805 40.0628 14.7637 50.2936C20.9042 60.203 84.4639 40.4364 168.349 8.67305C163.637 22.4153 93.8523 36.9421 9.93072 51.469C12.845 63.8947 89.7113 29.5571 183.421 19.2209C178.361 13.6742 89.6751 34.881 7.75586 52.3795C10.7982 63.629 94.9586 36.6107 191.755 7.61368C195.38 9.56854 109.421 36.2634 19.8384 70.9046C23.9174 69.167 107.91 31.7922 211.162 4.97289C209.257 11.2903 107.902 37.6457 16.2136 64.0011C24.4007 72.7262 119.781 30.6662 213.114 17.7719C215.16 6.52241 111.579 43.531 7.99751 62.5277C24.8839 81.0374 123.706 41.155 226.863 3.64862C224.688 22.6802 115.014 40.4104 14.0388 84.3638C23.0788 67.3029 134.255 35.1447 243.143 23.0535C227.088 10.4956 129.685 36.7599 16.2136 75.6061C11.3952 72.8409 126.014 46.8254 250.269 26.0916C247.852 20.826 138.074 59.0679 8.96412 76.1193C26.3337 86.9634 139.093 59.5656 254.381 26.6213C272.121 9.96586 141.63 55.6824 6.06431 84.7113C24.1662 93.4284 134.341 61.7425 263.071 1C263.042 9.70098 142.286 43.026 24.1881 73.4373C5.127 72.8152 156.339 57.8433 288.149 6.41405C288.156 27.7129 136.9 65.5988 2.31873 88.2541C13.3212 88.1297 159.539 62.9259 285.51 25.04C308.679 12.3498 156.647 39.1686 19.1134 94.5946C7.17374 107.807 174.551 64.9704 317.822 25.4373C299.721 25.4614 150.416 53.3977 25.2755 87.956C22.4819 94.4536 158.947 63.5795 333.022 15.5284C314.202 29.3022 180.915 65.2428 22.4965 97.74M320.485 101.183C320.515 101.019 320.515 99.6022 320.605 97.7243C320.721 96.5957 308.311 100.312 295.9 100.407C295.871 99.8591 309.266 98.9486 320.002 93.8C320.841 95.7659 302.931 96.7178 283.952 102.355C284.29 102.375 302.569 95.8445 319.76 90.9029C320.485 88.6875 297.556 94.6742 274.151 102.751C274.158 98.5347 294.663 91.9458 319.519 88.0058C318.096 88.0058 293.02 93.9398 263.166 101.838C263.18 103.17 290.02 95.5962 322.298 87.3602C321.921 84.7113 282.505 90.5861 253.141 98.8222C248.094 100.389 281.752 88.9163 318.31 78.2383C319.646 81.4169 282.881 86.703 237.727 97.5057C237.72 103.965 278.68 88.7259 318.794 73.4871C316.647 79.1743 270.796 89.653 229.742 103.287C229.763 104.362 274.641 82.7081 324.352 76.9471C322.646 73.6439 264.582 85.6374 218.401 102.368C219.51 99.9915 266.735 91.1264 315.048 69.1497C325.29 74.1668 257.167 82.4088 205.86 102.5C203.458 103.832 261.971 88.6846 322.902 70.888C325.773 63.8922 250.832 77.4663 187.789 95.3875C193.084 102.64 250.804 81.6073 324.472 67.8585C317.6 68.1076 256.04 89.3898 180.052 102.765C182.952 107.541 256.068 81.4169 326.285 68.0075C320.485 59.9365 244.417 77.9893 165.222 92.6143C168.349 102.905 245.988 76.3262 322.056 49.7473C323.854 65.7409 236.882 70.5385 151.594 91.9522C160.03 106.746 245.332 79.9767 323.868 58.7698C313.265 51.1042 227.299 80.1012 139.529 103.162C146.756 99.1969 239.964 66.5422 322.298 59.7135C318.559 47.5449 219.159 82.8086 140.945 103.295C123.575 103.303 230.73 66.3519 310.819 48.4726C328.672 43.9856 221.012 83.8021 127.679 98.94C123.592 96.6805 210.742 61.9234 324.593 45.1782C329.156 35.6744 215.16 63.677 101.165 96.4316C109.836 108.335 208.636 78.6854 324.835 34.732C322.774 29.3419 204.732 69.0253 100.421 108.709C91.2459 101.183 197.831 59.8209 315.894 33.5566C322.894 38.5894 203.458 72.5272 88.8394 93.261C76.7641 109.13 193.792 76.1856 330.151 37.9437C325.545 35.2949 197.606 62.6927 69.6674 101.183C69.6527 103.965 202.681 63.8107 310.336 26.438C307.231 29.0948 189.104 69.4977 60.3738 112.806C52.392 109.925 178.464 56.2037 312.511 17.0513C323.257 37.8204 188.675 77.0972 48.5502 107.26C62.4378 104.23 191.462 54.1592 317.706 22.3655C332.055 22.2411 188.73 72.8092 25.1568 113.866C25.1201 110.719 188.752 52.1146 326.285 25.2958C317.472 28.7232 165.161 61.6504 21.8898 87.9716C15.8339 91.2504 180.242 43.4481 329.547 5.57874C317.351 18.8228 177.752 56.5677 22.4819 84.0064C25.638 87.4097 171.491 41.1386 314.202 1.75455" stroke="#FF00B7" stroke-width="0.2"/>
<path d="M42.9393 70.589C43.5251 71.1748 44.4749 71.1748 45.0607 70.589L54.6066 61.0431C55.1924 60.4573 55.1924 59.5076 54.6066 58.9218C54.0208 58.336 53.0711 58.336 52.4853 58.9218L44 67.407L35.5147 58.9218C34.9289 58.336 33.9792 58.336 33.3934 58.9218C32.8076 59.5076 32.8076 60.4573 33.3934 61.0431L42.9393 70.589ZM42.5 38V69.5284H45.5V38H42.5Z" fill="black"/>
<path d="M76.4297 48.7578C76.4297 48.2109 76.5859 47.7617 76.8984 47.4102C77.224 47.0586 77.6211 46.7852 78.0898 46.5898C78.5716 46.3815 79.0859 46.2448 79.6328 46.1797C80.1797 46.1016 80.6745 46.0625 81.1172 46.0625C81.9635 46.0625 82.6732 46.2318 83.2461 46.5703C83.832 46.8958 84.3008 47.332 84.6523 47.8789C85.0169 48.4258 85.2773 49.0573 85.4336 49.7734C85.5898 50.4896 85.668 51.2188 85.668 51.9609C85.668 52.4557 85.6159 53.0417 85.5117 53.7188C85.4076 54.3828 85.2513 55.0729 85.043 55.7891C84.8346 56.4922 84.5742 57.1953 84.2617 57.8984C83.9622 58.5885 83.6107 59.2135 83.207 59.7734C82.8034 60.3203 82.3477 60.763 81.8398 61.1016C81.3451 61.4401 80.7982 61.6094 80.1992 61.6094C80.082 61.6094 79.9388 61.4531 79.7695 61.1406C79.6133 60.8151 79.431 60.3854 79.2227 59.8516C79.0273 59.3177 78.819 58.7057 78.5977 58.0156C78.3893 57.3125 78.181 56.5898 77.9727 55.8477C77.7643 55.0924 77.569 54.3372 77.3867 53.582C77.2044 52.8268 77.0352 52.1302 76.8789 51.4922C76.7357 50.8542 76.625 50.2943 76.5469 49.8125C76.4688 49.3307 76.4297 48.9792 76.4297 48.7578ZM78.0508 49.8711C78.0508 50.2878 78.0768 50.763 78.1289 51.2969C78.194 51.8307 78.2852 52.3841 78.4023 52.957C78.5326 53.5299 78.6888 54.1094 78.8711 54.6953C79.0664 55.2682 79.2878 55.8086 79.5352 56.3164C79.7826 56.8242 80.0625 57.2865 80.375 57.7031C80.6875 58.1068 81.0391 58.4258 81.4297 58.6602C81.8724 58.0352 82.2565 57.4753 82.582 56.9805C82.9076 56.4857 83.1745 55.9909 83.3828 55.4961C83.5911 55.0013 83.7409 54.474 83.832 53.9141C83.9362 53.3542 83.9883 52.7031 83.9883 51.9609C83.9883 51.4271 83.9557 50.9062 83.8906 50.3984C83.8255 49.8906 83.6823 49.4414 83.4609 49.0508C83.2526 48.6471 82.9531 48.3281 82.5625 48.0938C82.1719 47.8464 81.6576 47.7227 81.0195 47.7227C80.4987 47.7227 79.9909 47.8073 79.4961 47.9766C79.0143 48.1328 78.5456 48.3411 78.0898 48.6016C78.0898 48.6406 78.0833 48.7188 78.0703 48.8359C78.0703 48.9531 78.0703 49.0833 78.0703 49.2266C78.0703 49.3568 78.0638 49.487 78.0508 49.6172C78.0508 49.7344 78.0508 49.819 78.0508 49.8711ZM88.6391 56.5703C88.6391 55.9062 88.7237 55.2357 88.893 54.5586C89.0753 53.8685 89.3227 53.2109 89.6352 52.5859C89.9607 51.9609 90.3513 51.3815 90.807 50.8477C91.2628 50.3008 91.7641 49.832 92.3109 49.4414C92.8708 49.0378 93.4763 48.7253 94.1273 48.5039C94.7784 48.2695 95.462 48.1523 96.1781 48.1523C96.8943 48.1523 97.5128 48.2956 98.0336 48.582C98.5674 48.8555 99.0102 49.2266 99.3617 49.6953C99.7133 50.1641 99.9737 50.7044 100.143 51.3164C100.312 51.9154 100.397 52.5273 100.397 53.1523C100.397 54.2461 100.234 55.3268 99.9086 56.3945C99.5831 57.4492 99.1013 58.3997 98.4633 59.2461C97.8253 60.0794 97.031 60.7565 96.0805 61.2773C95.143 61.7852 94.0622 62.0391 92.8383 62.0391C92.1091 62.0391 91.4776 61.8763 90.9438 61.5508C90.4229 61.2122 89.9867 60.7826 89.6352 60.2617C89.2966 59.7279 89.0427 59.1419 88.8734 58.5039C88.7172 57.8529 88.6391 57.2083 88.6391 56.5703ZM90.2992 57C90.2992 57.3516 90.3578 57.7227 90.475 58.1133C90.5922 58.5039 90.7549 58.862 90.9633 59.1875C91.1716 59.513 91.432 59.7865 91.7445 60.0078C92.0701 60.2292 92.4346 60.3398 92.8383 60.3398C93.7107 60.3398 94.5049 60.1445 95.2211 59.7539C95.9372 59.3503 96.5557 58.8359 97.0766 58.2109C97.5974 57.5729 98.001 56.8633 98.2875 56.082C98.574 55.3008 98.7172 54.526 98.7172 53.7578C98.7172 53.3151 98.7042 52.8594 98.6781 52.3906C98.6521 51.9219 98.5674 51.4987 98.4242 51.1211C98.281 50.7305 98.0531 50.418 97.7406 50.1836C97.4411 49.9362 97.0049 49.8125 96.432 49.8125C96.2497 49.8125 96.0023 49.819 95.6898 49.832C95.3904 49.8451 95.0909 49.8841 94.7914 49.9492C94.4919 50.0013 94.225 50.0859 93.9906 50.2031C93.7693 50.3203 93.6586 50.4831 93.6586 50.6914C93.6586 50.7174 93.6781 50.776 93.7172 50.8672C93.7693 50.9453 93.8214 51.0299 93.8734 51.1211C93.9255 51.2122 93.9711 51.3034 94.0102 51.3945C94.0492 51.4727 94.0688 51.5247 94.0688 51.5508C94.0688 51.5768 94.0167 51.6484 93.9125 51.7656C93.8083 51.8698 93.7237 51.9349 93.6586 51.9609C93.0076 52.1302 92.4607 52.3451 92.018 52.6055C91.5883 52.8529 91.2432 53.1784 90.9828 53.582C90.7354 53.9857 90.5596 54.4674 90.4555 55.0273C90.3513 55.5872 90.2992 56.2448 90.2992 57ZM103.798 50.2422C103.798 50.0339 103.837 49.8451 103.915 49.6758C104.006 49.4935 104.175 49.4023 104.423 49.4023C104.631 49.4023 104.833 49.6172 105.028 50.0469C105.236 50.4766 105.445 51.0299 105.653 51.707C105.874 52.3711 106.102 53.1068 106.337 53.9141C106.571 54.7083 106.818 55.4831 107.079 56.2383C107.339 56.9805 107.613 57.651 107.899 58.25C108.186 58.8359 108.492 59.2461 108.817 59.4805C109.13 59.3503 109.377 59.1224 109.559 58.7969C109.755 58.4583 109.911 58.0612 110.028 57.6055C110.145 57.1367 110.23 56.6354 110.282 56.1016C110.347 55.5547 110.406 55.0143 110.458 54.4805C110.523 53.9336 110.588 53.4062 110.653 52.8984C110.718 52.3776 110.809 51.9219 110.927 51.5312C111.057 51.1406 111.22 50.8281 111.415 50.5938C111.61 50.3594 111.858 50.2422 112.157 50.2422C112.339 50.2422 112.502 50.2617 112.645 50.3008C112.789 50.3268 112.912 50.457 113.016 50.6914C113.068 50.8607 113.153 51.1081 113.27 51.4336C113.388 51.7591 113.518 52.1367 113.661 52.5664C113.817 52.9961 113.986 53.4583 114.169 53.9531C114.364 54.4349 114.559 54.9102 114.755 55.3789C114.963 55.8477 115.165 56.2969 115.36 56.7266C115.555 57.1432 115.744 57.5013 115.927 57.8008C115.953 57.8529 116.018 57.9375 116.122 58.0547C116.239 58.1589 116.317 58.2174 116.356 58.2305L117.196 57.3906C117.417 57.1693 117.587 56.8438 117.704 56.4141C117.821 55.9714 117.906 55.4635 117.958 54.8906C118.023 54.3177 118.062 53.7057 118.075 53.0547C118.101 52.3906 118.121 51.7331 118.134 51.082C118.147 50.431 118.173 49.7995 118.212 49.1875C118.251 48.5755 118.316 48.0417 118.407 47.5859C118.498 47.1172 118.628 46.7461 118.798 46.4727C118.967 46.1992 119.201 46.0625 119.501 46.0625C119.514 46.0625 119.527 46.069 119.54 46.082C119.566 46.082 119.592 46.082 119.618 46.082C119.657 46.0951 119.683 46.1016 119.696 46.1016C119.709 46.1016 119.742 46.1276 119.794 46.1797C119.846 46.2188 119.891 46.2578 119.93 46.2969C119.983 46.3359 120.022 46.375 120.048 46.4141C120.087 46.4531 120.113 46.4857 120.126 46.5117C120.126 46.6029 120.126 46.7656 120.126 47C120.139 47.2344 120.145 47.4883 120.145 47.7617C120.145 48.0352 120.145 48.2956 120.145 48.543C120.158 48.7773 120.165 48.9401 120.165 49.0312C120.165 49.2917 120.158 49.6497 120.145 50.1055C120.145 50.5612 120.126 51.082 120.087 51.668C120.061 52.2409 120.015 52.8594 119.95 53.5234C119.898 54.1745 119.813 54.8255 119.696 55.4766C119.579 56.1146 119.429 56.7331 119.247 57.332C119.078 57.918 118.863 58.4388 118.602 58.8945C118.355 59.3372 118.062 59.6953 117.723 59.9688C117.398 60.2292 117.007 60.3594 116.552 60.3594C116.109 60.3594 115.731 60.2161 115.419 59.9297C115.119 59.6302 114.859 59.2656 114.638 58.8359C114.416 58.3932 114.227 57.918 114.071 57.4102C113.915 56.8893 113.752 56.4076 113.583 55.9648C113.427 55.5221 113.251 55.1576 113.055 54.8711C112.873 54.5716 112.645 54.4219 112.372 54.4219C112.346 54.4219 112.307 54.4284 112.255 54.4414C112.216 54.4544 112.183 54.4609 112.157 54.4609C112.144 54.513 112.105 54.7409 112.04 55.1445C111.975 55.5482 111.884 56.0299 111.766 56.5898C111.649 57.1367 111.506 57.7292 111.337 58.3672C111.167 59.0052 110.972 59.5911 110.751 60.125C110.542 60.6589 110.308 61.1081 110.048 61.4727C109.8 61.8242 109.527 62 109.227 62C108.615 62 108.055 61.7721 107.548 61.3164C107.04 60.8477 106.584 60.2487 106.18 59.5195C105.79 58.7773 105.445 57.957 105.145 57.0586C104.846 56.1602 104.592 55.2812 104.384 54.4219C104.188 53.5495 104.039 52.7422 103.934 52C103.843 51.2448 103.798 50.6589 103.798 50.2422ZM124.816 61.1602C124.764 60.9518 124.692 60.6523 124.601 60.2617C124.523 59.8711 124.432 59.4414 124.327 58.9727C124.236 58.5039 124.145 58.0156 124.054 57.5078C123.963 56.987 123.878 56.4857 123.8 56.0039C123.722 55.5091 123.657 55.0599 123.605 54.6562C123.566 54.2396 123.546 53.901 123.546 53.6406C123.546 53.5234 123.559 53.3216 123.585 53.0352C123.611 52.7487 123.65 52.4492 123.702 52.1367C123.754 51.8242 123.8 51.5312 123.839 51.2578C123.891 50.9844 123.937 50.7956 123.976 50.6914C124.015 50.6784 124.08 50.6719 124.171 50.6719C124.275 50.6719 124.379 50.6654 124.484 50.6523C124.601 50.6393 124.705 50.6328 124.796 50.6328C124.9 50.6198 124.972 50.6133 125.011 50.6133C125.636 50.6133 126.228 50.737 126.788 50.9844C127.348 51.2318 127.882 51.5443 128.39 51.9219C128.898 52.2995 129.392 52.7227 129.874 53.1914C130.356 53.6602 130.838 54.1159 131.32 54.5586C131.814 55.0013 132.316 55.4049 132.823 55.7695C133.331 56.1211 133.872 56.388 134.445 56.5703C134.445 56.5052 134.445 56.4076 134.445 56.2773C134.458 56.1341 134.464 55.9844 134.464 55.8281C134.464 55.6719 134.464 55.5286 134.464 55.3984C134.477 55.2552 134.484 55.151 134.484 55.0859C134.484 54.2656 134.432 53.4648 134.327 52.6836C134.223 51.9023 134.106 51.1211 133.976 50.3398C133.846 49.5586 133.728 48.7773 133.624 47.9961C133.52 47.2018 133.468 46.388 133.468 45.5547C133.559 45.5547 133.67 45.5612 133.8 45.5742C133.943 45.5742 134.086 45.5938 134.23 45.6328C134.373 45.6589 134.503 45.7109 134.62 45.7891C134.737 45.8542 134.816 45.9583 134.855 46.1016C134.907 47.0391 135.024 47.9831 135.206 48.9336C135.389 49.8711 135.577 50.8151 135.773 51.7656C135.968 52.7031 136.137 53.6471 136.28 54.5977C136.437 55.5352 136.515 56.4661 136.515 57.3906C136.515 57.5599 136.508 57.7422 136.495 57.9375C136.495 58.1328 136.469 58.3216 136.417 58.5039C136.378 58.6732 136.307 58.8164 136.202 58.9336C136.098 59.0508 135.942 59.1094 135.734 59.1094C135.057 59.1094 134.432 58.9596 133.859 58.6602C133.286 58.3477 132.726 57.9635 132.179 57.5078C131.645 57.0521 131.118 56.5508 130.597 56.0039C130.089 55.457 129.562 54.9557 129.015 54.5C128.481 54.0443 127.921 53.6602 127.335 53.3477C126.762 53.0352 126.144 52.8789 125.48 52.8789C125.48 53.6081 125.532 54.3112 125.636 54.9883C125.74 55.6523 125.851 56.3164 125.968 56.9805C126.098 57.6445 126.215 58.3086 126.32 58.9727C126.424 59.6237 126.476 60.2878 126.476 60.9648C126.476 61.2122 126.385 61.3815 126.202 61.4727C126.033 61.5638 125.844 61.6094 125.636 61.6094C125.467 61.6094 125.304 61.5964 125.148 61.5703C125.004 61.5312 124.894 61.3945 124.816 61.1602ZM139.545 49.1875C139.545 48.9271 139.629 48.7578 139.798 48.6797C139.981 48.6016 140.176 48.5625 140.384 48.5625C140.423 48.5625 140.495 48.569 140.599 48.582C140.716 48.5951 140.788 48.6016 140.814 48.6016C140.853 49.0052 140.892 49.4935 140.931 50.0664C140.97 50.6263 141.016 51.2383 141.068 51.9023C141.12 52.5534 141.185 53.2305 141.263 53.9336C141.341 54.6367 141.452 55.3268 141.595 56.0039C141.739 56.668 141.914 57.306 142.123 57.918C142.331 58.5169 142.585 59.0378 142.884 59.4805C142.949 59.5977 143.008 59.6888 143.06 59.7539C143.125 59.806 143.184 59.8516 143.236 59.8906C143.301 59.9167 143.373 59.9362 143.451 59.9492C143.529 59.9492 143.627 59.9492 143.744 59.9492C144.278 59.9492 144.785 59.8581 145.267 59.6758C145.762 59.4935 146.25 59.2917 146.732 59.0703C147.214 58.849 147.702 58.6471 148.197 58.4648C148.692 58.2826 149.213 58.1914 149.759 58.1914C149.877 58.1914 150.026 58.1914 150.209 58.1914C150.391 58.1784 150.56 58.1849 150.716 58.2109C150.873 58.237 151.009 58.3021 151.127 58.4062C151.244 58.5104 151.302 58.6667 151.302 58.875C151.302 59.0703 151.127 59.2852 150.775 59.5195C150.423 59.7409 149.974 59.9688 149.427 60.2031C148.88 60.4245 148.282 60.6458 147.63 60.8672C146.992 61.0885 146.374 61.2839 145.775 61.4531C145.189 61.6224 144.668 61.7591 144.213 61.8633C143.757 61.9544 143.457 62 143.314 62C142.845 62 142.429 61.8438 142.064 61.5312C141.713 61.2057 141.4 60.776 141.127 60.2422C140.866 59.6953 140.645 59.0768 140.463 58.3867C140.28 57.6836 140.13 56.9544 140.013 56.1992C139.896 55.444 139.805 54.6953 139.74 53.9531C139.675 53.2109 139.629 52.5208 139.603 51.8828C139.577 51.2448 139.558 50.6849 139.545 50.2031C139.545 49.7214 139.545 49.3828 139.545 49.1875ZM154.273 56.5703C154.273 55.9062 154.358 55.2357 154.527 54.5586C154.71 53.8685 154.957 53.2109 155.27 52.5859C155.595 51.9609 155.986 51.3815 156.441 50.8477C156.897 50.3008 157.398 49.832 157.945 49.4414C158.505 49.0378 159.111 48.7253 159.762 48.5039C160.413 48.2695 161.096 48.1523 161.812 48.1523C162.529 48.1523 163.147 48.2956 163.668 48.582C164.202 48.8555 164.645 49.2266 164.996 49.6953C165.348 50.1641 165.608 50.7044 165.777 51.3164C165.947 51.9154 166.031 52.5273 166.031 53.1523C166.031 54.2461 165.868 55.3268 165.543 56.3945C165.217 57.4492 164.736 58.3997 164.098 59.2461C163.46 60.0794 162.665 60.7565 161.715 61.2773C160.777 61.7852 159.697 62.0391 158.473 62.0391C157.743 62.0391 157.112 61.8763 156.578 61.5508C156.057 61.2122 155.621 60.7826 155.27 60.2617C154.931 59.7279 154.677 59.1419 154.508 58.5039C154.352 57.8529 154.273 57.2083 154.273 56.5703ZM155.934 57C155.934 57.3516 155.992 57.7227 156.109 58.1133C156.227 58.5039 156.389 58.862 156.598 59.1875C156.806 59.513 157.066 59.7865 157.379 60.0078C157.704 60.2292 158.069 60.3398 158.473 60.3398C159.345 60.3398 160.139 60.1445 160.855 59.7539C161.572 59.3503 162.19 58.8359 162.711 58.2109C163.232 57.5729 163.635 56.8633 163.922 56.082C164.208 55.3008 164.352 54.526 164.352 53.7578C164.352 53.3151 164.339 52.8594 164.312 52.3906C164.286 51.9219 164.202 51.4987 164.059 51.1211C163.915 50.7305 163.688 50.418 163.375 50.1836C163.076 49.9362 162.639 49.8125 162.066 49.8125C161.884 49.8125 161.637 49.819 161.324 49.832C161.025 49.8451 160.725 49.8841 160.426 49.9492C160.126 50.0013 159.859 50.0859 159.625 50.2031C159.404 50.3203 159.293 50.4831 159.293 50.6914C159.293 50.7174 159.312 50.776 159.352 50.8672C159.404 50.9453 159.456 51.0299 159.508 51.1211C159.56 51.2122 159.605 51.3034 159.645 51.3945C159.684 51.4727 159.703 51.5247 159.703 51.5508C159.703 51.5768 159.651 51.6484 159.547 51.7656C159.443 51.8698 159.358 51.9349 159.293 51.9609C158.642 52.1302 158.095 52.3451 157.652 52.6055C157.223 52.8529 156.878 53.1784 156.617 53.582C156.37 53.9857 156.194 54.4674 156.09 55.0273C155.986 55.5872 155.934 56.2448 155.934 57ZM174.041 44.8516C174.12 44.6172 174.23 44.4805 174.373 44.4414C174.53 44.4023 174.705 44.3828 174.901 44.3828C175.2 44.3828 175.532 44.5846 175.897 44.9883C176.274 45.3789 176.659 45.9062 177.049 46.5703C177.44 47.2344 177.83 47.9961 178.221 48.8555C178.625 49.7148 179.009 50.6068 179.373 51.5312C179.751 52.4427 180.103 53.3542 180.428 54.2656C180.754 55.1771 181.034 56.0169 181.268 56.7852C181.515 57.5404 181.704 58.1979 181.834 58.7578C181.965 59.3177 182.03 59.7018 182.03 59.9102C182.03 60.1185 181.978 60.3203 181.873 60.5156C181.782 60.6979 181.613 60.7891 181.366 60.7891C181.209 60.7891 181.073 60.7435 180.955 60.6523C180.851 60.5482 180.76 60.4245 180.682 60.2812C180.604 60.138 180.532 59.9948 180.467 59.8516C180.402 59.7083 180.343 59.5846 180.291 59.4805C180.239 59.3372 180.129 59.0638 179.959 58.6602C179.803 58.2565 179.634 57.8333 179.452 57.3906C179.282 56.9479 179.12 56.5312 178.963 56.1406C178.807 55.75 178.696 55.4701 178.631 55.3008C177.72 55.1445 176.802 55.0013 175.877 54.8711C174.966 54.7279 174.002 54.5911 172.987 54.4609H172.772C172.303 56.4792 171.886 58.0742 171.522 59.2461C171.17 60.418 170.871 61.2513 170.623 61.7461C170.389 62.2409 170.2 62.4427 170.057 62.3516C169.927 62.2734 169.836 61.9805 169.784 61.4727C169.745 60.9518 169.751 60.2617 169.803 59.4023C169.868 58.543 169.979 57.599 170.135 56.5703C170.304 55.5286 170.506 54.4414 170.741 53.3086C170.975 52.1758 171.255 51.082 171.58 50.0273C171.919 48.9727 172.29 47.9961 172.694 47.0977C173.11 46.1862 173.56 45.4375 174.041 44.8516ZM173.573 51.7266C173.573 52.2083 173.729 52.5664 174.041 52.8008C174.354 53.0221 174.732 53.1654 175.174 53.2305C175.617 53.2956 176.079 53.3216 176.561 53.3086C177.056 53.2956 177.479 53.2891 177.83 53.2891C177.83 52.7682 177.746 52.2083 177.577 51.6094C177.407 50.9974 177.192 50.3919 176.932 49.793C176.672 49.194 176.392 48.6146 176.092 48.0547C175.806 47.4818 175.539 46.9674 175.291 46.5117C175.148 46.6549 174.992 46.9219 174.823 47.3125C174.666 47.6901 174.504 48.1198 174.334 48.6016C174.178 49.0703 174.035 49.5326 173.905 49.9883C173.774 50.444 173.677 50.8151 173.612 51.1016C173.612 51.1406 173.605 51.2448 173.592 51.4141C173.579 51.5703 173.573 51.6745 173.573 51.7266ZM185.86 48.7578C185.86 48.2109 186.016 47.7617 186.329 47.4102C186.654 47.0586 187.052 46.7852 187.52 46.5898C188.002 46.3815 188.516 46.2448 189.063 46.1797C189.61 46.1016 190.105 46.0625 190.548 46.0625C191.394 46.0625 192.104 46.2318 192.677 46.5703C193.262 46.8958 193.731 47.332 194.083 47.8789C194.447 48.4258 194.708 49.0573 194.864 49.7734C195.02 50.4896 195.098 51.2188 195.098 51.9609C195.098 52.4557 195.046 53.0417 194.942 53.7188C194.838 54.3828 194.682 55.0729 194.473 55.7891C194.265 56.4922 194.005 57.1953 193.692 57.8984C193.393 58.5885 193.041 59.2135 192.637 59.7734C192.234 60.3203 191.778 60.763 191.27 61.1016C190.776 61.4401 190.229 61.6094 189.63 61.6094C189.512 61.6094 189.369 61.4531 189.2 61.1406C189.044 60.8151 188.861 60.3854 188.653 59.8516C188.458 59.3177 188.249 58.7057 188.028 58.0156C187.82 57.3125 187.611 56.5898 187.403 55.8477C187.195 55.0924 186.999 54.3372 186.817 53.582C186.635 52.8268 186.466 52.1302 186.309 51.4922C186.166 50.8542 186.055 50.2943 185.977 49.8125C185.899 49.3307 185.86 48.9792 185.86 48.7578ZM187.481 49.8711C187.481 50.2878 187.507 50.763 187.559 51.2969C187.624 51.8307 187.716 52.3841 187.833 52.957C187.963 53.5299 188.119 54.1094 188.302 54.6953C188.497 55.2682 188.718 55.8086 188.966 56.3164C189.213 56.8242 189.493 57.2865 189.805 57.7031C190.118 58.1068 190.47 58.4258 190.86 58.6602C191.303 58.0352 191.687 57.4753 192.012 56.9805C192.338 56.4857 192.605 55.9909 192.813 55.4961C193.022 55.0013 193.171 54.474 193.262 53.9141C193.367 53.3542 193.419 52.7031 193.419 51.9609C193.419 51.4271 193.386 50.9062 193.321 50.3984C193.256 49.8906 193.113 49.4414 192.891 49.0508C192.683 48.6471 192.384 48.3281 191.993 48.0938C191.602 47.8464 191.088 47.7227 190.45 47.7227C189.929 47.7227 189.421 47.8073 188.927 47.9766C188.445 48.1328 187.976 48.3411 187.52 48.6016C187.52 48.6406 187.514 48.7188 187.501 48.8359C187.501 48.9531 187.501 49.0833 187.501 49.2266C187.501 49.3568 187.494 49.487 187.481 49.6172C187.481 49.7344 187.481 49.819 187.481 49.8711ZM210.064 53.6406C210.064 53.4844 210.064 53.2305 210.064 52.8789C210.077 52.5143 210.084 52.1367 210.084 51.7461C210.084 51.3424 210.084 50.9648 210.084 50.6133C210.097 50.2617 210.103 50.0143 210.103 49.8711C210.116 49.7799 210.149 49.6432 210.201 49.4609C210.253 49.2656 210.311 49.0768 210.377 48.8945C210.455 48.7122 210.552 48.556 210.67 48.4258C210.8 48.2826 210.956 48.2109 211.138 48.2109C211.568 48.2109 211.972 48.3281 212.349 48.5625C212.727 48.7969 213.091 49.1094 213.443 49.5C213.795 49.8776 214.127 50.3008 214.439 50.7695C214.765 51.2383 215.084 51.707 215.396 52.1758C215.709 52.6315 216.015 53.0677 216.314 53.4844C216.614 53.888 216.913 54.2135 217.212 54.4609C217.538 54.3177 217.792 54.0573 217.974 53.6797C218.157 53.2891 218.306 52.8464 218.423 52.3516C218.541 51.8438 218.645 51.3229 218.736 50.7891C218.84 50.2422 218.977 49.7409 219.146 49.2852C219.315 48.8294 219.537 48.4583 219.81 48.1719C220.097 47.8724 220.487 47.7227 220.982 47.7227C221.568 47.7227 222.095 47.9505 222.564 48.4062C223.046 48.862 223.476 49.4414 223.853 50.1445C224.231 50.8477 224.55 51.6289 224.81 52.4883C225.084 53.3477 225.311 54.1745 225.494 54.9688C225.676 55.763 225.813 56.4792 225.904 57.1172C225.995 57.7552 226.041 58.2109 226.041 58.4844C226.041 58.6016 226.034 58.7318 226.021 58.875C226.008 59.0052 225.976 59.1289 225.923 59.2461C225.871 59.3503 225.787 59.4349 225.67 59.5C225.552 59.5521 225.383 59.5456 225.162 59.4805C225.097 59.4674 225.018 59.4349 224.927 59.3828C224.849 59.3177 224.765 59.2396 224.673 59.1484C224.582 59.0573 224.504 58.9727 224.439 58.8945C224.374 58.8034 224.341 58.7253 224.341 58.6602C224.224 58.0221 224.094 57.3125 223.951 56.5312C223.808 55.75 223.625 54.9622 223.404 54.168C223.196 53.3607 222.929 52.5794 222.603 51.8242C222.278 51.069 221.874 50.418 221.392 49.8711C221.015 50.0794 220.715 50.3984 220.494 50.8281C220.285 51.2448 220.11 51.707 219.966 52.2148C219.823 52.7096 219.693 53.2174 219.576 53.7383C219.459 54.2591 219.302 54.7344 219.107 55.1641C218.912 55.5807 218.664 55.9258 218.365 56.1992C218.065 56.4727 217.662 56.6094 217.154 56.6094C216.802 56.6094 216.457 56.4987 216.119 56.2773C215.793 56.043 215.474 55.7435 215.162 55.3789C214.849 55.0013 214.543 54.5911 214.244 54.1484C213.957 53.6927 213.671 53.25 213.384 52.8203C213.111 52.3776 212.837 51.9674 212.564 51.5898C212.304 51.2122 212.037 50.9128 211.763 50.6914C211.659 51.0951 211.574 51.4531 211.509 51.7656C211.457 52.0651 211.412 52.3581 211.373 52.6445C211.347 52.931 211.327 53.224 211.314 53.5234C211.314 53.8229 211.314 54.1549 211.314 54.5195C211.314 55.0664 211.36 55.6133 211.451 56.1602C211.542 56.694 211.64 57.2279 211.744 57.7617C211.848 58.2956 211.946 58.8359 212.037 59.3828C212.141 59.9167 212.193 60.457 212.193 61.0039V61.1602C212.167 61.1992 212.115 61.2643 212.037 61.3555C211.959 61.4336 211.874 61.5182 211.783 61.6094C211.705 61.7005 211.62 61.7852 211.529 61.8633C211.438 61.9284 211.373 61.974 211.334 62C211.321 62.013 211.295 62.0195 211.255 62.0195C211.216 62.0326 211.177 62.0391 211.138 62.0391C211.112 62.0391 211.08 62.0326 211.041 62.0195C211.002 62.0065 210.969 62 210.943 62C210.852 61.2448 210.754 60.5286 210.65 59.8516C210.546 59.1745 210.448 58.5039 210.357 57.8398C210.279 57.1758 210.207 56.5052 210.142 55.8281C210.09 55.151 210.064 54.4219 210.064 53.6406ZM229.422 56.5703C229.422 55.9062 229.507 55.2357 229.676 54.5586C229.858 53.8685 230.105 53.2109 230.418 52.5859C230.743 51.9609 231.134 51.3815 231.59 50.8477C232.046 50.3008 232.547 49.832 233.094 49.4414C233.654 49.0378 234.259 48.7253 234.91 48.5039C235.561 48.2695 236.245 48.1523 236.961 48.1523C237.677 48.1523 238.296 48.2956 238.816 48.582C239.35 48.8555 239.793 49.2266 240.145 49.6953C240.496 50.1641 240.757 50.7044 240.926 51.3164C241.095 51.9154 241.18 52.5273 241.18 53.1523C241.18 54.2461 241.017 55.3268 240.691 56.3945C240.366 57.4492 239.884 58.3997 239.246 59.2461C238.608 60.0794 237.814 60.7565 236.863 61.2773C235.926 61.7852 234.845 62.0391 233.621 62.0391C232.892 62.0391 232.26 61.8763 231.727 61.5508C231.206 61.2122 230.77 60.7826 230.418 60.2617C230.079 59.7279 229.826 59.1419 229.656 58.5039C229.5 57.8529 229.422 57.2083 229.422 56.5703ZM231.082 57C231.082 57.3516 231.141 57.7227 231.258 58.1133C231.375 58.5039 231.538 58.862 231.746 59.1875C231.954 59.513 232.215 59.7865 232.527 60.0078C232.853 60.2292 233.217 60.3398 233.621 60.3398C234.493 60.3398 235.288 60.1445 236.004 59.7539C236.72 59.3503 237.339 58.8359 237.859 58.2109C238.38 57.5729 238.784 56.8633 239.07 56.082C239.357 55.3008 239.5 54.526 239.5 53.7578C239.5 53.3151 239.487 52.8594 239.461 52.3906C239.435 51.9219 239.35 51.4987 239.207 51.1211C239.064 50.7305 238.836 50.418 238.523 50.1836C238.224 49.9362 237.788 49.8125 237.215 49.8125C237.033 49.8125 236.785 49.819 236.473 49.832C236.173 49.8451 235.874 49.8841 235.574 49.9492C235.275 50.0013 235.008 50.0859 234.773 50.2031C234.552 50.3203 234.441 50.4831 234.441 50.6914C234.441 50.7174 234.461 50.776 234.5 50.8672C234.552 50.9453 234.604 51.0299 234.656 51.1211C234.708 51.2122 234.754 51.3034 234.793 51.3945C234.832 51.4727 234.852 51.5247 234.852 51.5508C234.852 51.5768 234.799 51.6484 234.695 51.7656C234.591 51.8698 234.507 51.9349 234.441 51.9609C233.79 52.1302 233.243 52.3451 232.801 52.6055C232.371 52.8529 232.026 53.1784 231.766 53.582C231.518 53.9857 231.342 54.4674 231.238 55.0273C231.134 55.5872 231.082 56.2448 231.082 57ZM244.58 47.8789C245.153 47.8789 245.629 48.0482 246.006 48.3867C246.384 48.7253 246.703 49.168 246.963 49.7148C247.224 50.2487 247.439 50.8672 247.608 51.5703C247.777 52.2604 247.94 52.9766 248.096 53.7188C248.252 54.4479 248.409 55.1641 248.565 55.8672C248.734 56.5573 248.942 57.1758 249.19 57.7227C249.45 58.2695 249.756 58.7122 250.108 59.0508C250.472 59.3763 250.935 59.5391 251.495 59.5391C251.521 59.5391 251.553 59.5326 251.592 59.5195C251.618 59.5065 251.651 59.4935 251.69 59.4805C251.742 59.4674 251.82 59.4089 251.924 59.3047C252.028 59.1875 252.093 59.1094 252.12 59.0703C252.146 59.0052 252.198 58.7904 252.276 58.4258C252.354 58.0612 252.458 57.599 252.588 57.0391C252.732 56.4792 252.888 55.8477 253.057 55.1445C253.226 54.4414 253.402 53.7318 253.584 53.0156C253.78 52.2865 253.975 51.5833 254.17 50.9062C254.366 50.2161 254.554 49.6042 254.737 49.0703C254.919 48.5365 255.088 48.1133 255.245 47.8008C255.414 47.4753 255.557 47.3125 255.674 47.3125C255.83 47.3125 255.954 47.3451 256.045 47.4102C256.136 47.4753 256.202 47.5599 256.241 47.6641C256.28 47.7682 256.306 47.8854 256.319 48.0156C256.332 48.1328 256.338 48.25 256.338 48.3672C256.338 48.5625 256.299 48.9076 256.221 49.4023C256.156 49.8971 256.058 50.4831 255.928 51.1602C255.811 51.8242 255.661 52.5534 255.479 53.3477C255.31 54.1419 255.121 54.9492 254.913 55.7695C254.704 56.5768 254.476 57.3581 254.229 58.1133C253.982 58.8555 253.728 59.5195 253.467 60.1055C253.22 60.6784 252.959 61.1406 252.686 61.4922C252.426 61.8307 252.165 62 251.905 62C251.553 62 251.215 61.9023 250.889 61.707C250.564 61.5117 250.258 61.2578 249.971 60.9453C249.685 60.6328 249.411 60.2812 249.151 59.8906C248.903 59.487 248.676 59.0833 248.467 58.6797C248.272 58.276 248.09 57.8919 247.92 57.5273C247.751 57.1628 247.614 56.8438 247.51 56.5703C247.367 56.2188 247.191 55.7956 246.983 55.3008C246.788 54.793 246.579 54.2656 246.358 53.7188C246.149 53.1719 245.935 52.625 245.713 52.0781C245.505 51.5182 245.316 51.0234 245.147 50.5938C244.978 50.151 244.841 49.7865 244.737 49.5C244.633 49.2135 244.58 49.0573 244.58 49.0312V47.8789ZM266.009 59.2852C266.009 58.5951 265.924 57.8464 265.755 57.0391C265.585 56.2318 265.403 55.4049 265.208 54.5586C265.012 53.7122 264.824 52.8724 264.641 52.0391C264.459 51.1927 264.361 50.3984 264.348 49.6562H259.993C259.993 49.5521 259.993 49.4023 259.993 49.207C259.993 49.0117 260.012 48.8164 260.052 48.6211C260.091 48.4128 260.149 48.2305 260.227 48.0742C260.305 47.9049 260.423 47.8008 260.579 47.7617H271.321C271.308 48.1784 271.223 48.4974 271.067 48.7188C270.911 48.9401 270.703 49.1094 270.442 49.2266C270.195 49.3438 269.915 49.4219 269.602 49.4609C269.29 49.487 268.977 49.5195 268.665 49.5586C268.352 49.5977 268.046 49.6497 267.747 49.7148C267.447 49.7669 267.187 49.8776 266.966 50.0469C266.757 50.2161 266.595 50.4505 266.477 50.75C266.373 51.0365 266.347 51.4271 266.399 51.9219C266.399 52.1953 266.419 52.5599 266.458 53.0156C266.497 53.4583 266.562 53.9401 266.653 54.4609C266.744 54.9818 266.861 55.5091 267.005 56.043C267.148 56.5638 267.324 57.0456 267.532 57.4883C267.753 57.918 268.001 58.2695 268.274 58.543C268.561 58.8034 268.893 58.9336 269.27 58.9336C269.531 58.9596 269.863 58.9661 270.266 58.9531C270.683 58.9271 271.1 58.9076 271.516 58.8945C271.933 58.8815 272.324 58.888 272.688 58.9141C273.066 58.9401 273.339 59.0182 273.509 59.1484C273.678 59.2786 273.717 59.474 273.626 59.7344C273.535 59.9818 273.248 60.3203 272.766 60.75C271.933 61.0625 271.087 61.2773 270.227 61.3945C269.381 61.4987 268.528 61.5573 267.669 61.5703C266.809 61.5703 265.95 61.5573 265.091 61.5312C264.231 61.4922 263.378 61.4727 262.532 61.4727C262.05 60.8867 261.764 60.4375 261.673 60.125C261.582 59.8125 261.614 59.5977 261.77 59.4805C261.94 59.3503 262.2 59.2852 262.552 59.2852C262.916 59.2721 263.307 59.2852 263.723 59.3242C264.14 59.3503 264.557 59.3763 264.973 59.4023C265.39 59.4154 265.735 59.3763 266.009 59.2852ZM278.667 46.5117C278.602 46.5117 278.504 46.4987 278.374 46.4727C278.257 46.4336 278.133 46.3945 278.003 46.3555C277.873 46.3034 277.749 46.2578 277.632 46.2188C277.515 46.1667 277.437 46.1276 277.398 46.1016C277.385 46.0755 277.378 46.0495 277.378 46.0234C277.365 45.9974 277.359 45.9648 277.359 45.9258C277.359 45.7435 277.43 45.5872 277.573 45.457C277.717 45.3268 277.879 45.2227 278.062 45.1445C278.257 45.0534 278.446 44.9883 278.628 44.9492C278.81 44.8971 278.954 44.8646 279.058 44.8516H279.292H279.488C279.8 44.8776 280.197 44.9167 280.679 44.9688C281.161 45.0208 281.668 45.0794 282.202 45.1445C282.749 45.1966 283.296 45.2552 283.843 45.3203C284.403 45.3724 284.904 45.431 285.347 45.4961C285.803 45.5482 286.18 45.5938 286.48 45.6328C286.792 45.6589 286.974 45.6719 287.027 45.6719C287.131 45.6849 287.261 45.7109 287.417 45.75C287.586 45.776 287.756 45.8281 287.925 45.9062C288.094 45.9714 288.251 46.056 288.394 46.1602C288.537 46.2513 288.641 46.3685 288.706 46.5117C288.602 46.7201 288.511 46.8828 288.433 47C288.355 47.1042 288.27 47.1888 288.179 47.2539C288.088 47.306 287.99 47.332 287.886 47.332C287.795 47.332 287.678 47.332 287.534 47.332C286.988 47.332 286.434 47.3125 285.874 47.2734C285.327 47.2344 284.78 47.1953 284.234 47.1562C283.687 47.1172 283.133 47.0781 282.573 47.0391C282.027 47 281.473 46.9805 280.913 46.9805C280.913 47.2148 280.881 47.5664 280.816 48.0352C280.764 48.5039 280.718 48.9987 280.679 49.5195C280.653 50.0404 280.666 50.5612 280.718 51.082C280.783 51.5898 280.933 52.0195 281.167 52.3711C281.623 52.0977 282.098 51.9544 282.593 51.9414C283.088 51.9284 283.589 51.9219 284.097 51.9219C284.318 51.9219 284.598 51.9219 284.937 51.9219C285.275 51.9219 285.601 51.9609 285.913 52.0391C286.239 52.1172 286.512 52.2474 286.734 52.4297C286.955 52.612 287.066 52.8854 287.066 53.25C287.066 53.5104 287.014 53.7057 286.909 53.8359C286.805 53.9661 286.564 54.0312 286.187 54.0312C286.148 54.0312 286.063 54.0117 285.933 53.9727C285.816 53.9336 285.685 53.888 285.542 53.8359C285.412 53.7839 285.288 53.7383 285.171 53.6992C285.054 53.6602 284.976 53.6406 284.937 53.6406C284.924 53.6406 284.872 53.6406 284.78 53.6406C284.702 53.6276 284.605 53.6211 284.488 53.6211C284.37 53.6211 284.253 53.6211 284.136 53.6211C284.032 53.6081 283.947 53.6016 283.882 53.6016C283.583 53.6016 283.29 53.6211 283.003 53.6602C282.73 53.6992 282.489 53.7773 282.28 53.8945C282.072 54.0117 281.903 54.181 281.773 54.4023C281.655 54.6237 281.597 54.9102 281.597 55.2617C281.597 55.3789 281.61 55.5807 281.636 55.8672C281.662 56.1536 281.695 56.4727 281.734 56.8242C281.786 57.1628 281.851 57.5143 281.929 57.8789C282.007 58.2435 282.111 58.582 282.241 58.8945C282.372 59.194 282.515 59.4479 282.671 59.6562C282.84 59.8516 283.042 59.9492 283.277 59.9492C283.303 59.9492 283.368 59.9427 283.472 59.9297C283.576 59.9167 283.641 59.9102 283.667 59.9102C284.11 59.6107 284.553 59.2852 284.995 58.9336C285.451 58.582 285.92 58.2565 286.402 57.957C286.883 57.6445 287.385 57.3841 287.905 57.1758C288.426 56.9544 288.967 56.8438 289.527 56.8438V57.8008C289.527 57.8529 289.396 57.9961 289.136 58.2305C288.889 58.4648 288.557 58.7383 288.14 59.0508C287.736 59.3633 287.28 59.6953 286.773 60.0469C286.265 60.3984 285.757 60.724 285.249 61.0234C284.741 61.3099 284.253 61.5508 283.784 61.7461C283.329 61.9414 282.945 62.0391 282.632 62.0391C282.189 62.0391 281.792 61.8438 281.441 61.4531C281.102 61.0495 280.796 60.5221 280.523 59.8711C280.249 59.207 280.021 58.4453 279.839 57.5859C279.657 56.7266 279.494 55.8411 279.351 54.9297C279.221 54.0182 279.11 53.1133 279.019 52.2148C278.941 51.3034 278.876 50.4635 278.823 49.6953C278.771 48.9271 278.732 48.263 278.706 47.7031C278.693 47.1302 278.68 46.7331 278.667 46.5117Z" fill="black"/>
</svg>
