<svg width="553" height="370" viewBox="0 0 553 370" fill="none" xmlns="http://www.w3.org/2000/svg">
<g clip-path="url(#clip0_1_1189)">
<path d="M161.63 242.147C161.295 240.807 160.068 239.133 158.868 238.408L151.586 234.083C150.386 233.386 148.293 232.632 146.926 232.409L138.556 231.07C137.189 230.847 135.626 229.619 135.068 228.364L134.064 226.076C133.506 224.82 131.971 223.425 130.66 222.979L126.391 221.556C125.08 221.109 123.21 219.965 122.234 218.961L118.886 215.585C117.909 214.608 115.984 213.799 114.589 213.799H90.3432C88.9481 213.799 87.4415 212.739 86.9393 211.428L85.6837 208.052C85.2094 206.768 83.7306 205.317 82.4193 204.871L77.2576 203.085C75.9463 202.639 74.6349 201.16 74.328 199.793L74.1606 199.095C73.8537 197.756 72.5982 196.11 71.3705 195.44L64.6185 191.785C63.3909 191.116 62.8887 189.581 63.4746 188.326L65.623 183.834C66.2089 182.578 67.7992 181.295 69.1664 180.988L81.0522 178.253C82.3914 177.947 84.205 178.588 85.0699 179.676L86.6882 181.741C87.5531 182.829 89.3387 183.443 90.678 183.108L92.6868 182.606C94.0261 182.271 95.3374 180.876 95.5885 179.509L95.9512 177.556C96.2024 176.189 97.3463 174.459 98.4902 173.678L115.426 162.266C116.57 161.485 117.24 159.755 116.877 158.416L115.119 151.664C114.784 150.325 115.621 149.236 117.016 149.264L142.546 149.627C143.941 149.655 144.973 148.539 144.862 147.144L143.969 135.37C143.857 134.003 142.685 132.58 141.346 132.217L139.756 131.798C138.416 131.436 137.189 130.013 137.049 128.646L136.742 125.911C136.603 124.544 135.319 123.456 133.952 123.54L121.313 124.154C119.918 124.209 118.328 125.298 117.714 126.553L116.403 129.315C115.817 130.571 114.226 131.38 112.859 131.129L104.015 129.483C102.647 129.232 101.643 127.892 101.783 126.525L102.145 122.926C102.285 121.559 103.457 120.024 104.768 119.55L111.687 116.983C112.999 116.509 114.533 115.086 115.147 113.858L121.118 101.582C121.732 100.326 121.09 99.3218 119.695 99.3218H88.6412C87.2462 99.3218 85.2931 100.103 84.2887 101.052L80.6336 104.483C79.6292 105.432 77.6762 106.102 76.309 105.962L10.6861 99.5729C9.31891 99.4334 8.34237 100.438 8.50978 101.833L9.98853 112.77C10.1838 114.137 9.1794 115.253 7.81226 115.253H2.51108C1.11604 115.253 0 116.397 0 117.764V125.214C0 126.609 0.948631 128.339 2.12047 129.064L6.0545 131.547C7.22634 132.301 9.31891 132.887 10.6861 132.887H13.3924C14.7875 132.887 15.9593 131.743 16.043 130.375L16.1825 127.641C16.2662 126.246 17.466 125.214 18.8331 125.298L34.0391 126.274C35.4342 126.358 37.2477 127.334 38.0848 128.422L42.3257 133.919C43.1627 135.007 43.6928 137.044 43.4975 138.411L42.4931 145.498C42.2978 146.865 41.0143 148.204 39.6751 148.455L35.5737 149.236C34.2065 149.488 33.0905 150.827 33.0626 152.222L32.6999 178.616C32.672 180.011 33.4811 181.908 34.4855 182.885L42.9116 191.004C43.916 191.953 44.5299 193.878 44.3067 195.245L43.8323 198.035C43.6091 199.402 44.502 200.825 45.8412 201.188L62.9445 205.875C64.2837 206.238 65.7067 207.633 66.0973 208.944L66.8227 211.372C67.2133 212.711 68.6642 213.771 70.0592 213.771H72.7656C74.1606 213.771 75.472 214.887 75.7231 216.254L76.1416 218.682C76.3927 220.049 77.7041 221.165 79.0991 221.165H83.5353C84.9304 221.165 86.2417 222.281 86.4928 223.648L87.3578 228.587C87.6089 229.954 86.6602 231.07 85.2652 231.07H84.7072C83.3121 231.07 82.0566 232.186 81.9171 233.581L80.7732 243.653C80.6057 245.02 81.3591 246.862 82.4193 247.755L90.5943 254.451C91.6545 255.316 92.5473 257.185 92.5473 258.552V268.597C92.5473 269.992 93.4402 271.805 94.5283 272.642L100.025 276.883C101.113 277.72 102.089 279.562 102.201 280.929L104.852 318.958C104.935 320.325 105.94 322.138 107.028 322.976L109.902 325.124C111.018 325.961 111.911 327.774 111.911 329.142V339.186C111.911 340.581 112.943 342.143 114.226 342.674L125.08 347.194C126.363 347.724 127.675 347.054 128.009 345.715L129.795 338.544C130.13 337.205 129.516 335.391 128.428 334.554L126.363 332.936C125.275 332.071 124.466 330.258 124.55 328.863L125.945 307.63C126.028 306.235 126.893 304.31 127.87 303.333L149.326 281.515C150.302 280.538 151.083 278.585 151.083 277.19V266.281C151.083 264.886 151.865 262.933 152.813 261.928L161.853 252.247C162.802 251.242 163.304 249.317 162.997 247.95L161.63 242.147ZM131.274 103.088C131.943 104.288 132.195 106.381 131.832 107.72L129.962 114.528C129.6 115.867 130.409 117.123 131.776 117.346L138.305 118.378C139.672 118.601 141.625 118.015 142.629 117.067L143.243 116.509C144.248 115.56 145.085 113.663 145.085 112.268V108.111C145.085 106.715 144.052 105.153 142.769 104.595L137.886 102.475C136.631 101.917 136.017 100.438 136.575 99.1543L137.021 98.0941C137.579 96.8107 139.086 95.4156 140.397 94.9413L154.962 89.8633C156.273 89.4169 158.087 88.1893 159.007 87.1291L159.984 86.013C160.905 84.9807 161.323 83.0276 160.905 81.7163L160.514 80.4049C160.123 79.0657 158.784 78.5077 157.556 79.1773L149.744 83.2787C148.517 83.9205 146.396 84.4227 145.001 84.3948L131.33 84.1716C129.935 84.1437 128.484 85.2318 128.121 86.5431L126.754 91.2026C126.363 92.5418 126.586 94.6065 127.256 95.8341L131.274 103.088ZM201.528 86.8779L179.096 81.0746C177.757 80.7397 175.776 81.1583 174.688 82.0232L163.611 90.8399C162.523 91.7048 160.57 92.765 159.258 93.1836L151.781 95.6109C150.47 96.0294 149.382 97.4803 149.382 98.8474C149.382 100.215 150.525 101.303 151.893 101.303H155.743C157.138 101.303 157.975 102.391 157.64 103.73L154.432 116.341C154.097 117.681 154.208 119.857 154.683 121.14L157.417 128.674C157.891 129.985 159.398 131.045 160.793 131.045H163.416C164.811 131.045 166.513 130.069 167.238 128.897L176.25 114.165C176.976 112.993 178.65 111.682 179.961 111.263L201.528 104.483C202.84 104.065 203.928 102.586 203.928 101.219V90.0029C203.956 88.6357 202.868 87.2128 201.528 86.8779ZM223.012 116.648L225.188 113.272C225.942 112.1 225.495 110.733 224.212 110.231L219.999 108.557C218.715 108.055 217.097 108.613 216.427 109.813L214.893 112.519C214.223 113.719 214.67 115.225 215.897 115.867L219.413 117.653C220.64 118.266 222.259 117.82 223.012 116.648ZM242.403 139.666C243.184 140.81 244.468 140.783 245.249 139.639L246.002 138.495C246.756 137.351 246.588 135.593 245.612 134.616L243.826 132.831C242.85 131.854 241.455 132.022 240.729 133.193L240.701 133.249C239.976 134.421 240.032 136.318 240.841 137.462L242.403 139.666ZM251.359 146H251.583C252.978 146 254.707 145.051 255.489 143.88L256.409 142.484C257.163 141.313 257.749 139.248 257.693 137.853L257.33 129.036C257.274 127.641 256.214 126.999 254.959 127.585L253.675 128.199C252.42 128.785 251.387 130.403 251.387 131.798V134.756C251.387 136.151 250.829 137.992 250.132 138.885C249.434 139.778 248.876 141.62 248.876 143.015V143.489C248.848 144.856 249.964 146 251.359 146ZM551.908 119.383L547.807 112.965C547.053 111.793 545.323 110.929 543.928 111.012L521.133 112.463C519.738 112.547 517.841 111.793 516.892 110.789L511.48 105.097C510.531 104.093 508.634 103.088 507.267 102.837L475.543 97.3687C474.176 97.1455 471.944 97.1734 470.605 97.4524L445.633 102.754C444.266 103.033 442.257 102.586 441.169 101.749L428.921 92.5139C427.805 91.6769 425.768 91.0073 424.401 91.0073H377.053C375.658 91.0073 373.593 91.6211 372.421 92.3744L364.804 97.3129C363.633 98.0662 362.712 99.824 362.768 101.191L362.935 108.306C362.963 109.701 361.903 110.538 360.564 110.203L352.416 108.166C351.077 107.832 349.264 108.445 348.399 109.533L342.651 116.76C341.786 117.848 339.945 118.741 338.578 118.741H323.483C322.088 118.741 320.358 117.792 319.605 116.62L314.025 107.832C313.271 106.66 311.597 105.348 310.286 104.902L304.092 102.781C302.781 102.335 300.632 102.335 299.349 102.809L284.255 108.222C282.943 108.696 281.13 109.924 280.237 110.956L271.113 121.363C270.192 122.396 270.165 124.126 271.03 125.214L274.127 129.064C274.991 130.152 276.833 131.017 278.228 131.017H284.087C285.482 131.017 287.324 130.152 288.216 129.092L295.331 120.666C296.224 119.606 298.065 118.964 299.405 119.271L300.409 119.494C301.776 119.773 302.781 121.14 302.641 122.535L302.502 124.014C302.362 125.381 303.143 127.251 304.176 128.143L304.204 128.171C305.264 129.064 305.124 130.348 303.897 131.017L301.218 132.468C299.991 133.138 298.875 134.784 298.735 136.179L298.4 139.248C298.261 140.615 297.005 141.815 295.61 141.871L278.2 142.708C276.805 142.763 275.382 141.731 275.019 140.42L274.545 138.69C274.182 137.351 272.731 136.263 271.364 136.263H268.714C267.319 136.263 265.728 137.295 265.142 138.55L262.799 143.712C262.213 144.968 260.706 146.419 259.395 146.893L258.474 147.256C257.191 147.758 255.405 149.041 254.54 150.101L252.392 152.724C251.527 153.784 251.276 155.71 251.862 156.965L253.591 160.676C254.177 161.931 253.536 163.103 252.168 163.299L245.919 164.136C244.552 164.303 243.687 165.559 243.994 166.926L245.5 173.287C245.807 174.626 247.174 175.993 248.541 176.3L255.349 177.835C256.688 178.142 257.804 177.249 257.804 175.882V173.817C257.804 172.422 258.781 170.72 259.953 169.995L264.947 166.981C266.119 166.256 268.212 165.838 269.579 166.033L274.657 166.786C276.024 166.981 277.67 168.153 278.312 169.381L280.432 173.482C281.074 174.71 280.906 176.635 280.069 177.723L279.539 178.421C278.702 179.537 278.73 181.323 279.595 182.411L280.014 182.913C280.879 184.001 282.441 184.141 283.501 183.248L287.352 179.983C288.412 179.09 288.774 177.333 288.161 176.105L285.092 169.939C284.478 168.711 284.896 167.037 286.012 166.228L287.268 165.335C288.384 164.526 289.946 164.805 290.7 165.949L296.196 174.18C296.977 175.324 298.651 175.882 299.963 175.408L305.878 173.259C307.189 172.785 309.003 173.259 309.895 174.292L317.512 182.941C318.433 183.973 318.907 185.926 318.601 187.265L317.987 189.777C317.652 191.116 316.285 192.455 314.946 192.734L295.61 196.752C294.243 197.031 292.095 196.863 290.783 196.389L283.669 193.711C282.385 193.236 280.627 191.925 279.762 190.837L274.852 184.475C274.015 183.387 272.173 182.55 270.806 182.662L258.083 183.499C256.688 183.583 254.707 184.392 253.619 185.257L228.509 205.764C227.448 206.629 226.416 208.47 226.249 209.865L225.412 216.422C225.244 217.789 224.268 219.686 223.235 220.607L221.617 222.086C220.585 223.034 219.859 224.904 219.943 226.299L220.724 236.538C220.836 237.906 221.784 239.775 222.873 240.64L235.846 251.354C236.907 252.247 238.916 252.944 240.311 252.944H263.385C264.78 252.944 266.761 253.67 267.821 254.59L271.978 258.134C273.038 259.027 273.959 260.896 274.015 262.291L274.35 269.406C274.406 270.801 275.438 272.531 276.61 273.256L283.278 277.413C284.45 278.139 285.343 279.869 285.231 281.264L283.501 305.844C283.418 307.211 284.199 309.053 285.287 309.918L290.225 313.88C291.313 314.745 292.123 316.586 292.067 317.953L291.118 337.484C291.062 338.879 292.123 340.079 293.518 340.19L307.133 341.278C308.5 341.39 310.453 340.665 311.43 339.688L325.632 325.487C326.608 324.51 327.417 322.585 327.417 321.19V306.681C327.417 305.286 328.282 303.445 329.37 302.58L338.187 295.409C339.247 294.544 340.252 292.703 340.363 291.308L341.982 273.535C342.121 272.168 342.958 270.187 343.879 269.127L360.368 250.405C361.289 249.373 362.042 247.392 362.042 245.997V238.603C362.042 237.208 360.898 236.092 359.531 236.12L338.829 236.371C337.434 236.399 336.262 235.255 336.206 233.888L335.843 226.327C335.788 224.932 334.867 223.09 333.807 222.197L329.063 218.208C328.003 217.315 327.055 215.445 326.943 214.078L326.469 208.442C326.357 207.075 327.361 205.68 328.701 205.345L333.862 204.118C335.202 203.811 337.127 204.341 338.131 205.289L345.162 212.069C346.167 213.018 346.92 214.943 346.836 216.338L346.25 226.466C346.167 227.861 347.171 229.34 348.482 229.786L351.691 230.847C353.002 231.293 354.816 230.763 355.709 229.703L366.395 216.98C367.288 215.92 367.12 214.329 366.06 213.464L356.378 205.68C355.29 204.815 355.151 203.225 356.044 202.165L359.029 198.621C359.922 197.561 361.735 196.947 363.103 197.282L365.614 197.896C366.953 198.23 368.599 199.486 369.269 200.686L371.891 205.457C372.561 206.684 374.235 207.689 375.63 207.717L383.61 207.912C385.005 207.94 386.121 209.112 386.121 210.479V216.701C386.121 218.096 387.237 219.324 388.632 219.463L395.747 220.161C397.114 220.3 398.034 221.528 397.783 222.867L396.054 232.13C395.802 233.497 396.305 235.478 397.197 236.538L407.325 248.926C408.19 249.987 410.06 250.88 411.427 250.88H413.213C414.608 250.88 416.17 249.847 416.728 248.564L429.842 217.817C430.372 216.534 431.962 215.501 433.357 215.501H434.836C436.231 215.501 438.128 216.338 439.077 217.343L446.861 225.629C447.81 226.634 448.591 228.587 448.591 229.982V239.412C448.591 240.807 449.288 242.816 450.125 243.932L454.757 249.959C455.594 251.047 457.101 251.159 458.077 250.182L459.5 248.787C460.477 247.81 460.449 246.276 459.389 245.383L457.296 243.57C456.236 242.677 455.482 240.807 455.622 239.412L455.734 238.24C455.873 236.873 457.101 235.729 458.496 235.729H458.803C460.198 235.729 461.732 236.79 462.207 238.073L462.765 239.552C463.267 240.835 464.634 241.31 465.806 240.584L471.581 237.041C472.753 236.315 473.73 234.585 473.73 233.218V225.49C473.73 224.095 472.753 222.393 471.553 221.695L468.484 219.882C467.285 219.184 466.503 217.482 466.727 216.115L467.703 209.977C467.926 208.61 469.238 207.633 470.605 207.773L477.44 208.554C478.808 208.721 480.426 207.828 480.984 206.545L485.671 196.389C486.257 195.133 486.006 193.236 485.141 192.148L479.728 185.424C478.863 184.336 478.333 182.355 478.584 180.988L479.812 173.845C480.035 172.478 481.374 171.362 482.742 171.362H487.485C488.88 171.362 489.94 170.218 489.884 168.851L488.35 138.802C488.266 137.407 489.131 135.593 490.219 134.756L495.409 130.766C496.497 129.929 498.534 129.315 499.901 129.427L513.516 130.515C514.884 130.627 516.111 131.854 516.195 133.221L517.06 146.223C517.143 147.618 518.26 149.209 519.515 149.767L521.747 150.771C523.003 151.357 524.481 150.771 525.012 149.488L532.545 131.547C533.075 130.264 534.498 128.646 535.698 127.948L544.375 122.814C545.575 122.117 547.667 121.531 549.062 121.531H550.848C552.131 121.503 552.661 120.554 551.908 119.383ZM499.594 182.104C499.092 183.387 499.036 185.508 499.482 186.819L500.961 191.144C501.407 192.455 502.914 193.627 504.281 193.738L505.927 193.878C507.294 193.99 509.052 193.153 509.833 191.981L512.819 187.517C513.6 186.373 514.214 184.28 514.214 182.913V167.679C514.214 166.284 513.461 164.303 512.568 163.271L510.112 160.481C509.192 159.448 507.378 158.946 506.067 159.42L504.17 160.09C502.858 160.536 502.244 161.959 502.83 163.215L504.086 166.005C504.644 167.26 504.7 169.353 504.197 170.636L499.594 182.104ZM358.025 292.257L357.383 291.838C356.211 291.085 354.565 291.392 353.7 292.48L343.488 305.565C342.623 306.653 342.372 308.579 342.93 309.862L344.521 313.629C345.051 314.912 346.613 316.14 347.98 316.391L348.789 316.53C350.156 316.782 352.193 316.335 353.337 315.554L358.108 312.206C359.252 311.397 360.173 309.639 360.173 308.244V296.107C360.145 294.74 359.196 293.01 358.025 292.257ZM458.998 271.415H465.499C466.894 271.415 468.01 270.271 468.01 268.904V266.058C468.01 264.663 466.866 263.519 465.499 263.519L461.202 263.463C459.807 263.435 458.44 262.319 458.133 260.98L457.463 257.966C457.157 256.627 455.901 255.037 454.645 254.451L447.67 251.159C446.415 250.573 444.796 251.047 444.043 252.219L443.625 252.888C442.899 254.06 442.592 256.097 442.983 257.436L444.713 263.491C445.103 264.83 446.415 266.42 447.642 267.034L454.227 270.326C455.482 270.912 457.631 271.415 458.998 271.415ZM494.014 263.63L492.005 259.501C491.391 258.245 489.912 257.771 488.685 258.413L481.375 262.263C480.147 262.905 479.784 264.384 480.565 265.528L481.96 267.592C482.742 268.736 484.472 269.992 485.783 270.382L496.274 273.423C497.613 273.814 499.594 273.535 500.682 272.782C501.77 272.056 501.77 270.773 500.654 269.964L497.166 267.425C496.022 266.56 494.6 264.886 494.014 263.63ZM500.431 321.887L503.974 316.168C504.7 314.996 505.397 312.903 505.481 311.508L506.43 298.785C506.541 297.418 506.067 295.27 505.397 294.07L497.613 279.841C496.943 278.613 495.297 277.888 493.958 278.222L493.316 278.39C491.977 278.725 490.861 280.12 490.861 281.487V281.794C490.861 283.189 490.024 284.305 488.964 284.305C487.903 284.305 486.313 283.468 485.392 282.435L484.974 281.961C484.053 280.929 482.184 280.287 480.817 280.51L472.669 281.877C471.302 282.101 469.6 283.272 468.903 284.472L466.587 288.35C465.89 289.55 464.243 290.945 462.988 291.475L453.864 295.298C452.581 295.828 451.548 297.39 451.548 298.785V319.069C451.548 320.464 452.553 322.138 453.753 322.808H453.781C455.008 323.478 457.045 323.645 458.356 323.199L462.486 321.748C463.797 321.301 465.192 319.823 465.611 318.511L465.666 318.372C466.085 317.061 467.536 315.749 468.903 315.47L473.73 314.522C475.097 314.243 476.882 314.94 477.719 316.056L482.239 322.027C483.076 323.143 484.89 324.036 486.285 324.036H496.581C497.976 324.008 499.705 323.059 500.431 321.887ZM514.214 327.663L513.516 327.105C512.428 326.24 510.81 326.407 509.917 327.468L508.299 329.393C507.406 330.453 505.62 331.708 504.309 332.155L500.403 333.55C499.092 334.024 498.338 335.475 498.729 336.814L499.092 338.07C499.482 339.409 500.905 340.274 502.272 339.995L505.983 339.27C507.35 338.991 508.857 338.042 509.331 337.149C509.833 336.256 511.256 335.252 512.54 334.945C513.823 334.638 515.163 333.299 515.497 331.96L515.581 331.597C515.916 330.313 515.302 328.528 514.214 327.663ZM524.509 314.019C523.84 314.019 522.584 313.768 521.747 313.461C520.882 313.154 519.599 313.88 518.901 315.052L517.506 317.395C516.781 318.595 516.976 320.409 517.897 321.413L518.511 322.111C519.431 323.143 521.05 323.227 522.082 322.334L526.295 318.651C527.327 317.73 527.634 316.307 526.965 315.498C526.295 314.717 525.179 314.019 524.509 314.019Z" fill="black"/>
<path d="M430.427 316.634C430.427 166.607 79.6653 228.882 79.6654 56.3145" stroke="#FF36C6" stroke-width="4.04932" stroke-linecap="round" stroke-linejoin="round" stroke-dasharray="12.15 12.15"/>
<path d="M427.038 312.995C432.975 313.002 438.667 315.364 442.866 319.562C447.064 323.76 449.426 329.452 449.433 335.39C449.44 340.242 447.855 344.962 444.921 348.827C444.921 348.827 444.311 349.631 444.211 349.747L427.038 370L409.857 349.737C409.767 349.629 409.155 348.827 409.155 348.827L409.153 348.821C406.22 344.958 404.636 340.239 404.643 335.39C404.65 329.452 407.012 323.76 411.21 319.562C415.408 315.364 421.101 313.002 427.038 312.995ZM427.038 343.533C428.649 343.533 430.223 343.056 431.562 342.161C432.901 341.266 433.945 339.994 434.562 338.506C435.178 337.018 435.339 335.381 435.025 333.801C434.711 332.221 433.935 330.77 432.796 329.631C431.657 328.492 430.206 327.717 428.627 327.403C427.047 327.088 425.41 327.25 423.922 327.866C422.433 328.482 421.162 329.526 420.267 330.865C419.372 332.205 418.894 333.779 418.894 335.39C418.897 337.549 419.756 339.618 421.283 341.145C422.809 342.672 424.879 343.531 427.038 343.533Z" fill="#FF36C6"/>
<path d="M80.0746 0C86.0119 0.00700444 91.7041 2.36871 95.9024 6.56704C100.101 10.7654 102.462 16.4575 102.469 22.3949C102.477 27.2469 100.892 31.9672 97.9579 35.8318C97.9579 35.8318 97.3471 36.636 97.2474 36.752L80.0746 57.0051L62.8936 36.7418C62.804 36.6339 62.1912 35.8318 62.1912 35.8318L62.1892 35.8257C59.2569 31.9628 57.6727 27.2446 57.6797 22.3949C57.6867 16.4575 60.0484 10.7654 64.2467 6.56704C68.4451 2.36871 74.1372 0.00700444 80.0746 0ZM80.0746 30.5385C81.6852 30.5385 83.2597 30.0608 84.5989 29.166C85.9381 28.2712 86.9819 26.9993 87.5983 25.5113C88.2146 24.0232 88.3759 22.3858 88.0617 20.8061C87.7475 19.2264 86.9719 17.7754 85.833 16.6365C84.6941 15.4976 83.243 14.722 81.6633 14.4078C80.0836 14.0935 78.4462 14.2548 76.9582 14.8712C75.4701 15.4876 74.1983 16.5313 73.3034 17.8705C72.4086 19.2097 71.931 20.7842 71.931 22.3949C71.9337 24.5539 72.7925 26.6236 74.3192 28.1503C75.8458 29.6769 77.9156 30.5358 80.0746 30.5385Z" fill="#FF36C6"/>
</g>
<defs>
<clipPath id="clip0_1_1189">
<rect width="553" height="370" fill="white"/>
</clipPath>
</defs>
</svg>
