<svg width="48" height="48" viewBox="0 0 48 48" fill="none" xmlns="http://www.w3.org/2000/svg">
<g clip-path="url(#clip0_1_1165)">
<path d="M1.71421 42.2921C0.571403 40.4064 0 38.2427 0 35.8011C0.00283575 25.686 0.0382826 18.2081 0.106341 13.3675C0.14037 11.2577 0.450884 8.55667 1.31437 6.73612C2.47561 4.29454 5.01077 1.29999 7.89047 0.712992C11.4933 -0.0186309 15.1131 0.296137 18.6309 0.143007C21.3929 0.026741 23.5438 -0.0186308 25.0836 0.00689086C28.529 0.0706952 31.8298 0.0111444 35.1307 0.330166C37.2745 0.53434 39.682 0.615159 41.4941 1.84446C42.1832 2.31235 42.8949 2.93622 43.6294 3.71605C45.2288 5.4175 46.0625 7.62938 46.6665 9.85828C46.7827 10.2893 46.8579 10.7331 46.8919 11.1897C46.9231 11.6547 46.9671 12.1226 47.0238 12.5934C47.245 14.4593 47.3215 16.4953 47.2535 18.7016C47.1429 22.1853 47.1131 25.6562 46.8536 29.0379C46.658 31.5858 46.7898 34.1337 46.4878 36.6561C46.3134 38.1023 46.4453 39.4805 45.9774 40.9097C45.2798 43.0252 43.8364 44.6855 41.6472 45.8907C40.6037 46.4664 39.3488 46.8208 37.8828 46.9541C36.1388 47.1101 34.3763 47.2873 32.5955 47.4858C30.5935 47.7098 28.3476 47.7949 25.8578 47.741C23.5948 47.6942 21.468 47.8176 19.2391 47.958C16.6274 48.1196 13.9264 47.7836 11.3019 47.4858C8.77239 47.1994 6.50804 46.5287 4.50884 45.4739C3.7205 45.0598 3.08104 44.4048 2.59046 43.5087C2.51673 43.3697 2.4033 43.3187 2.25017 43.3555L1.55257 43.5172C1.39093 43.554 1.32571 43.4902 1.35691 43.3258C1.40228 43.0791 1.5072 42.8706 1.67167 42.7005C1.79077 42.5757 1.80495 42.4396 1.71421 42.2921ZM2.04174 11.2747C1.44198 11.8235 0.812442 12.1722 0.901768 13.0783C0.918782 13.2598 0.98684 13.281 1.10594 13.1421C1.4519 12.7337 1.75533 12.3112 2.01622 11.8745C2.53941 10.994 3.47521 10.692 4.22385 10.088C7.48212 7.45924 10.9417 4.78513 14.6027 2.06564C15.011 1.76222 15.3669 1.42193 15.6703 1.04477C15.7327 0.965373 15.7214 0.95403 15.6363 1.01075C15.6023 1.03343 15.5711 1.05754 15.5427 1.08306C15.435 1.17703 15.3012 1.23502 15.1599 1.24895C14.7374 1.29148 14.4198 1.38365 14.2071 1.52543C10.9148 3.71747 8.33993 5.63585 6.48252 7.28058C4.99092 8.59921 3.51066 9.93059 2.04174 11.2747ZM1.00811 18.1188C1.00931 18.122 1.01129 18.1249 1.01386 18.1272C1.01644 18.1295 1.01953 18.1312 1.02288 18.132C1.02623 18.1329 1.02974 18.1329 1.03309 18.1321C1.03645 18.1312 1.03955 18.1296 1.04214 18.1273C2.70105 16.5336 4.40533 14.8818 6.15499 13.1718C9.59617 9.81149 13.5478 7.11044 17.1293 3.93724C18.1842 3.00144 19.4348 2.27407 20.3281 1.16813C20.4727 0.986642 20.4372 0.937016 20.2217 1.01925C20.026 1.09582 19.8247 1.15537 19.6177 1.1979C18.9882 1.32551 18.5713 2.0146 18.1417 2.45272C17.9007 2.6966 17.6469 2.92346 17.3803 3.1333C13.6796 6.05554 9.9237 8.61622 6.40595 11.832C4.68749 13.403 2.87545 15.0761 0.969826 16.8512C0.944304 16.8768 0.928707 16.9065 0.923036 16.9406C0.871992 17.3347 0.90035 17.7275 1.00811 18.1188ZM13.1735 9.15643C13.0856 9.23583 13.0997 9.26702 13.216 9.25001L15.7809 8.84166C15.8532 8.83101 15.9224 8.80502 15.984 8.76542C16.0456 8.72582 16.0981 8.67352 16.1382 8.61197C16.7054 7.73856 17.3775 6.96865 18.1545 6.30225C19.7708 4.92124 21.7062 3.20703 23.9606 1.15962C24.0996 1.03485 24.0769 0.975299 23.8926 0.98097L21.6509 1.04052C21.5403 1.04336 21.4482 1.08447 21.3744 1.16388C18.9102 3.75858 16.1765 6.42277 13.1735 9.15643ZM29.3627 1.16388C29.3781 1.14944 29.3881 1.13025 29.3912 1.10941C29.3943 1.08857 29.3903 1.06729 29.3798 1.04903L29.2777 0.878883C29.2709 0.867132 29.2616 0.856999 29.2505 0.849187C29.2394 0.841375 29.2267 0.836071 29.2134 0.833643C29.2 0.831215 29.1863 0.831721 29.1732 0.835126C29.16 0.838531 29.1478 0.844753 29.1373 0.853361L20.277 8.48861C20.2623 8.50062 20.2517 8.51681 20.2464 8.53502C20.2411 8.55323 20.2415 8.57262 20.2475 8.5906C20.2535 8.60859 20.2648 8.62433 20.28 8.63574C20.2951 8.64715 20.3134 8.65369 20.3323 8.6545L21.0597 8.7098C21.0843 8.71197 21.1087 8.70432 21.1277 8.68853L29.3627 1.16388ZM25.0283 1.06604C24.7561 1.06604 24.5235 1.16246 24.3307 1.35529C22.065 3.64657 19.7325 6.09524 17.3335 8.70129C17.2853 8.75234 17.2966 8.77644 17.3675 8.7736C17.2825 8.77928 17.9701 8.73816 19.4305 8.65025C19.5043 8.64741 19.5652 8.61764 19.6134 8.56092C21.8253 5.93219 24.2343 3.51471 26.8404 1.3085C27.0303 1.1497 27.0006 1.0703 26.751 1.0703L25.0283 1.06604ZM24.4498 7.03387C24.4435 7.0405 24.4386 7.04833 24.4354 7.05689C24.4322 7.06545 24.4308 7.07456 24.4312 7.08369C24.4316 7.09282 24.4338 7.10178 24.4377 7.11003C24.4417 7.11828 24.4472 7.12565 24.4541 7.13171L24.5477 7.22103C24.5603 7.233 24.577 7.23967 24.5944 7.23967C24.6118 7.23967 24.6286 7.233 24.6412 7.22103L31.447 1.09582C31.4592 1.0861 31.4677 1.07249 31.4711 1.05725C31.4744 1.04202 31.4725 1.02609 31.4655 1.01214C31.4585 0.998187 31.447 0.987054 31.4328 0.980605C31.4186 0.974157 31.4026 0.972784 31.3875 0.976716L29.9668 1.23619C29.952 1.23887 29.9385 1.24634 29.9285 1.25746L24.4498 7.03387ZM25.8365 8.65025C25.8625 8.65164 25.8886 8.64612 25.9124 8.63422C25.9362 8.62232 25.9569 8.60442 25.9726 8.58219C27.6542 6.21151 29.6194 4.00671 31.8681 1.96781C32.1148 1.74662 32.2212 1.40633 32.4807 1.19365C32.6054 1.09156 32.5884 1.04761 32.4296 1.06179C32.1432 1.08447 31.9036 1.19649 31.7107 1.39783C29.4989 3.69478 26.8404 6.0045 24.5987 8.51413C24.5931 8.52084 24.5896 8.52897 24.5884 8.53759C24.5872 8.54622 24.5885 8.555 24.592 8.56296C24.5955 8.57091 24.6012 8.57772 24.6084 8.58262C24.6156 8.58752 24.624 8.59032 24.6327 8.5907L25.8365 8.65025ZM0.918782 15.1711C0.919504 15.1944 0.926826 15.217 0.939898 15.2363C0.952971 15.2557 0.971257 15.2709 0.992635 15.2802C1.01401 15.2896 1.03761 15.2927 1.06067 15.2892C1.08374 15.2857 1.10534 15.2757 1.12296 15.2604C6.38043 10.6665 11.791 6.30225 17.0996 1.96781C17.213 1.87707 17.342 1.82319 17.4866 1.80617C17.6454 1.79199 17.7844 1.7367 17.9035 1.64028C18.0736 1.507 18.0538 1.41484 17.8439 1.3638C17.0641 1.17664 16.5381 1.20641 16.2658 1.45312C12.9268 4.48595 9.23036 7.20827 5.92104 10.0667C4.38974 11.3882 2.79038 12.6912 1.12296 13.9758C0.975497 14.0892 0.903186 14.2395 0.906021 14.4267L0.918782 15.1711ZM34.2459 1.3085C34.1807 1.30566 34.1226 1.32551 34.0715 1.36805C31.7122 3.39277 29.2777 5.68973 26.768 8.25892C26.6206 8.40921 26.639 8.53398 26.8233 8.63323C26.985 8.71547 27.1509 8.7254 27.321 8.66301C27.4741 8.60346 27.6003 8.50846 27.6996 8.37802C28.8608 6.85947 30.4134 5.67271 31.8766 4.42215C32.9826 3.47501 34.1339 2.4981 35.3306 1.4914C35.3329 1.48882 35.3345 1.48571 35.3353 1.48236C35.3361 1.479 35.3361 1.4755 35.3353 1.47215C35.3344 1.4688 35.3328 1.4657 35.3305 1.46313C35.3282 1.46056 35.3253 1.45858 35.3221 1.45738C34.9903 1.36663 34.6316 1.31701 34.2459 1.3085ZM3.23275 6.29374C3.02007 6.43411 2.86694 6.40859 2.63299 6.43411C2.46568 6.45396 2.34658 6.54045 2.27569 6.69358L1.82055 7.70595C1.65324 8.07743 1.72697 8.13273 2.04174 7.87184C2.40471 7.56841 2.77903 7.2976 3.16469 7.05939C6.10536 5.23317 8.76246 3.51187 11.136 1.8955C11.8109 1.43611 11.7485 1.28298 10.9488 1.43611C10.5915 1.50842 10.1874 1.55946 9.84288 1.79767C7.75577 3.2439 5.55239 4.74259 3.23275 6.29374ZM30.8005 8.06325C30.7827 8.0489 30.7684 8.03075 30.7585 8.01014C30.7487 7.98953 30.7436 7.96699 30.7436 7.94415C30.7436 7.92131 30.7487 7.89876 30.7585 7.87815C30.7684 7.85755 30.7827 7.8394 30.8005 7.82505C33.2931 5.8145 35.7006 3.75433 38.0231 1.64453C38.1848 1.49708 38.1621 1.45738 37.9551 1.52543C37.4872 1.6814 36.9441 1.65588 36.3259 1.44887C36.2293 1.41695 36.1256 1.41321 36.0269 1.43806C35.9282 1.46292 35.8387 1.51536 35.7687 1.58924L29.7541 7.8931C29.6321 8.02355 29.6605 8.0987 29.8392 8.11855L31.1705 8.25466C31.1744 8.25336 31.1777 8.251 31.1803 8.24785C31.1828 8.2447 31.1844 8.24089 31.1848 8.23687C31.1853 8.23286 31.1846 8.2288 31.1828 8.22517C31.181 8.22154 31.1782 8.21849 31.1748 8.21638C31.0273 8.19653 30.9026 8.14549 30.8005 8.06325ZM33.6547 8.77786C33.7057 8.33123 34.0162 7.93139 34.348 7.64639C35.9303 6.28524 37.551 4.93117 39.2099 3.58419C39.6211 3.24957 40.0166 2.85398 40.3966 2.39743C40.4477 2.33788 40.4349 2.29818 40.3584 2.27832L39.1333 1.93803C39.0114 1.90684 38.905 1.93378 38.8143 2.01885L31.8256 8.68003C31.5987 8.89271 31.6399 8.97778 31.949 8.93524C32.3857 8.87286 32.8238 8.90688 33.2633 9.03733C33.4987 9.10822 33.6291 9.02173 33.6547 8.77786ZM4.33869 4.63908L7.35026 2.40168C7.36475 2.39139 7.37465 2.37584 7.37783 2.35836C7.38101 2.34087 7.37722 2.32283 7.36727 2.3081L7.33324 2.26556C7.2692 2.18746 7.05096 2.22945 6.72598 2.38238C6.40099 2.53531 5.99554 2.78683 5.59777 3.08226L5.49568 3.15882C5.09732 3.45484 4.73916 3.77078 4.49932 4.03772C4.25947 4.30466 4.15739 4.50095 4.21534 4.58379L4.24511 4.62632C4.25603 4.64015 4.27188 4.6492 4.28933 4.65158C4.30678 4.65396 4.32448 4.64948 4.33869 4.63908ZM37.3213 7.472C38.6739 6.21009 40.1499 4.92975 41.7493 3.63098C41.9024 3.5062 41.8982 3.38568 41.7365 3.26942L41.0602 2.78876C40.9071 2.681 40.7667 2.69518 40.6391 2.8313L34.7734 9.14367C34.5919 9.3365 34.6301 9.45986 34.8882 9.51373C35.098 9.55911 35.288 9.64843 35.4582 9.78171C35.6198 9.90932 35.7375 9.87671 35.8112 9.68388C36.126 8.85584 36.6294 8.11855 37.3213 7.472ZM2.31822 9.18195C2.09278 9.37337 1.83331 9.4159 1.55257 9.47545C1.37959 9.51232 1.29452 9.62008 1.29735 9.79873C1.30303 10.3063 1.19669 10.7912 0.978333 11.2535C0.896096 11.4264 0.928707 11.4506 1.07617 11.3258C3.46954 9.31807 5.84022 7.28625 8.18822 5.23034C8.86455 4.64334 9.6302 4.26477 10.1619 3.49911C10.2328 3.39419 10.2158 3.37718 10.1109 3.44807C7.38287 5.22041 4.78532 7.13171 2.31822 9.18195ZM37.4276 10.9089C37.4535 10.9262 37.4853 10.9323 37.5163 10.9259C37.5473 10.9196 37.575 10.9012 37.5935 10.8749C38.0784 10.1574 38.6881 9.51373 39.4226 8.94375C40.8007 7.88034 42.2413 6.74888 43.7442 5.54936C43.7578 5.5388 43.7691 5.52561 43.7774 5.51064C43.7857 5.49566 43.7908 5.47924 43.7924 5.46241C43.794 5.44559 43.7921 5.42874 43.7867 5.41295C43.7814 5.39715 43.7727 5.38277 43.7613 5.37071L42.4554 3.93724C42.4044 3.88336 42.3547 3.88478 42.3065 3.94149C40.7525 5.8301 38.7505 7.87042 36.3004 10.0625C36.255 10.1022 36.2579 10.1376 36.3089 10.1688L37.4276 10.9089ZM44.1909 7.49326C44.188 7.50744 44.1866 7.52162 44.1866 7.5358C44.2093 7.78251 44.3029 7.81512 44.4674 7.63363C44.5439 7.5514 44.6233 7.47625 44.7056 7.40819C44.8473 7.29476 44.8573 7.17141 44.7353 7.03813C44.4688 6.74888 44.3029 6.37456 44.2377 5.91517C44.215 5.74219 44.1398 5.71667 44.0122 5.83861C42.3646 7.46065 40.7057 9.10964 39.0355 10.7856C38.7519 11.0748 38.4343 11.3059 38.0827 11.4789C38.0061 11.5186 37.9863 11.5767 38.0231 11.6533L38.3251 12.3126C38.3648 12.3977 38.4187 12.4076 38.4868 12.3424C39.9784 10.8848 41.4374 9.44284 42.8637 8.01646C43.2097 7.6705 43.6081 7.45073 44.059 7.35715C44.1696 7.33446 44.2136 7.37983 44.1909 7.49326ZM38.7505 14.0141C38.9206 14.4479 39.0142 15.1072 38.8143 15.5581C38.7122 15.7822 38.7647 15.8275 38.9717 15.6942C39.2212 15.5354 39.4254 15.3469 39.5842 15.1285C41.3168 12.7834 43.1544 10.6353 45.0969 8.68428C45.2018 8.57936 45.2401 8.45458 45.2117 8.30996L45.1182 7.85908C45.087 7.70311 45.0132 7.68042 44.897 7.79102L38.8526 13.5547C38.7165 13.6851 38.6824 13.8382 38.7505 14.0141ZM9.8684 34.24L9.8046 34.4485C9.75639 34.5959 9.76773 34.7405 9.83863 34.8823C10.0116 35.2311 10.1406 35.6026 10.2257 35.9968C10.3788 36.6944 11.3572 37.5408 12.059 37.6642C13.6215 37.9393 15.3981 38.1023 17.3888 38.1534C17.8113 38.1647 18.2367 38.1831 18.6649 38.2087C20.8881 38.3476 23.2248 38.4242 25.6749 38.4384C27.4529 38.4469 29.1501 38.0045 30.9366 38.0385C32.173 38.0612 33.3966 37.9846 34.6075 37.8088C37.9891 37.3154 39.1844 33.5765 38.6186 30.5989C38.4797 29.8673 38.4201 29.1697 38.44 28.5062C38.5704 24.037 38.5137 20.732 38.2698 18.591C38.1337 17.3773 38.0359 16.2146 37.9763 15.103C37.9225 14.1559 37.792 13.4342 37.585 12.9379C36.8704 11.2194 35.288 10.5559 33.5611 10.0412C31.8171 9.51799 29.7201 9.82 27.8825 9.61157C26.9921 9.50664 26.096 9.48396 25.1942 9.54351C22.0253 9.75194 18.784 9.66261 15.53 9.84126C14.709 9.88805 13.9944 10.1177 13.199 10.2198C11.2551 10.4708 10.1576 12.0531 10.0385 13.9843C10.03 14.1006 10.057 14.2097 10.1194 14.3118C10.2668 14.5557 10.2328 14.7726 10.0173 14.9626C9.95287 15.0205 9.9011 15.0908 9.86524 15.1691C9.82937 15.2474 9.81017 15.3321 9.80885 15.4178C9.73512 21.4834 9.71244 27.5562 9.74079 33.636C9.74079 33.7353 9.76773 33.8274 9.82161 33.9125C9.88967 34.0146 9.90527 34.1238 9.8684 34.24ZM45.9008 10.8196L45.7137 9.85828C45.713 9.85268 45.7107 9.8474 45.7072 9.84304C45.7036 9.83867 45.6989 9.83541 45.6935 9.83363C45.6882 9.83185 45.6824 9.83162 45.677 9.83297C45.6715 9.83432 45.6665 9.8372 45.6626 9.84126L38.8738 16.7109C38.8653 16.7194 38.8639 16.7279 38.8696 16.7364L38.9377 16.8215C38.9547 16.8441 38.9745 16.847 38.9972 16.83C41.5097 15.1313 43.7896 13.2002 45.837 11.0365C45.8966 10.9741 45.9178 10.9018 45.9008 10.8196ZM9.41752 14.0098C9.46005 13.3718 9.52386 12.8869 9.78333 12.2956C9.88258 12.0687 9.83579 12.0333 9.64296 12.1893C5.94231 15.2093 3.65386 17.0341 1.18251 19.8415C0.998183 20.0514 0.908857 20.2952 0.914529 20.5732L0.918782 20.8241C0.924454 21.1332 1.04639 21.1885 1.28459 20.99L9.23036 14.3841C9.28546 14.337 9.33044 14.2795 9.3626 14.2152C9.39476 14.1508 9.41344 14.081 9.41752 14.0098ZM46.0516 12.1397C46.0375 12.1238 46.0204 12.1109 46.0013 12.1016C45.9822 12.0923 45.9615 12.0869 45.9403 12.0857C45.9191 12.0844 45.8979 12.0873 45.8778 12.0943C45.8577 12.1012 45.8392 12.112 45.8234 12.1261L39.1881 18.0172C39.1722 18.0313 39.1593 18.0484 39.15 18.0675C39.1407 18.0866 39.1353 18.1073 39.1341 18.1285C39.1328 18.1497 39.1357 18.1709 39.1427 18.191C39.1496 18.211 39.1605 18.2295 39.1746 18.2454L39.3101 18.3981C39.3242 18.4139 39.3413 18.4269 39.3604 18.4362C39.3795 18.4454 39.4002 18.4509 39.4214 18.4521C39.4426 18.4534 39.4638 18.4504 39.4839 18.4435C39.5039 18.4366 39.5224 18.4257 39.5383 18.4116L46.1736 12.5206C46.1894 12.5065 46.2024 12.4894 46.2117 12.4703C46.2209 12.4512 46.2263 12.4305 46.2276 12.4093C46.2289 12.3881 46.2259 12.3669 46.219 12.3468C46.212 12.3267 46.2012 12.3082 46.1871 12.2924L46.0516 12.1397ZM6.51655 13.8992C6.98728 13.5391 7.42541 13.0953 7.83092 12.5678C7.83269 12.5644 7.83324 12.5604 7.83247 12.5567C7.83171 12.5529 7.82966 12.5494 7.82669 12.547C7.82372 12.5445 7.81998 12.5431 7.81611 12.543C7.81224 12.5429 7.80846 12.5442 7.80539 12.5466C7.34033 12.9804 6.89512 13.4157 6.46976 13.8524C6.25708 14.0708 6.27267 14.0864 6.51655 13.8992ZM39.4906 21.4366C40.2307 20.9134 40.6136 20.1648 41.1963 19.4672C42.4894 17.9387 43.8463 16.3663 45.267 14.7499C45.2954 14.7159 45.294 14.6833 45.2628 14.6521V14.6479C45.2146 14.5968 45.1635 14.594 45.1097 14.6393C43.3487 16.0516 41.7039 17.5928 40.1755 19.263C40.0393 19.4105 39.882 19.5395 39.7033 19.6501C39.5672 19.7352 39.492 19.8585 39.4779 20.0202L39.3588 21.3601C39.3503 21.4792 39.3942 21.5047 39.4906 21.4366ZM46.356 17.2C46.3725 17.1868 46.3857 17.17 46.3945 17.1508C46.4034 17.1316 46.4077 17.1106 46.407 17.0894L46.3942 15.2263C46.394 15.1993 46.3858 15.173 46.3706 15.1507C46.3553 15.1283 46.3338 15.1111 46.3087 15.101C46.2836 15.091 46.2561 15.0886 46.2297 15.0943C46.2032 15.1 46.1791 15.1133 46.1603 15.1328L39.5502 21.8705C39.531 21.889 39.5177 21.9126 39.5119 21.9386L39.4268 22.3767C39.422 22.4037 39.4254 22.4316 39.4367 22.4566C39.448 22.4816 39.4666 22.5027 39.4901 22.5169C39.5136 22.5312 39.5408 22.538 39.5682 22.5365C39.5957 22.535 39.622 22.5253 39.6438 22.5085L46.356 17.2ZM1.1187 23.6145C2.69821 22.1597 4.20541 20.9163 5.6403 19.8841C6.759 19.0801 7.59271 17.8976 8.85604 17.4042C9.04036 17.3305 9.13111 17.1944 9.12827 16.9959L9.11551 16.1366C9.11268 15.8757 9.01484 15.8318 8.82201 16.0048L0.98684 22.9892C0.951614 23.0204 0.92463 23.0596 0.9083 23.1034C0.89197 23.1472 0.886803 23.1942 0.893261 23.2402L0.935797 23.5507C0.955647 23.6868 1.01662 23.7081 1.1187 23.6145ZM3.69214 23.1338C4.74704 22.2916 5.95932 21.7429 7.00571 20.8581C7.54167 20.4073 8.18822 20.1308 8.8135 19.8075C8.99216 19.7139 9.08006 19.5665 9.07723 19.3651L9.07298 18.4166C9.07298 18.2152 8.99783 18.1826 8.84753 18.3187C7.80114 19.2673 6.56334 19.8926 5.55523 20.8964C4.87465 21.5742 4.17706 22.208 3.46245 22.7978C3.44038 22.8173 3.42513 22.8433 3.419 22.8716C3.41286 22.9 3.41617 22.9293 3.42842 22.9552L3.49648 23.087C3.54468 23.1835 3.60991 23.1991 3.69214 23.1338ZM39.7458 24.3801C41.7195 22.6276 43.7613 21.2325 45.9859 19.9947C46.1731 19.8897 46.2794 19.7309 46.3049 19.5183L46.3985 18.7313C46.4269 18.513 46.3545 18.4733 46.1816 18.6122C44.8842 19.6629 43.2891 20.5008 42.1661 21.6366C41.3324 22.4759 40.4562 23.2543 39.5374 23.9718C39.499 24.0007 39.4728 24.043 39.4642 24.0903C39.4555 24.1376 39.4649 24.1864 39.4906 24.227L39.5629 24.3504C39.614 24.4354 39.6749 24.4454 39.7458 24.3801ZM9.03044 20.5051C9.02435 20.4922 9.01552 20.4808 9.00457 20.4717C8.99361 20.4626 8.9808 20.456 8.96703 20.4523C8.95325 20.4487 8.93885 20.4481 8.92482 20.4506C8.91079 20.4531 8.89748 20.4586 8.88581 20.4668L1.06341 26.0816C1.0514 26.0897 1.04135 26.1004 1.03399 26.113C1.02664 26.1255 1.02215 26.1394 1.02087 26.1539L0.974079 26.8728C0.972591 26.8916 0.976619 26.9106 0.985675 26.9272C0.99473 26.9438 1.00842 26.9575 1.02509 26.9665C1.04176 26.9755 1.06068 26.9795 1.07956 26.978C1.09845 26.9764 1.11648 26.9694 1.13146 26.9578L9.07723 20.7986C9.09409 20.7854 9.10613 20.7669 9.11151 20.7462C9.11689 20.7254 9.11531 20.7035 9.107 20.6837L9.03044 20.5051ZM46.088 22.4235C46.1943 21.9471 46.156 21.4919 46.2879 20.9687C46.3985 20.5292 46.295 20.4711 45.9774 20.7943C44.0292 22.7822 41.8968 24.7956 39.5799 26.8345C39.4382 26.9564 39.3545 27.1095 39.329 27.2939L39.2609 27.749C39.2382 27.9021 39.2893 27.9305 39.4141 27.8341L45.8243 22.8446C45.9632 22.734 46.0511 22.5936 46.088 22.4235ZM4.81935 25.4861L8.9326 22.4915C8.95261 22.4769 8.96936 22.4587 8.9818 22.4383C8.99424 22.4178 9.00211 22.3954 9.00492 22.3724L9.06872 21.8365C9.08857 21.6692 9.03469 21.6394 8.90708 21.7471C7.84084 22.6489 6.68953 23.5762 5.45314 24.529C5.1242 24.7814 4.86756 25.0593 4.68324 25.3627C4.52443 25.6236 4.56981 25.6647 4.81935 25.4861ZM8.97514 24.2695C9.00917 23.8158 9.01059 23.3579 8.9794 22.8956C8.97817 22.8869 8.97469 22.8786 8.9693 22.8716C8.96391 22.8646 8.9568 22.8591 8.94865 22.8557C8.9405 22.8522 8.93161 22.851 8.92283 22.852C8.91405 22.8531 8.90569 22.8564 8.89858 22.8616C6.43148 25.0083 3.92751 27.1407 1.38668 29.259C1.174 29.4349 1.04214 29.6575 0.991094 29.9269C0.954229 30.131 1.0152 30.1665 1.174 30.0332C3.45394 28.0879 6.02455 26.2163 8.88581 24.4184C8.94253 24.3844 8.9723 24.3348 8.97514 24.2695ZM39.8692 28.94C39.8096 28.9599 39.7487 28.967 39.6863 28.9613C39.6517 28.9592 39.617 28.9647 39.5848 28.9775C39.5525 28.9902 39.5234 29.0098 39.4996 29.0349C39.4757 29.06 39.4575 29.09 39.4464 29.1228C39.4353 29.1557 39.4315 29.1906 39.4353 29.225L39.5629 30.3139C39.565 30.3313 39.5715 30.3478 39.5818 30.3619C39.5921 30.376 39.6058 30.3871 39.6214 30.394C39.6371 30.401 39.6541 30.4035 39.6707 30.4014C39.6874 30.3993 39.703 30.3926 39.7161 30.382L45.9519 25.5626C45.9773 25.5425 45.998 25.5173 46.0127 25.4887C46.0274 25.46 46.0357 25.4287 46.0369 25.3968L46.105 23.4911C46.1064 23.4812 46.1046 23.4711 46.0999 23.4623C46.0952 23.4535 46.0878 23.4464 46.0787 23.4422C46.0697 23.4379 46.0595 23.4366 46.0497 23.4385C46.0399 23.4405 46.0309 23.4455 46.0242 23.4529C44.1242 25.194 42.1676 26.9692 40.1542 28.7784C40.0719 28.8521 39.9769 28.906 39.8692 28.94ZM8.91984 26.3878C8.96805 26.351 8.99357 26.3014 8.99641 26.239C9.01342 25.8221 8.98648 25.4138 8.91559 25.0139C8.91481 25.0099 8.91307 25.0061 8.91051 25.0029C8.90795 24.9997 8.90465 24.9971 8.90089 24.9954C8.89713 24.9938 8.89302 24.993 8.88892 24.9933C8.88481 24.9935 8.88083 24.9948 8.87731 24.9969C7.00571 26.463 5.15539 28.0567 3.32633 29.778C2.86694 30.2119 2.26718 30.6727 1.52705 31.1604C1.33422 31.288 1.20945 31.4638 1.15273 31.6879L0.98684 32.3259C0.927289 32.5584 0.992512 32.601 1.18251 32.4535L8.91984 26.3878ZM39.9075 31.9516C39.5814 32.1274 39.4495 32.5116 39.5119 33.1043C39.5402 33.3595 39.6537 33.4049 39.8522 33.2404C41.9081 31.5078 43.5954 29.9226 44.914 28.4849C45.1011 28.2807 45.3294 28.1233 45.5988 28.0127C46.1631 27.7774 46.2936 27.2258 45.9902 26.3581C45.9827 26.3377 45.9704 26.3195 45.9545 26.3048C45.9386 26.2902 45.9195 26.2797 45.8989 26.2742C45.8783 26.2688 45.8568 26.2685 45.8364 26.2735C45.8159 26.2785 45.7972 26.2885 45.7817 26.3028C43.8591 28.0212 42.0867 29.7596 40.4647 31.5177C40.3031 31.6907 40.1173 31.8353 39.9075 31.9516ZM8.83477 27.5321C8.19673 28.2254 7.36727 28.4891 6.6952 29.1102C5.58359 30.1452 4.42235 31.1703 3.21148 32.1855C3.01865 32.3472 2.87261 32.5372 2.77336 32.7555C2.65426 33.0107 2.70814 33.0547 2.935 32.8874C4.15579 31.9899 5.50419 31.2795 6.61438 30.2544C7.31765 29.605 8.06061 29.1726 8.84328 28.957C8.92552 28.9344 8.96522 28.8805 8.96238 28.7954L8.90708 27.5576C8.90425 27.4952 8.88014 27.4867 8.83477 27.5321ZM38.7335 35.6012C37.8345 37.2403 36.5783 38.2058 34.9648 38.4979C34.8401 38.5201 34.7246 38.5793 34.633 38.6681L26.3172 46.6393C26.1442 46.8038 26.1768 46.8719 26.415 46.8435C27.2487 46.7329 28.763 45.1251 29.4266 44.4487C30.1809 43.6802 30.9763 42.933 31.8128 42.2071C33.6986 40.5794 35.4766 39.1516 37.1469 37.9237C39.9117 35.8904 42.6978 33.6233 45.5052 31.1221C45.7208 30.9321 45.8427 30.6954 45.8711 30.4118L46.0114 29.1102C46.0455 28.7982 45.9476 28.7486 45.7179 28.9613C44.1724 30.4132 42.5986 31.9743 40.9964 33.6445C40.2563 34.4102 39.2567 34.6484 38.7335 35.6012ZM8.97089 29.6929C8.97155 29.6873 8.97046 29.6817 8.96772 29.6769C8.96499 29.672 8.96073 29.668 8.95542 29.6653C8.95011 29.6627 8.94396 29.6615 8.93768 29.6618C8.93139 29.6622 8.92521 29.6641 8.91984 29.6674L1.46325 35.1503C1.2968 35.2733 1.18406 35.4561 1.14848 35.6607L1.06766 36.1669C1.02796 36.3995 1.10311 36.4462 1.2931 36.3073L8.85604 30.8074C8.91559 30.7677 8.94537 30.7124 8.94537 30.6415L8.97089 29.6929ZM1.32288 38.1108C1.43914 38.4823 1.49869 38.885 1.50153 39.3189C1.50153 39.4011 1.53272 39.4139 1.59511 39.3571C3.79848 37.3792 6.28685 35.2056 8.83052 33.8487C8.91275 33.8062 8.95387 33.7395 8.95387 33.6488L8.97514 32.1217C8.97487 32.1103 8.97173 32.0992 8.96603 32.0893C8.96032 32.0794 8.95223 32.0712 8.94249 32.0652C8.93275 32.0593 8.92168 32.0559 8.91029 32.0554C8.8989 32.0549 8.88756 32.0572 8.87731 32.0622C7.346 32.8505 6.07842 33.7197 5.07457 34.6697C3.71625 35.9571 2.50964 36.9751 1.45474 37.7238C1.31579 37.8202 1.27183 37.9492 1.32288 38.1108ZM31.481 46.197C31.6569 45.6553 32.095 45.0981 32.7954 44.5253C34.9194 42.7927 39.1971 39.1232 45.6286 33.5169C45.6938 33.4602 45.7264 33.3879 45.7264 33.3L45.7307 32.5854C45.7307 32.489 45.6938 32.4719 45.6201 32.5343C39.6679 37.5423 34.4969 41.8214 30.1071 45.3718C29.6591 45.7319 29.2422 46.1218 28.8566 46.5415C28.6552 46.7599 28.702 46.852 28.9969 46.818C29.8902 46.7216 30.8458 46.7145 31.8639 46.7967C31.9518 46.8024 32.0255 46.7755 32.0851 46.7159C32.2297 46.5741 32.2013 46.5174 32 46.5458C31.8866 46.5599 31.7745 46.5543 31.664 46.5287C31.4825 46.4834 31.4215 46.3728 31.481 46.197ZM33.9014 46.3416C33.9144 46.3365 33.926 46.328 33.9349 46.3168C33.9439 46.3057 33.9499 46.2922 33.9524 46.2778C33.9978 45.912 34.158 45.5887 34.4331 45.308C37.6871 41.9901 41.5409 39.1104 45.5137 36.2648C45.6357 36.1769 45.691 36.0592 45.6796 35.9117C45.6484 35.4665 45.674 35.0468 45.7562 34.6526C45.8838 34.0486 45.7293 33.9636 45.2926 34.3974C41.1524 38.5036 36.9044 42.4084 32.5487 46.1119C32.2226 46.3898 32.2736 46.5302 32.7018 46.533C33.1244 46.5358 33.5242 46.472 33.9014 46.3416ZM3.56879 39.7187C5.54247 38.4625 7.37011 37.2204 9.05171 35.9925C9.10861 35.9522 9.15231 35.896 9.1773 35.8309C9.20228 35.7658 9.20742 35.6947 9.19208 35.6267L9.04745 35.0014C9.00492 34.8143 8.9085 34.7774 8.75821 34.8908C7.07094 36.1471 5.45031 37.5238 3.89632 39.0211C3.4114 39.489 2.85985 39.8435 2.24166 40.0845C2.19308 40.1025 2.15056 40.1336 2.11897 40.1742C2.08738 40.2149 2.06799 40.2634 2.06301 40.3142L2.02047 40.7226C2.00629 40.8502 2.06301 40.9069 2.19062 40.8927L2.33098 40.8757C2.43591 40.8643 2.51673 40.8133 2.57344 40.7226C2.82582 40.3142 3.15761 39.9796 3.56879 39.7187ZM9.98325 37.8429C10.0712 37.8684 10.1548 37.867 10.2342 37.8386C10.376 37.7876 10.3987 37.7067 10.3023 37.5961L9.41326 36.554C9.40024 36.5383 9.38413 36.5255 9.36595 36.5163C9.34777 36.5072 9.3279 36.5018 9.30756 36.5006C9.28723 36.4994 9.26687 36.5024 9.24773 36.5094C9.2286 36.5164 9.2111 36.5272 9.19633 36.5412C7.15175 38.3902 5.35389 40.249 3.80274 42.1177C2.80739 43.3173 2.92366 43.4378 4.15153 42.4793C4.42944 42.2638 4.70167 42.0383 4.96823 41.803C6.55058 40.422 8.12867 39.1189 9.70251 37.8939C9.74171 37.8627 9.78791 37.8417 9.83692 37.8328C9.88594 37.8238 9.93623 37.8273 9.98325 37.8429ZM37.7296 45.8865C38.2911 44.8259 38.9362 44.0305 39.665 43.5002C41.3977 42.2383 43.1459 40.9253 44.9097 39.5613C45.2614 39.2862 45.4556 38.9247 45.4925 38.4766C45.4925 38.4738 45.5194 38.1264 45.5733 37.4345C45.6073 36.995 45.4499 36.9127 45.1011 37.1878C41.2417 40.222 37.9281 43.2393 35.1604 46.2395C35.157 46.2433 35.1548 46.2481 35.1541 46.2532C35.1534 46.2583 35.1542 46.2634 35.1565 46.268C35.1588 46.2726 35.1625 46.2764 35.167 46.2789C35.1714 46.2814 35.1766 46.2825 35.1817 46.282L37.5127 46.0311C37.6119 46.0197 37.6842 45.9715 37.7296 45.8865ZM13.0459 38.566L12.5609 38.4256C12.2915 38.3462 12.0505 38.4001 11.8378 38.5872C10.1846 40.0562 8.49732 41.4287 6.77602 42.7047C6.55767 42.8635 6.39461 43.0649 6.28685 43.3088C6.20178 43.4988 6.2429 43.5328 6.41021 43.4108C6.85258 43.0847 7.31765 42.7785 7.80539 42.4921C9.70251 41.3833 11.4692 40.1724 13.1054 38.8595C13.2727 38.7262 13.2529 38.6284 13.0459 38.566ZM33.4292 38.6978C33.0946 38.6553 32.8011 38.7389 32.5487 38.9488C31.0061 40.2135 27.874 42.7771 23.1525 46.6393C23.039 46.7301 23.0504 46.8024 23.1865 46.8563C23.2744 46.8903 23.3623 46.9102 23.4502 46.9158C23.6601 46.9328 23.8458 46.8761 24.0074 46.7457L33.6717 38.8807C33.6989 38.8586 33.717 38.8269 33.7225 38.7917C33.7279 38.7565 33.7205 38.7201 33.7014 38.6893C33.6532 38.6128 33.6022 38.6028 33.5483 38.6595C33.5143 38.6907 33.4746 38.7035 33.4292 38.6978ZM6.12947 45.1804L15.7937 39.1445C16.1822 38.9034 16.1482 38.7687 15.6916 38.7404L14.7941 38.6851C14.6211 38.6737 14.4836 38.739 14.3815 38.8807C14.1234 39.2494 13.803 39.5514 13.4202 39.7868C10.6638 41.474 8.18397 43.0932 5.98059 44.6444C5.87283 44.721 5.80761 44.823 5.78492 44.9507C5.77734 44.9933 5.78238 45.0372 5.79946 45.0769C5.81654 45.1167 5.84493 45.1507 5.88125 45.1749C5.91756 45.1992 5.96028 45.2125 6.00429 45.2135C6.0483 45.2145 6.09175 45.2029 6.12947 45.1804ZM8.58806 45.9588C11.4082 43.4066 14.8196 41.5988 17.946 39.3359C17.9827 39.3094 18.0131 39.2751 18.0349 39.2355C18.0568 39.1959 18.0696 39.152 18.0724 39.1068C18.0753 39.0617 18.0681 39.0165 18.0514 38.9744C18.0347 38.9324 18.0089 38.8946 17.9758 38.8637C17.8283 38.7248 17.6313 38.7319 17.3846 38.885C17.0017 39.1274 16.6274 39.6294 16.1382 39.9186C13.0813 41.7193 10.1775 43.5696 7.42682 45.4696C7.38855 45.4961 7.35922 45.5335 7.34271 45.577C7.32619 45.6205 7.32328 45.668 7.33434 45.7132C7.34541 45.7584 7.36994 45.7991 7.40468 45.8301C7.43943 45.861 7.48275 45.8807 7.52891 45.8865C7.70756 45.9091 7.87629 45.9588 8.03509 46.0353C8.23643 46.1346 8.42075 46.1091 8.58806 45.9588ZM28.7587 39.1147C28.651 39.1544 28.556 39.2139 28.4737 39.2933C25.6536 42.0327 22.357 44.168 19.3327 46.6181C18.8138 47.0406 18.8832 47.1895 19.5411 47.0647C20.0062 46.9768 20.4769 46.9499 20.9533 46.9839C21.0164 46.9879 21.0793 46.9735 21.1344 46.9426C21.1895 46.9116 21.2344 46.8654 21.2639 46.8095C21.5021 46.3614 21.8324 45.9659 22.2549 45.6227C24.827 43.5498 27.4912 41.423 30.2475 39.2423C30.6558 38.919 30.6005 38.7787 30.0816 38.8212C29.6307 38.8552 29.1898 38.953 28.7587 39.1147ZM19.5539 39.3189C19.4178 39.6336 19.1853 39.8846 18.8563 40.0718C15.6264 41.9036 12.6403 43.9383 9.89818 46.1757C9.85848 46.2097 9.84146 46.2523 9.84713 46.3033C9.85281 46.3544 9.87407 46.3941 9.91094 46.4224C10.0244 46.5103 10.1421 46.5146 10.264 46.4352C10.7319 46.1374 10.9701 45.6653 11.4678 45.376C14.624 43.5158 17.7957 41.5265 20.9831 39.4082C21.008 39.3912 21.0269 39.3669 21.0373 39.3386C21.0476 39.3104 21.0489 39.2796 21.041 39.2505C21.033 39.2215 21.0162 39.1957 20.9929 39.1767C20.9695 39.1577 20.9408 39.1464 20.9108 39.1445L19.9495 39.0807C19.7623 39.0665 19.6305 39.1459 19.5539 39.3189ZM17.2144 44.4019C19.0094 43.3697 21.4383 41.7335 24.5009 39.4933C24.7306 39.3231 24.7022 39.2352 24.4158 39.2295L22.8037 39.1827C22.7322 39.1801 22.6613 39.1937 22.5964 39.2225C22.5315 39.2513 22.4744 39.2944 22.4293 39.3486C22.2138 39.6039 21.9657 39.8293 21.685 40.025C18.8265 42.01 15.6817 44.0616 12.2504 46.18C11.6748 46.5373 11.7244 46.7372 12.3993 46.7797L12.9821 46.818C13.1097 46.8265 13.2273 46.7967 13.3351 46.7287C14.529 45.9744 15.8221 45.1988 17.2144 44.4019ZM27.4273 39.4337C27.5379 39.36 27.5337 39.2933 27.4146 39.2338L27.1253 39.0934C27.0776 39.0701 27.0245 39.0597 26.9715 39.0635C26.9185 39.0672 26.8674 39.0849 26.8233 39.1147C22.8675 41.9448 18.8847 44.4955 14.8749 46.767C14.8295 46.7925 14.8324 46.8109 14.8834 46.8222C15.7313 46.9924 16.3226 47.0604 16.6572 47.0264C16.782 47.0151 16.894 46.9711 16.9932 46.8946C20.2572 44.3679 23.7352 41.881 27.4273 39.4337ZM44.9735 40.3057L39.5246 45.5674C39.5127 45.5801 39.506 45.5968 39.506 45.6142C39.506 45.6316 39.5127 45.6484 39.5246 45.661L39.5289 45.6695C39.6196 45.7637 39.7801 45.7888 40.0011 45.7434C40.2221 45.698 40.4994 45.5829 40.817 45.4047C41.1346 45.2265 41.4864 44.9888 41.8522 44.7051C42.218 44.4213 42.5906 44.0972 42.9488 43.7511L43.0381 43.6618C43.7601 42.9647 44.3801 42.2208 44.7621 41.5932C45.144 40.9656 45.2568 40.5057 45.0756 40.3142L45.0671 40.31C45.055 40.2974 45.0386 40.29 45.0212 40.2892C45.0038 40.2884 44.9867 40.2943 44.9735 40.3057Z" fill="white"/>
<path d="M35.0796 12.976C35.1505 12.976 35.21 12.9958 35.2582 13.0355C35.3036 13.0724 35.3235 13.1206 35.3178 13.1801L34.8584 17.8464C34.8329 18.1158 34.684 18.2519 34.4118 18.2547L30.2645 18.293C30.1635 18.2941 30.0652 18.26 29.9862 18.1965C29.9071 18.1329 29.8522 18.0438 29.8306 17.9442C29.7002 17.3232 29.7087 16.6993 29.8561 16.0726C29.893 15.9138 29.8859 15.7564 29.8349 15.6005C29.8179 15.5579 29.7923 15.5211 29.7583 15.4899C29.6647 15.4048 29.6194 15.2999 29.6222 15.1751L29.6605 13.4183C29.666 13.1882 29.7606 12.9692 29.9242 12.808C30.0879 12.6467 30.3076 12.5559 30.5367 12.5549L34.4841 12.5293C34.5509 12.5294 34.6156 12.547 34.6712 12.5804C34.7847 12.6456 34.8627 12.7378 34.9052 12.8569C34.9335 12.9391 34.9917 12.9788 35.0796 12.976ZM30.1837 15.4984L32.6295 13.5119C32.6349 13.5078 32.6393 13.5026 32.6427 13.4967C32.646 13.4908 32.6481 13.4843 32.6489 13.4776C32.6497 13.4708 32.6492 13.464 32.6473 13.4575C32.6454 13.451 32.6423 13.4449 32.638 13.4396L32.6253 13.4269C32.5845 13.3763 32.5167 13.3486 32.4258 13.3451C32.3348 13.3417 32.2225 13.3628 32.0953 13.407C31.968 13.4513 31.8284 13.5179 31.6843 13.6031C31.5402 13.6882 31.3945 13.7902 31.2556 13.9033L30.8472 14.235C30.7084 14.3479 30.5789 14.4696 30.4663 14.5932C30.3537 14.7167 30.2601 14.8397 30.191 14.9551C30.1219 15.0704 30.0785 15.1759 30.0634 15.2655C30.0482 15.3551 30.0617 15.427 30.1029 15.4771L30.1156 15.4899C30.1239 15.4995 30.1354 15.5057 30.148 15.5072C30.1606 15.5088 30.1733 15.5057 30.1837 15.4984ZM34.2927 13.5034C34.321 13.4722 34.3494 13.4425 34.3777 13.4141C34.3819 13.4083 34.3846 13.4015 34.3854 13.3944C34.3863 13.3874 34.3854 13.3803 34.3827 13.3741C34.3801 13.3679 34.3758 13.3628 34.3704 13.3593C34.365 13.3559 34.3587 13.3542 34.3522 13.3545L33.4377 13.3503C33.3243 13.3503 33.2293 13.3914 33.1527 13.4736L30.2815 16.5745C30.2424 16.6174 30.2148 16.6693 30.2014 16.7251C30.188 16.781 30.1892 16.839 30.2049 16.8936L30.2517 17.0722C30.2886 17.2055 30.3595 17.2268 30.4644 17.136L34.0375 13.9841C34.114 13.916 34.1636 13.8309 34.1863 13.7289C34.1948 13.692 34.2062 13.6537 34.2204 13.614C34.2345 13.5715 34.2586 13.5346 34.2927 13.5034ZM34.2629 15.2134C34.2714 15.0716 34.2331 14.9567 34.148 14.8688C34.1266 14.8453 34.1002 14.8267 34.0708 14.8142C34.0414 14.8018 34.0096 14.7957 33.9774 14.7965C33.9453 14.7973 33.9135 14.805 33.8843 14.8189C33.855 14.8328 33.8289 14.8527 33.8078 14.8773L31.6129 17.4635C31.5675 17.5203 31.5689 17.5741 31.6171 17.6252L31.6937 17.7103C31.7164 17.7329 31.7391 17.7344 31.7618 17.7145L34.0247 15.711C34.1722 15.5778 34.2516 15.4119 34.2629 15.2134ZM33.9098 16.5618C33.6121 16.7107 33.3441 17.085 33.1442 17.3487C33.0534 17.4706 33.0846 17.5344 33.2378 17.5401L33.9651 17.5614C34.1211 17.567 34.1977 17.4905 34.1948 17.3317L34.1778 16.7277C34.175 16.532 34.0857 16.4767 33.9098 16.5618Z" fill="white"/>
<path d="M27.2742 19.9947C28.8083 21.8493 29.1784 23.7648 28.3844 25.7414C27.4188 28.1489 25.3898 29.3527 22.8547 28.9316C20.5407 28.5445 18.7627 25.8775 18.7031 23.6358C18.6691 22.354 19.076 21.2665 19.9239 20.3733C21.0185 19.2191 22.581 18.6704 24.6114 18.7271C25.7117 18.7583 26.5993 19.1808 27.2742 19.9947ZM20.1366 22.4405C19.6148 22.7099 19.3469 23.0417 19.3327 23.4359C19.3213 23.711 19.4121 23.7478 19.6049 23.5465C20.1664 22.9552 20.7704 22.3172 21.4637 21.8791C22.4392 21.2609 23.4062 20.5775 24.3647 19.8288C24.4243 19.7806 24.4313 19.7253 24.386 19.6629L24.3137 19.5736C24.277 19.5261 24.2235 19.4946 24.1646 19.4859C24.1058 19.4771 24.0463 19.4918 23.9989 19.5268L20.1366 22.4405C20.1168 22.1003 20.1806 21.872 20.328 21.7557C21.122 21.146 21.8806 20.4853 22.6037 19.7735C22.8731 19.507 22.8306 19.4432 22.4761 19.5821C21.2936 20.0528 20.3507 20.8568 19.6474 21.9939C19.551 22.147 19.5751 22.2775 19.7198 22.3852C19.7935 22.442 19.8757 22.4561 19.9665 22.4278C20.0572 22.3994 20.1139 22.4037 20.1366 22.4405ZM25.5259 19.9309C25.4437 19.8997 25.3671 19.9111 25.2963 19.9649C23.6941 21.2013 21.7629 22.588 19.5028 24.125C19.4631 24.1505 19.4447 24.1874 19.4475 24.2356C19.4929 24.9899 19.7169 25.0438 20.1196 24.3972C20.2585 24.1703 20.4244 23.9917 20.6173 23.8613C22.3698 22.6844 24.2385 21.4806 26.2235 20.2499C26.2491 20.2357 26.2476 20.223 26.2193 20.2116L25.5259 19.9309ZM27.0955 21.2921L26.7552 20.8242C26.7409 20.8039 26.7226 20.7866 26.7015 20.7735C26.6804 20.7603 26.6569 20.7515 26.6323 20.7476C26.6078 20.7436 26.5827 20.7446 26.5585 20.7504C26.5343 20.7563 26.5115 20.7669 26.4915 20.7816L26.432 20.8284C24.6844 22.0934 23.037 23.3474 21.8495 24.3165C20.662 25.2857 20.031 25.8912 20.0941 26.0008C20.1299 26.0522 20.3367 25.979 20.7027 25.7855C21.0686 25.592 21.5866 25.282 22.227 24.8731C22.8673 24.4642 23.6175 23.9646 24.4347 23.4027C25.2518 22.8408 26.1199 22.2276 26.9892 21.5983L27.053 21.5515C27.0928 21.5226 27.1195 21.4791 27.1275 21.4305C27.1355 21.382 27.124 21.3322 27.0955 21.2921ZM27.6994 22.2513C27.6608 22.1985 27.6029 22.1631 27.5382 22.153C27.4736 22.1429 27.4076 22.1588 27.3547 22.1974L21.0033 26.8289C20.9505 26.8674 20.9151 26.9254 20.905 26.99C20.8948 27.0547 20.9108 27.1207 20.9494 27.1735L21.0045 27.2492C21.0431 27.302 21.101 27.3374 21.1657 27.3475C21.2303 27.3577 21.2963 27.3417 21.3492 27.3032L27.7006 22.6716C27.7534 22.6331 27.7888 22.5751 27.7989 22.5105C27.8091 22.4458 27.7931 22.3798 27.7545 22.327L27.6994 22.2513ZM23.0248 28.1489C24.4966 26.758 26.1853 25.8307 27.8357 24.6482C27.9237 24.5851 27.9953 24.5014 28.0442 24.4044C28.093 24.3074 28.1178 24.1999 28.1164 24.0909L28.1122 23.2913C28.1093 23.0304 28.0086 22.985 27.8101 23.1551L22.357 27.8299C22.2095 27.9547 22.2223 28.0596 22.3953 28.1446L22.5569 28.2212C22.7299 28.3063 22.8859 28.2822 23.0248 28.1489ZM27.2784 26.1454L24.9645 28.0596L24.9615 28.0608L24.9602 28.0638L24.9615 28.0668L24.9645 28.0681L25.0113 28.1276C25.0399 28.1627 25.0969 28.1739 25.179 28.1604C25.2611 28.1468 25.3666 28.109 25.4894 28.0489C25.6123 27.9888 25.7502 27.9078 25.8952 27.8103C26.0401 27.7129 26.1893 27.601 26.3341 27.4811L26.4532 27.3832C26.5984 27.2631 26.7365 27.1373 26.8594 27.013C26.9824 26.8886 27.0878 26.7682 27.1696 26.6587C27.2515 26.5492 27.3081 26.4527 27.3363 26.3749C27.3644 26.297 27.3636 26.2393 27.3337 26.205L27.2869 26.1497L27.2872 26.1461L27.2848 26.1433L27.2812 26.1431L27.2784 26.1454Z" fill="white"/>
<path d="M26.2023 31.5474C26.9992 31.3745 27.813 30.9576 28.6439 30.2969C28.9984 30.0161 29.2706 29.7212 29.4606 29.4121C30.0263 28.5061 30.826 28.3062 31.2003 27.1662C31.7958 25.3286 31.8171 23.4542 31.2641 21.5429C31.2446 21.4752 31.2413 21.4039 31.2543 21.3348C31.2674 21.2656 31.2964 21.2006 31.3392 21.145C31.3819 21.0894 31.437 21.0449 31.5001 21.015C31.5633 20.9851 31.6325 20.9707 31.7023 20.9729L35.7985 21.075C35.8568 21.0758 35.9128 21.0984 35.9559 21.1383C35.999 21.1783 36.0262 21.233 36.0324 21.292C36.1402 22.4007 36.1813 23.518 36.1558 24.6438C36.143 25.1628 36.3557 25.6264 36.2111 26.1198C36.1544 26.3155 36.1246 26.5154 36.1218 26.7196C36.1104 28.248 36.1019 29.7822 36.0962 31.322C36.0962 32.1685 35.841 32.9256 35.7049 33.7466C35.2413 36.5667 32.2297 35.984 30.2348 36.5242C29.2947 36.7794 28.3589 36.4816 27.3976 36.5072C23.0887 36.622 18.8478 36.9113 14.5261 36.1499C13.9647 36.0478 13.6201 35.733 13.0714 35.6309C12.9211 35.6026 12.8133 35.5203 12.7481 35.3842C12.5836 35.0382 12.4149 34.6951 12.2419 34.3548C12.0633 34.006 11.9782 33.5849 11.9867 33.0915C11.9924 32.6576 12.0009 32.2223 12.0122 31.7856C12.0236 31.3433 12.0137 30.9122 11.9825 30.4925C11.7584 27.5065 11.662 24.5602 11.6932 21.6535C11.6945 21.5638 11.7166 21.4755 11.7579 21.3959C11.7991 21.3162 11.8583 21.2473 11.9307 21.1948C12.0031 21.1423 12.0866 21.1075 12.1747 21.0934C12.2627 21.0792 12.3528 21.0861 12.4376 21.1133C12.9282 21.2693 13.4244 21.2976 13.9264 21.1984C14.7572 21.0339 15.5456 21.0141 16.2914 21.1388C16.4644 21.1672 16.5494 21.2693 16.5466 21.4451C16.5381 21.9499 16.5012 22.466 16.436 22.9934C16.0447 26.1538 17.0953 29.7652 20.2387 30.9647C22.3344 31.7644 24.3222 31.9586 26.2023 31.5474ZM32.3148 23.0572C32.3013 23.0697 32.2905 23.0848 32.2832 23.1016C32.2758 23.1185 32.2721 23.1367 32.2722 23.155L32.285 24.1589C32.2849 24.1851 32.2925 24.2107 32.307 24.2325C32.3215 24.2543 32.3421 24.2713 32.3663 24.2814C32.3905 24.2914 32.4171 24.294 32.4428 24.2889C32.4684 24.2837 32.492 24.2711 32.5104 24.2525L35.0158 21.7896C35.035 21.7707 35.048 21.7463 35.0529 21.7198C35.0578 21.6933 35.0545 21.6659 35.0434 21.6413C35.0323 21.6167 35.0139 21.5962 34.9907 21.5824C34.9675 21.5686 34.9406 21.5622 34.9137 21.5642L33.9226 21.6365C33.8926 21.6383 33.8641 21.6503 33.8418 21.6705L32.3148 23.0572ZM12.4844 21.7896L12.3355 22.0534C12.3198 22.0813 12.3118 22.113 12.3122 22.145C12.3126 22.1771 12.3215 22.2085 12.3378 22.2361C12.3542 22.2637 12.3776 22.2864 12.4055 22.3021C12.4335 22.3179 12.4651 22.3259 12.4972 22.3256C12.5794 22.3256 12.6574 22.31 12.7311 22.2788C12.7675 22.2635 12.8 22.2403 12.8264 22.211C12.8528 22.1816 12.8724 22.1468 12.8838 22.109C12.8952 22.0713 12.8981 22.0314 12.8922 21.9924C12.8864 21.9533 12.8721 21.9161 12.8502 21.8832C12.802 21.8095 12.7311 21.757 12.6375 21.7258C12.6086 21.7173 12.5775 21.719 12.5497 21.7306C12.5218 21.7422 12.4988 21.7631 12.4844 21.7896ZM32.7954 21.8917C32.8295 21.869 32.8578 21.8378 32.8805 21.7981C32.9259 21.7244 32.906 21.6805 32.821 21.6663C32.6111 21.6379 32.4211 21.6592 32.251 21.7301C32.0893 21.801 32.0213 21.9243 32.0468 22.1001C32.0553 22.171 32.078 22.2348 32.1149 22.2916C32.2028 22.4305 32.3048 22.4419 32.4211 22.3256C32.5175 22.2292 32.6069 22.1228 32.6891 22.0066C32.7175 21.964 32.7529 21.9257 32.7954 21.8917ZM13.2288 22.4532C12.9225 22.6999 12.5312 22.7552 12.3355 23.1338C12.293 23.2188 12.2873 23.3039 12.3185 23.389C12.3837 23.5563 12.4943 23.596 12.6503 23.5081C13.4641 23.0515 14.1646 22.5595 14.7516 22.0321C14.9302 21.8704 14.9019 21.8052 14.6665 21.8364C14.1391 21.9016 13.6598 22.1072 13.2288 22.4532ZM32.4637 25.2138C32.1914 25.4988 32.2127 26.1921 32.017 26.6217C31.9121 26.8543 31.9504 26.8812 32.1319 26.7026C32.9769 25.8632 33.9014 25.0479 34.9052 24.2567C35.0274 24.1598 35.1263 24.0369 35.1947 23.8971C35.2632 23.7572 35.2994 23.604 35.3008 23.4485L35.3093 22.5213C35.315 22.2263 35.22 22.1895 35.0243 22.4107C34.1481 23.406 33.2945 24.3404 32.4637 25.2138ZM14.1178 23.9547C14.7048 23.5038 15.3854 23.5294 15.6491 22.7042C15.7001 22.5454 15.6406 22.4702 15.4704 22.4787C15.2436 22.4929 15.0507 22.5808 14.8919 22.7424C14.2029 23.44 13.4202 23.9391 12.5439 24.2397C12.3341 24.3106 12.2575 24.4538 12.3142 24.6693L12.3483 24.7884C12.3908 24.9586 12.4901 25.0025 12.646 24.9203C13.1423 24.6509 13.6329 24.329 14.1178 23.9547ZM12.7183 27.1407L15.3258 25.4392C15.3825 25.4024 15.4109 25.3513 15.4109 25.2861L15.4492 24.027C15.4577 23.8172 15.3868 23.786 15.2365 23.9335C14.4623 24.7133 13.6073 25.3414 12.6716 25.8178C12.4702 25.9199 12.3724 26.0844 12.3781 26.3112L12.3951 26.9705C12.4007 27.2229 12.5085 27.2796 12.7183 27.1407ZM23.9436 35.4948C23.8132 35.6394 23.8444 35.716 24.0372 35.7245C24.2641 35.7358 24.4626 35.6649 24.6327 35.5118C27.9761 32.5258 31.4499 29.4603 35.0541 26.3155C35.4625 25.9624 35.3263 25.3882 35.3731 24.9075C35.3958 24.675 35.3178 24.6339 35.1392 24.7842C33.4406 26.2276 32.0085 27.7447 30.843 29.3356C30.1426 30.2912 29.1955 31.0739 28.0016 31.6836C27.2615 32.0635 26.6163 32.5584 26.0662 33.1681C25.3317 33.9819 24.6242 34.7575 23.9436 35.4948ZM13.1139 27.8128C12.4475 27.9432 12.2632 28.3388 12.561 28.9995C12.5723 29.0238 12.5894 29.0451 12.6108 29.0613C12.6321 29.0776 12.657 29.0883 12.6832 29.0925C12.7094 29.0967 12.736 29.0943 12.7607 29.0855C12.7854 29.0767 12.8074 29.0618 12.8247 29.0421C13.6187 28.1545 14.5049 27.5618 15.4832 27.264C15.6278 27.2215 15.693 27.1251 15.6789 26.9748C15.659 26.7564 15.5782 26.5735 15.4364 26.4261C15.4053 26.3924 15.3675 26.3657 15.3253 26.3477C15.2831 26.3297 15.2374 26.3209 15.1913 26.3217C15.1452 26.3225 15.0997 26.3329 15.0576 26.3524C15.0156 26.3718 14.978 26.3998 14.9472 26.4346C14.2185 27.257 13.6073 27.7163 13.1139 27.8128ZM35.2625 28.6124L35.3434 26.928C35.3436 26.9205 35.3416 26.9131 35.3377 26.9067C35.3338 26.9003 35.3281 26.8952 35.3213 26.8921C35.3145 26.8889 35.3069 26.8878 35.2995 26.8889C35.2921 26.89 35.2851 26.8932 35.2795 26.8982C33.5356 28.6564 31.7802 30.3919 30.0136 32.1047C28.7928 33.2872 27.4231 34.2612 26.2959 35.5756C26.1711 35.7202 26.2037 35.777 26.3937 35.7458C26.6773 35.7004 26.9155 35.5969 27.1083 35.4352C29.7371 33.2063 32.4197 31.0016 35.1562 28.8209C35.2243 28.767 35.2597 28.6975 35.2625 28.6124ZM16.1 28.2721C16.1085 28.119 16.0801 27.9744 16.0149 27.8383C16.0037 27.8152 15.9875 27.795 15.9675 27.7791C15.9474 27.7632 15.9241 27.7522 15.8994 27.7468C15.8747 27.7415 15.8492 27.7419 15.8249 27.7482C15.8007 27.7545 15.7784 27.7664 15.7597 27.783C14.9203 28.5033 14.1093 29.1314 13.3266 29.6673C13.2047 29.7496 13.0657 29.7949 12.9098 29.8035C12.6716 29.8205 12.5737 29.9467 12.6163 30.182C12.6418 30.321 12.6418 30.4571 12.6163 30.5904C12.5624 30.8541 12.6361 30.8966 12.8374 30.718C13.6626 29.992 14.641 29.3441 15.7724 28.7741C15.8666 28.7263 15.9465 28.6548 16.004 28.5667C16.0615 28.4785 16.0946 28.3769 16.1 28.2721ZM12.8459 32.2918L16.7295 30.0757C16.7816 30.0444 16.8212 29.9963 16.8414 29.9395C16.8616 29.8828 16.8611 29.8211 16.8401 29.7652L16.5126 28.8804C16.47 28.7698 16.4091 28.7585 16.3297 28.8464C15.2379 30.0005 14.0199 31.0739 12.6758 32.0664C12.6389 32.0947 12.6333 32.1273 12.6588 32.1642L12.7226 32.262C12.7538 32.3103 12.7949 32.3202 12.8459 32.2918ZM28.8566 35.3885C28.8309 35.4086 28.8129 35.4369 28.8053 35.4686C28.7977 35.5004 28.8011 35.5337 28.8149 35.5633C28.8287 35.5929 28.8521 35.6169 28.8813 35.6315C28.9105 35.6461 28.9437 35.6504 28.9757 35.6437L30.0221 35.4523C30.0451 35.449 30.067 35.4403 30.0859 35.4267L35.1349 31.4921C35.1639 31.4703 35.1836 31.4385 35.1902 31.4028L35.3476 30.3437C35.3514 30.315 35.3466 30.2859 35.3337 30.26C35.3208 30.2341 35.3004 30.2127 35.2753 30.1985C35.2501 30.1844 35.2212 30.178 35.1924 30.1804C35.1636 30.1828 35.1362 30.1937 35.1137 30.2118L28.8566 35.3885ZM12.7949 33.6317C12.7525 33.6611 12.7221 33.7049 12.7096 33.755C12.6971 33.8051 12.7032 33.858 12.7268 33.9039L13.0076 34.4229C13.0216 34.4479 13.0406 34.4699 13.0634 34.4874C13.0862 34.5049 13.1123 34.5176 13.1401 34.5248C13.1679 34.532 13.1969 34.5334 13.2253 34.529C13.2537 34.5247 13.2809 34.5146 13.3053 34.4995L18.2821 31.4411C18.3126 31.4229 18.3382 31.3973 18.3563 31.3667C18.3744 31.3361 18.3846 31.3015 18.3859 31.2659C18.3871 31.2304 18.3795 31.1951 18.3636 31.1633C18.3477 31.1314 18.324 31.1041 18.2948 31.0838L17.4994 30.5436C17.4642 30.5198 17.4228 30.5071 17.3803 30.5071C17.3379 30.5071 17.2964 30.5198 17.2612 30.5436L12.7949 33.6317ZM19.9325 32.211C19.9523 32.1984 19.9683 32.1808 19.979 32.16C19.9897 32.1391 19.9947 32.1158 19.9934 32.0924C19.9921 32.069 19.9846 32.0464 19.9716 32.0269C19.9587 32.0073 19.9408 31.9916 19.9197 31.9813L19.018 31.5262C18.9948 31.5145 18.9688 31.5099 18.9431 31.5129C18.9174 31.5159 18.8931 31.5265 18.8733 31.5432L14.4198 35.1715C14.4024 35.1852 14.3887 35.203 14.3799 35.2233C14.3712 35.2437 14.3677 35.2659 14.3699 35.2879C14.372 35.31 14.3796 35.3311 14.3921 35.3494C14.4045 35.3677 14.4213 35.3826 14.4411 35.3927L14.7899 35.5714C14.8103 35.5823 14.8332 35.5877 14.8564 35.5869C14.8795 35.5862 14.902 35.5793 14.9217 35.5671L19.9325 32.211ZM18.8393 34.6951C19.7496 34.0826 20.6443 33.4403 21.5233 32.7682C21.553 32.7448 21.5756 32.7137 21.5887 32.6782C21.6017 32.6427 21.6046 32.6044 21.5971 32.5673C21.5896 32.5303 21.572 32.4961 21.5462 32.4684C21.5204 32.4408 21.4875 32.4209 21.451 32.4109L21.0044 32.2918C20.7719 32.2294 20.5649 32.2776 20.3834 32.4364L17.1421 35.2864C16.8018 35.5841 16.8571 35.7472 17.308 35.7755C17.4073 35.7812 17.5037 35.7713 17.5972 35.7458C17.7277 35.7117 17.8326 35.6451 17.912 35.5458C18.1814 35.2141 18.4905 34.9305 18.8393 34.6951ZM25.8666 32.4022C25.7988 32.3267 25.533 32.4344 25.1276 32.7017C24.7222 32.9689 24.2105 33.3739 23.705 33.8274C23.4547 34.052 23.2135 34.2817 22.9951 34.5035C22.7767 34.7253 22.5854 34.9349 22.4322 35.1201C22.2789 35.3054 22.1667 35.4628 22.102 35.5833C22.0372 35.7038 22.0211 35.7851 22.0547 35.8225C22.1225 35.8981 22.3884 35.7904 22.7937 35.5231C23.1991 35.2558 23.7108 34.8509 24.2163 34.3973C24.4666 34.1727 24.7078 33.943 24.9262 33.7212C25.1446 33.4994 25.3359 33.2899 25.4891 33.1046C25.6424 32.9194 25.7546 32.762 25.8194 32.6415C25.8841 32.521 25.9002 32.4397 25.8666 32.4022ZM23.0249 32.6491C22.798 32.6576 22.6038 32.7413 22.4421 32.9001L19.6815 35.5969C19.4972 35.7755 19.5326 35.8734 19.7879 35.8904L20.1239 35.9117C20.2997 35.923 20.4458 35.862 20.562 35.7287C21.3872 34.7986 22.4237 33.8628 23.6714 32.9214C23.6982 32.9005 23.7178 32.8718 23.7273 32.8392C23.7369 32.8067 23.736 32.7719 23.7247 32.7399C23.7134 32.7079 23.6923 32.6803 23.6644 32.6609C23.6365 32.6416 23.6033 32.6315 23.5693 32.6321L23.0249 32.6491ZM33.812 35.0439C34.5862 34.878 34.952 33.5934 35.0328 32.9426C35.038 32.9065 35.0322 32.8697 35.0163 32.8369C35.0004 32.8041 34.9751 32.7768 34.9435 32.7585C34.912 32.7402 34.8757 32.7318 34.8393 32.7343C34.8029 32.7368 34.7681 32.7501 34.7393 32.7725L31.8554 34.9376C31.3308 35.3346 31.3932 35.4806 32.0425 35.3757C32.6182 35.2821 33.208 35.1715 33.812 35.0439Z" fill="white"/>
</g>
<defs>
<clipPath id="clip0_1_1165">
<rect width="48" height="48" fill="white"/>
</clipPath>
</defs>
</svg>
