<svg width="49" height="48" viewBox="0 0 49 48" fill="none" xmlns="http://www.w3.org/2000/svg">
<g clip-path="url(#clip0_1_1123)">
<path d="M41 0.5H7C3.41015 0.5 0.5 3.41015 0.5 7V41C0.5 44.5899 3.41015 47.5 7 47.5H41C44.5899 47.5 47.5 44.5899 47.5 41V7C47.5 3.41015 44.5899 0.5 41 0.5Z" stroke="white"/>
<path d="M6.64592 1.12793C6.11457 1.35165 5.64198 1.88025 5.20378 2.24055C4.77993 2.58905 4.47645 3.00537 4.03552 3.33606C3.86383 3.46483 3.67791 3.56428 3.50917 3.69552C3.37381 3.8008 3.31794 3.99154 3.15398 4.05713C2.78064 4.20647 2.51676 4.49237 2.20825 4.72684C2.01013 4.87742 1.81561 4.93348 1.60059 5.05635" stroke="white" stroke-linecap="round"/>
<path d="M0.599121 7.90626C1.947 7.15744 3.34891 6.2971 4.35637 5.11186C4.59048 4.83643 4.90129 4.65581 5.16089 4.40363C5.42983 4.14237 5.57638 3.76453 5.87554 3.53279C6.15488 3.31639 6.48565 3.13847 6.72284 2.87163C7.00776 2.5511 7.21457 2.26385 7.57015 2.01362C7.82768 1.8324 7.92423 1.48996 8.18637 1.35889" stroke="white" stroke-linecap="round"/>
<path d="M10.3817 1.28174C8.89368 2.02573 7.7526 3.21474 6.60515 4.38425C6.24598 4.75033 5.8488 5.06634 5.4861 5.42413C5.00432 5.89941 4.58947 6.46743 4.15951 6.98822C3.67944 7.56972 3.3247 8.30466 2.61039 8.62935C2.44812 8.70311 2.32099 8.84481 2.1846 8.95672C1.97417 9.12938 1.67218 9.32555 1.52558 9.5601C1.43541 9.70439 1.35381 9.93209 1.21533 10.0244" stroke="white" stroke-linecap="round"/>
<path d="M0.753418 11.9886C1.34918 11.6064 1.88062 11.0864 2.40096 10.6107C3.69606 9.42667 4.90389 8.1142 6.27375 7.01604C6.65605 6.70957 7.10542 6.48338 7.51476 6.21581C8.18456 5.77797 8.80142 5.2662 9.46185 4.81433C9.91912 4.50146 10.2505 4.12291 10.6536 3.74663C11.0201 3.40463 11.5059 3.28661 11.8369 2.89933C12.0153 2.69054 12.2706 2.58973 12.4617 2.39864C12.6083 2.25204 12.7107 2.04728 12.8275 1.87657C12.9013 1.76875 12.9754 1.64184 13.0394 1.52994C13.1036 1.41753 13.2924 1.39196 13.3475 1.28174" stroke="white" stroke-linecap="round"/>
<path d="M16.0435 1.08887C15.4077 1.49901 14.8325 1.94988 14.2419 2.42616C13.3741 3.12595 12.634 3.93419 11.8198 4.68779C11.1534 5.30456 10.5718 5.9946 9.9176 6.61991C9.43748 7.07884 9.07715 7.64779 8.6017 8.11125C8.13516 8.56604 7.47127 8.85805 6.93704 9.22388C6.54947 9.48928 6.2216 9.83599 5.8287 10.0926C5.40095 10.372 5.10202 10.7704 4.66258 11.0255C4.33671 11.2147 4.03242 11.4339 3.83453 11.7637C3.6977 11.9917 3.57174 12.1158 3.35952 12.2794C3.21839 12.3882 3.03071 12.463 2.90805 12.5918C2.69833 12.812 2.4502 12.9873 2.19127 13.1481C1.96734 13.2871 1.78974 13.4669 1.58788 13.6359C1.44399 13.7564 1.2263 13.9472 1.06152 14.0296" stroke="white" stroke-linecap="round"/>
<path d="M18.9319 1.28174C18.4274 1.53801 18.1046 2.05973 17.738 2.47567C17.2203 3.06309 16.7523 3.66352 16.2873 4.29011C16.0056 4.66977 15.7077 5.02746 15.3587 5.3471C15.0999 5.58415 14.8269 5.80492 14.6098 6.08315C14.4665 6.26688 14.3466 6.47196 14.1733 6.6309C13.8566 6.92147 13.4868 7.17688 13.142 7.43114C12.4015 7.9772 11.5862 8.41523 10.9339 9.0744C10.5179 9.4947 10.1115 9.8589 9.61156 10.1785C9.31301 10.3693 9.08059 10.643 8.78993 10.8418C8.34582 11.1454 7.8133 11.2652 7.37348 11.5799C6.8615 11.9463 6.35182 12.3228 5.8265 12.669C5.2038 13.0794 4.53365 13.4681 4.03346 14.0299C3.81048 14.2803 3.62722 14.5164 3.35518 14.7188C3.17215 14.855 2.98411 14.971 2.81599 15.1275C2.68029 15.2538 2.56219 15.4364 2.40303 15.5319C2.19163 15.6587 1.94922 15.6996 1.73332 15.8101C1.44841 15.9558 1.32092 16.2215 1.02295 16.3407" stroke="white" stroke-linecap="round"/>
<path d="M0.714844 18.7288C1.88711 17.9347 3.19887 17.3528 4.42074 16.6405C5.99892 15.7204 7.5104 14.6898 9.0253 13.6706C9.57603 13.3001 10.1211 12.9273 10.6493 12.5259C11.1072 12.1779 11.6566 11.9738 12.1171 11.6315C12.4556 11.3799 12.6942 11.0279 12.9858 10.7286C13.4936 10.2074 14.1 9.79586 14.5842 9.25009C14.9425 8.84619 15.2464 8.3972 15.6326 8.01765C15.7976 7.85546 15.9888 7.72777 16.1589 7.5726C16.4104 7.34324 16.5873 7.0513 16.8415 6.81943C17.2186 6.47539 17.5867 6.1362 17.8728 5.71109C18.2006 5.22407 18.6065 4.95028 19.0518 4.58134C19.3338 4.34764 19.4985 4.02366 19.775 3.78539C20.0849 3.51831 20.4229 3.29154 20.6651 2.9552C20.7736 2.80443 20.8753 2.6494 20.9753 2.49303C21.0979 2.30151 21.2933 2.20955 21.4396 2.03942C21.4941 1.97611 21.5543 1.93046 21.6237 1.88109C21.7542 1.78819 21.835 1.65281 21.9596 1.56656C22.1444 1.43858 22.2883 1.25258 22.4752 1.12793" stroke="white" stroke-linecap="round"/>
<path d="M25.4792 0.935059C25.1019 1.29886 24.6912 1.62664 24.2981 1.9728C22.6919 3.3873 21.0992 4.83365 19.5823 6.34413C18.3934 7.52802 17.3759 8.83484 16.2337 10.0565C15.8663 10.4494 15.4719 10.8101 15.059 11.1541C14.5604 11.5696 14.136 12.059 13.6426 12.4807C12.9207 13.0976 12.1189 13.6535 11.3596 14.2245C10.6507 14.7576 9.88268 15.2013 9.20063 15.7672C9.09892 15.8516 9.05792 15.9613 8.96741 16.0518C8.73658 16.2826 8.36749 16.3986 8.08373 16.5482C7.50134 16.8551 6.90336 17.1604 6.33776 17.4961C6.09382 17.6408 5.87561 17.8409 5.61883 17.9604C5.30338 18.1071 4.97621 18.2363 4.7052 18.4611C4.38525 18.7264 4.11252 19.0189 3.74877 19.2292C3.27853 19.5011 2.75615 19.7442 2.33231 20.0765C2.13156 20.2339 1.90467 20.3555 1.66045 20.4253C1.5724 20.4504 1.50535 20.549 1.41653 20.5857C1.28489 20.6402 1.23534 20.7359 1.10414 20.7869C0.996729 20.8286 0.883959 20.8932 0.791748 20.9623" stroke="white" stroke-linecap="round"/>
<path d="M0.67627 22.9267C2.93112 21.2078 5.41647 19.7787 7.82061 18.2836C10.3444 16.7141 12.9192 15.1962 15.2688 13.3688C15.767 12.9813 16.2567 12.5864 16.8051 12.2711C17.267 12.0056 17.6116 11.6129 17.9904 11.2355C18.9679 10.2619 19.9661 9.30193 20.8897 8.27638C21.377 7.73526 21.8388 7.25631 22.4452 6.84922C23.0239 6.4607 23.6382 6.16043 24.2318 5.80292C24.7157 5.51153 24.987 4.9022 25.3102 4.46135C25.624 4.03348 25.9645 3.63953 26.3137 3.24174C26.5654 2.95507 26.7649 2.60692 27.0583 2.3602C27.3802 2.08957 27.6104 1.855 27.8436 1.49578C27.9938 1.26433 28.0185 1.08144 28.2608 0.935185C28.3898 0.857366 28.5096 0.78079 28.6374 0.704102" stroke="white" stroke-linecap="round"/>
<path d="M31.1408 0.78125C30.683 1.41 30.2682 2.0685 29.8057 2.69411C28.8796 3.94657 27.8449 5.1176 26.87 6.33154C25.9833 7.43565 25.1205 8.55715 24.2554 9.67797C23.9641 10.0552 23.6566 10.4044 23.3096 10.7306C23.1204 10.9086 22.937 11.0264 22.7127 11.1564C22.0837 11.5211 21.4865 11.9389 20.8833 12.344C19.9162 12.9932 18.9506 13.6863 18.0568 14.4344C17.8224 14.6306 17.6094 14.8519 17.3935 15.0677C17.1156 15.3456 16.5416 15.4417 16.2124 15.5706C14.6122 16.1971 13.0794 16.9711 11.5415 17.7338C10.9583 18.023 10.3185 18.2743 9.76984 18.6303C9.20731 18.9953 8.6938 19.4994 8.19505 19.9483C7.89567 20.2178 7.50474 20.4547 7.16373 20.6673C6.90318 20.8297 6.65127 20.9977 6.40201 21.1765C6.30202 21.2482 6.15892 21.2668 6.04682 21.3092C5.59442 21.4802 5.14582 21.6666 4.69669 21.8462C3.90312 22.1636 3.08327 22.5313 2.45005 23.1193C2.02045 23.5182 1.56501 23.8985 0.984375 24.0436" stroke="white" stroke-linecap="round"/>
<path d="M33.7447 1.15381C31.4226 3.24616 29.5077 5.7582 27.8049 8.37031C27.2287 9.25415 26.5648 10.0698 25.976 10.9443C25.7461 11.2856 25.5728 11.8364 25.2485 12.11C24.5745 12.6787 23.758 13.0919 23.0105 13.5533C21.9249 14.2234 20.9539 14.9976 19.9398 15.765C18.864 16.5791 17.6357 17.2221 16.4426 17.8423C15.256 18.4592 14.0175 18.9358 12.9074 19.6947C12.1473 20.2143 11.4164 20.7807 10.6109 21.2315C9.7557 21.7101 8.81347 21.9631 7.94639 22.406C7.04945 22.8641 6.15418 23.3465 5.29937 23.8785C4.50816 24.3709 3.79395 24.9162 2.97373 25.3627C2.40512 25.6722 1.89138 26.0655 1.33176 26.3853C1.15092 26.4886 1.05285 26.6241 0.875977 26.7125" stroke="white" stroke-linecap="round"/>
<path d="M0.613037 29.1843C0.934187 29.1102 1.24301 28.8366 1.53628 28.6935C2.65745 28.1463 3.80477 27.7384 4.89619 27.1158C7.89548 25.4049 10.825 23.6091 13.8949 22.0204C14.951 21.4739 15.9395 21.054 16.8516 20.2966C17.6855 19.6042 18.3943 18.8116 19.1773 18.0703C20.1368 17.162 21.1922 16.2939 22.2976 15.5694C22.6577 15.3334 23.0834 15.0122 23.4955 14.8623C24.1542 14.6228 24.641 13.8079 25.1287 13.3372C27.3449 11.1985 29.7021 9.23295 31.7346 6.90666C32.9946 5.4644 34.3527 4.10583 35.521 2.59137C35.5549 2.54746 36.817 1.17603 36.9526 1.31168" stroke="white" stroke-linecap="round"/>
<path d="M39.2142 1.10107C38.7769 1.40231 38.4111 1.84569 38.0396 2.21715C36.4447 3.81214 35.0765 5.54473 33.6455 7.28331C32.399 8.79765 31.0566 10.2244 29.7772 11.7096C29.1828 12.3997 28.4191 12.8381 27.6911 13.3896C25.8934 14.7514 24.1588 16.1748 22.476 17.6727C21.917 18.1703 21.2623 18.5495 20.6207 18.929C20.1208 19.2248 19.5641 19.397 19.0664 19.6945C18.4286 20.0758 17.8472 20.5507 17.2725 21.018C16.8811 21.3363 16.4532 21.736 15.9811 21.9384C13.4285 23.0324 11.2732 24.808 8.89901 26.2157C8.27853 26.5835 7.62638 26.8952 7.01162 27.2733C6.56231 27.5497 6.16712 27.8975 5.73193 28.1936C5.07638 28.6398 4.39878 29.0461 3.76857 29.5288C3.33621 29.86 2.84772 30.0796 2.42461 30.4258C2.08023 30.7075 1.76838 31.0157 1.35236 31.2029C1.02327 31.351 0.871274 31.487 0.665771 31.761" stroke="white" stroke-linecap="round"/>
<path d="M0.613037 33.2338C1.69918 33.0729 2.87006 32.54 3.84439 32.0827C6.22995 30.9629 8.42325 29.4433 10.6928 28.1151C12.4758 27.0716 14.309 26.1175 16.0861 25.0649C16.3184 24.9273 16.5358 24.874 16.7698 24.761C17.2504 24.529 17.7177 24.1967 18.1605 23.902C18.9005 23.4096 19.5288 22.7637 20.2349 22.225C21.6128 21.1737 23.0568 20.2132 24.4363 19.1631C25.485 18.3648 26.5123 17.4651 27.6793 16.8375C27.8642 16.738 28.1194 16.7183 28.2695 16.5628C30.0767 14.6911 31.7842 12.686 33.4233 10.6669C34.0095 9.94486 34.5873 9.28888 35.2581 8.65102C35.696 8.23455 36.0334 7.7547 36.491 7.3538C37.5989 6.38324 38.4726 5.17899 39.4127 4.05817C39.7183 3.69378 40.1435 3.30174 40.2132 2.79601C40.2542 2.49873 40.5713 2.23922 40.7683 2.04222C40.967 1.84355 41.1208 1.61375 41.3176 1.41699" stroke="white" stroke-linecap="round"/>
<path d="M44.2102 2.521C43.8077 2.88689 43.2932 3.14694 42.8691 3.49391C41.9177 4.27231 40.9056 4.98235 40.0848 5.90428C38.7166 7.44089 37.3912 9.1216 35.8104 10.4475C35.1886 10.969 34.4319 11.3045 33.7506 11.7418C31.3944 13.254 29.0414 14.8051 26.7883 16.4661C25.4945 17.4199 24.1927 18.3572 22.8762 19.2796C22.2093 19.7469 21.5116 20.1968 20.9012 20.7405C20.7497 20.8754 20.6078 21.0203 20.4512 21.1495C20.0163 21.5083 19.1821 21.6546 18.6924 21.8156C17.106 22.3372 15.5021 22.8385 13.9856 23.5453C13.1657 23.9273 12.4633 24.4252 11.7067 24.9068C10.8094 25.4778 9.76381 25.7816 8.84055 26.315C8.13427 26.723 7.43061 27.1365 6.74279 27.5742C6.31305 27.8477 5.84735 28.0618 5.4222 28.3426C5.15112 28.5217 4.90936 28.742 4.63628 28.9182C4.16885 29.2198 3.61124 29.3257 3.18129 29.6924C2.85599 29.9699 2.63623 30.1392 2.22591 30.2885C2.00424 30.3691 1.59041 30.4529 1.45459 30.6566" stroke="white" stroke-linecap="round"/>
<path d="M28.9832 1.76074C28.1648 2.42497 27.7134 3.32831 27.2079 4.23819C26.7787 5.01069 26.1867 5.61038 25.6999 6.34063C25.1615 7.1482 24.562 7.85596 23.9086 8.57473C23.4271 9.10441 23.0111 9.77691 22.4644 10.2343C22.0674 10.5665 21.2999 10.5939 20.8248 10.7848C19.8645 11.1708 18.9973 11.6656 18.084 12.1373C16.8319 12.784 15.5419 13.2919 14.3339 14.0323C13.6556 14.448 13.008 14.9461 12.3113 15.3288C11.9049 15.552 11.4048 15.5522 10.9588 15.636C9.62505 15.8868 8.33865 16.3576 7.03322 16.7212C6.01124 17.0058 5.10916 17.6267 4.18475 18.1334C3.71516 18.3908 3.40126 18.7717 2.98791 19.067C2.56761 19.3672 2.03537 19.4327 1.66342 19.7851C1.53508 19.9066 1.29857 19.9395 1.26447 20.1441C1.25082 20.226 1.18476 20.2558 1.12085 20.2877" stroke="white" stroke-linecap="round"/>
<path d="M17.0627 1.18604C16.8109 1.18604 16.5909 1.2505 16.3725 1.38152C15.6275 1.8285 14.8149 2.4011 14.1903 3.00124C13.728 3.44542 13.4416 4.0515 12.9775 4.50526C12.3447 5.12397 11.5479 5.52688 10.8391 6.04519C10.4349 6.34082 9.99212 6.61024 9.63433 6.96277C9.38909 7.20441 9.1667 7.55706 8.89229 7.76066C8.13059 8.32579 7.52102 9.00285 6.88161 9.69952C6.15911 10.4867 5.13182 10.932 4.52783 11.8538C4.2835 12.2268 3.85389 12.4586 3.52249 12.7515C3.11767 13.1092 2.84732 13.503 2.52512 13.9284C2.18973 14.3711 1.85943 14.6795 1.46393 15.0614C1.23241 15.2849 0.900724 15.6222 0.618164 15.7635" stroke="white" stroke-linecap="round"/>
<path d="M44.3506 2.6221V2.55029" stroke="white" stroke-linecap="round"/>
<path d="M45.9304 3.62744C45.8031 3.8242 45.553 3.9228 45.3599 4.04234C44.8306 4.37002 44.3047 4.67652 43.8479 5.10354C43.1646 5.74225 42.8608 6.67184 42.1563 7.2738C41.2691 8.03198 40.5524 8.94654 39.6191 9.6595C38.9795 10.1481 38.4751 10.6723 37.8916 11.2234C37.3824 11.7043 36.7826 12.0741 36.3796 12.6596C36.0134 13.1917 35.6074 13.4519 35.1269 13.8684C34.6413 14.2893 34.2572 14.6185 33.6668 14.8697C33.1682 15.0819 32.7681 15.5308 32.3543 15.8671C31.7171 16.3848 31.0319 16.8448 30.4034 17.3751C29.5832 18.0672 28.9058 18.8882 28.1214 19.6012C27.3129 20.3363 26.3399 20.9074 25.4804 21.58C24.857 22.0679 24.1534 22.4315 23.5176 22.9005C23.0333 23.2578 22.6662 23.6342 22.1213 23.9178C21.6424 24.1671 21.1941 24.4789 20.7489 24.7835C19.8202 25.419 18.643 25.6128 17.6372 26.104C16.9279 26.4504 16.043 26.6514 15.4469 27.1812C15.0612 27.5241 14.6205 27.8146 14.1743 28.0748C13.8343 28.2732 13.4433 28.4493 13.1171 28.6613C12.9346 28.7799 12.8009 28.9992 12.6583 29.16C12.4308 29.4166 12.0981 29.5223 11.7966 29.6706C11.1264 30.0002 10.4596 30.2494 9.84177 30.668C9.46126 30.9257 9.10303 31.2989 8.68482 31.4898C8.39839 31.6206 8.07372 31.7031 7.79916 31.8528C7.54164 31.9933 7.33422 32.1822 7.08106 32.3196C6.43605 32.6697 5.93459 33.226 5.28581 33.5563C4.7943 33.8066 4.22518 33.9425 3.7738 34.2585C3.33784 34.5637 2.94968 34.9674 2.47723 35.208C2.22433 35.3367 1.32741 35.6007 1.19263 35.8702" stroke="white" stroke-linecap="round"/>
<path d="M46.5767 4.99219C45.9963 5.3924 45.3964 5.82235 44.9689 6.3885C44.7134 6.72682 44.5046 7.09715 44.2468 7.43373C43.8363 7.96972 43.3328 8.42382 42.9103 8.94973C42.7163 9.19131 42.5862 9.47508 42.3957 9.7157C41.9779 10.2435 41.3611 10.6906 40.8278 11.0921C40.2344 11.5388 39.5574 11.7605 39.0446 12.3128C38.4712 12.9303 37.6724 13.3479 37.1296 13.9764C36.8369 14.3154 36.5942 14.6579 36.2001 14.8701C35.9524 15.0035 35.6512 15.0565 35.4341 15.2411C34.7553 15.8181 34.1698 16.5091 33.4753 17.0723C33.0374 17.4273 32.7564 17.9515 32.3104 18.293C31.9632 18.5588 31.6511 18.8534 31.3369 19.1548C29.966 20.4698 28.3934 21.4086 26.8767 22.5219C25.855 23.2719 24.7725 23.9406 23.7729 24.724C23.0457 25.294 22.2343 25.7153 21.4351 26.2201C20.9237 26.543 20.4907 26.8418 20.0149 27.2095C18.9584 28.0258 17.7091 28.578 16.5879 29.3039C16.1141 29.6107 15.6429 30.0511 15.1078 30.2534C14.7102 30.4037 14.377 30.5566 13.9948 30.7641C12.8896 31.364 11.7446 31.8989 10.6556 32.5274C10.241 32.7667 9.86196 33.0783 9.42286 33.2734C7.9962 33.9075 6.76944 34.9192 5.38952 35.6551C5.12142 35.7981 4.83615 35.9082 4.56769 36.0461C4.27688 36.1954 4.06044 36.4559 3.77778 36.6046C3.6412 36.6765 3.56523 36.8504 3.41873 36.8759C3.14488 36.9235 2.90426 37.0956 2.66871 37.219C2.02353 37.557 1.37917 38.0824 0.689941 38.3121" stroke="white" stroke-linecap="round"/>
<path d="M0.618164 40.2507C0.855132 39.8952 1.26746 39.6514 1.65941 39.5006C2.36018 39.2311 3.04742 38.9321 3.79377 38.8144C4.53121 38.6982 5.28392 38.5964 6.02786 38.5272C6.55854 38.4778 6.79446 38.0185 7.17683 37.7054C7.91927 37.0973 8.78918 36.6819 9.60242 36.1854C10.4705 35.6554 11.1968 34.9283 12.1078 34.4659C12.4407 34.297 12.7575 34.198 13.0294 33.9393C13.7948 33.2112 14.6318 32.597 15.4669 31.9526C16.2108 31.3786 16.9264 30.787 17.7409 30.3129C18.1804 30.0571 18.6362 29.943 19.0893 29.7504C19.6744 29.5018 20.2277 29.0182 20.7888 28.7052C22.1229 27.9609 23.3675 27.0709 24.6826 26.2955C25.6318 25.7359 26.6035 25.2191 27.5988 24.7476C28.0518 24.5331 28.231 24.3184 28.5922 23.9258C29.4934 22.9462 30.5219 22.138 31.5364 21.2848C31.8171 21.0488 32.0575 20.681 32.3742 20.5029C32.7446 20.2945 33.1566 20.1657 33.5312 19.9603C34.0737 19.6628 34.4256 19.0399 34.8517 18.5999C35.5393 17.8899 36.2831 17.1367 37.0818 16.5453C37.7917 16.0197 38.5896 15.6309 39.3478 15.1849C40.8289 14.3136 41.9105 12.9928 43.1777 11.8776C44.1598 11.0134 45.0681 10.083 45.9902 9.16083C46.3153 8.8358 46.5999 8.24866 46.7921 7.86426" stroke="white" stroke-linecap="round"/>
<path d="M46.7204 6.5C45.1483 6.85291 44.1862 8.42021 43.2097 9.5639C42.6279 10.2454 41.7939 10.9083 41.4064 11.7262C41.0079 12.5675 40.1998 13.1891 39.6112 13.8885C38.6305 15.0536 37.7814 16.3368 36.7946 17.5029C36.1335 18.2843 35.487 19.1516 34.6962 19.8088C34.0414 20.353 33.3303 20.823 32.6855 21.3807C31.7383 22.1999 30.9031 23.1676 29.9487 23.9738C28.4093 25.2743 26.3701 25.8695 24.7465 27.0457C23.5371 27.9218 22.3932 28.9081 21.2517 29.8702C20.5404 30.4698 19.7197 30.9258 19.0017 31.5298C18.4341 32.0073 17.8694 32.4819 17.2463 32.8863C16.9484 33.0796 16.6153 33.2442 16.3447 33.4767C15.6212 34.0982 15.0177 34.8243 14.2303 35.3837C13.7442 35.7289 13.1427 36.031 12.7382 36.4768C12.4584 36.7851 12.1682 37.1086 11.8366 37.3624C11.2787 37.7895 10.507 38.2077 9.86582 38.5114C8.86414 38.9859 8.0005 39.707 7.06522 40.2987C6.49178 40.6615 5.85394 40.8644 5.26198 41.1923C4.77019 41.4647 4.35188 41.8828 3.8178 42.078C3.44808 42.2131 3.2466 42.4713 2.91618 42.6365C2.62315 42.783 2.40186 42.9372 2.07042 43.0354C1.8474 43.1015 1.71147 43.2668 1.47998 43.2668" stroke="white" stroke-linecap="round"/>
<path d="M0.905518 42.4053C0.946382 42.0375 1.50657 41.7792 1.7832 41.6233C3.05303 40.9081 4.32096 40.1918 5.57318 39.4451C7.17641 38.489 8.58578 37.498 9.91371 36.1737C10.6402 35.4492 11.2982 34.6608 12.0361 33.9476C13.0732 32.9453 14.1961 32.0427 15.2676 31.0792C15.837 30.5671 16.3621 29.9954 16.983 29.5433C17.3866 29.2493 17.8677 29.0618 18.2477 28.7374C19.9628 27.2728 21.2842 25.392 22.8794 23.8064C24.3592 22.3357 25.9941 21.0941 27.6668 19.8569C28.4588 19.2711 29.302 18.672 29.9886 17.9579C31.7158 16.1617 33.1714 14.1051 34.8757 12.2809C35.646 11.4564 36.4609 10.6916 37.1298 9.77951C37.4596 9.32979 37.8016 8.97912 38.2269 8.61459C38.8979 8.0394 39.5871 7.48434 40.2096 6.85524C40.5327 6.52876 40.8161 6.16437 41.1591 5.85788C41.5986 5.46519 42.114 5.20975 42.5754 4.85253C42.7264 4.73558 43.0246 4.47491 43.0581 4.27406C43.0949 4.05308 43.5617 3.69842 43.7044 3.52005C43.8752 3.30653 44.3183 3.11804 44.4225 2.90967" stroke="white" stroke-linecap="round"/>
<path d="M46.6486 10.9521C46.3631 11.2376 46.0555 11.5049 45.7869 11.8059C44.6738 13.0534 43.2618 14.0063 42.2443 15.3326C41.8658 15.8259 41.5212 16.3406 41.0873 16.7887C40.8478 17.0361 40.5617 17.2419 40.3333 17.4988C39.8582 18.0333 39.6424 18.7563 39.1325 19.2662C38.7297 19.669 38.2351 19.9677 37.8319 20.3752C37.5322 20.6782 37.2977 21.3001 36.9223 21.5003C36.3459 21.8077 35.7953 22.1773 35.2388 22.5216C34.7205 22.8422 34.0623 23.1861 33.651 23.6386C32.7796 24.5972 31.7401 25.4207 30.619 26.0802C30.1011 26.3848 29.5345 26.6046 29.0312 26.9339C28.3367 27.3883 27.7237 27.9687 27.1083 28.5217C26.4119 29.1474 25.6265 29.5868 24.8822 30.1574C24.2204 30.6646 23.5623 31.1707 22.8794 31.6494C22.5017 31.9143 22.0783 32.1476 21.8023 32.5271C21.4437 33.0202 21.1183 33.3147 20.5775 33.6044C20.2099 33.8013 19.8241 33.9186 19.5004 34.1947C19.055 34.5746 18.7961 34.9554 18.2517 35.224C17.229 35.7286 16.067 36.0147 15.1878 36.764C14.5805 37.2816 13.926 37.7269 13.2928 38.2081C12.6768 38.6763 12.1195 39.1191 11.4297 39.4927C11.2162 39.6083 11.0716 39.763 10.9031 39.9315C10.6406 40.194 10.2031 40.259 9.87382 40.4063C9.13234 40.738 8.62314 41.3241 7.91101 41.687C7.27486 42.0112 6.65338 42.3748 6.03597 42.7322C5.3973 43.102 4.74359 43.3396 4.14098 43.7614C3.71237 44.0614 2.72089 44.16 2.48535 44.6311" stroke="white" stroke-linecap="round"/>
<path d="M47.1514 10.9522V10.8804" stroke="white" stroke-linecap="round"/>
<path d="M47.5102 13.1782C47.0211 13.1782 46.5186 13.7706 46.1738 14.0519C45.6442 14.4839 45.2098 15.0299 44.6817 15.4602C44.4846 15.6208 44.2292 15.6945 44.0195 15.8392C43.5405 16.1695 43.0156 16.4585 42.5114 16.7488C41.7452 17.1899 41.3306 17.9677 40.6204 18.4842C40.1402 18.8335 39.7521 19.1869 39.2361 19.4736C37.4176 20.4838 35.8795 21.9027 34.0737 22.9125C33.5913 23.1823 33.1343 23.4754 32.7572 23.8859C32.1786 24.5158 31.5824 24.764 30.7864 25.2024C28.2184 26.617 25.7247 28.1547 23.1746 29.5988C22.3214 30.082 21.7521 30.7859 21.0043 31.3941C20.1387 32.0981 19.0344 32.5749 18.076 33.1375C16.7347 33.9247 15.2914 34.5751 13.9988 35.4394C12.9257 36.1569 12.0169 37.1973 10.7793 37.6336C9.36198 38.1332 7.86097 38.3976 6.50661 39.0698C5.45313 39.5926 4.75403 40.47 3.6741 40.9329C3.13404 41.1643 2.76662 41.6927 2.35758 42.1018C2.06712 42.3922 1.49124 42.6506 1.12085 42.8358" stroke="white" stroke-linecap="round"/>
<path d="M3.41895 45.8518C3.69857 45.8239 3.94651 45.5582 4.20886 45.4609C5.36706 45.0312 6.28954 44.2075 7.39643 43.7015C8.2886 43.2937 9.02798 42.714 9.8659 42.1975C10.681 41.695 11.4789 41.2266 12.2117 40.6017C12.7322 40.1579 13.1387 39.77 13.7716 39.5046C14.6371 39.1416 15.4444 38.7604 16.261 38.2519C17.445 37.5147 18.4298 36.5487 19.5762 35.7745C19.9954 35.4914 20.4516 35.2876 20.8688 34.9925C22.832 33.6044 24.7303 32.1656 26.7772 30.9033C27.3994 30.5196 28.0214 30.1076 28.6243 29.6945C29.2305 29.2793 29.8141 28.8342 30.3637 28.3461C30.9382 27.8359 31.4231 27.2775 32.1031 26.9019C33.3601 26.2077 34.797 25.7081 35.8133 24.6439C36.2958 24.1387 36.8236 23.7984 37.3772 23.3832C38.1064 22.8363 38.6592 22.1701 39.3161 21.556C39.6038 21.2871 40.0032 21.1361 40.2695 20.8619C41.0874 20.0199 41.8892 19.2668 42.8028 18.5241C43.2111 18.1922 43.4733 17.832 43.9279 17.5905C44.1006 17.4988 44.321 17.4708 44.4784 17.3631C44.7045 17.2084 44.9211 16.9667 45.1686 16.8525C45.4322 16.7308 45.6208 16.4382 45.8269 16.2261C46.1174 15.927 46.5949 15.5793 47.0077 15.4761" stroke="white" stroke-linecap="round"/>
<path d="M47.2948 16.1226C47.2948 16.7903 46.904 17.3354 46.5129 17.8699C45.9583 18.6278 45.4771 19.4372 44.8852 20.1679C44.4278 20.7324 43.9079 21.2428 43.441 21.7996C43.2999 21.9677 43.0964 21.9981 42.9184 22.1227C42.6104 22.3383 42.304 22.6104 42.0526 22.8887C41.5581 23.4363 40.9292 23.799 40.3452 24.2371C40.2053 24.342 40.0505 24.3892 39.9063 24.4845C39.3736 24.8364 38.9506 25.3202 38.4182 25.6693C37.9268 25.9916 37.4021 26.289 36.9461 26.6627C35.5993 27.7666 34.078 28.6506 32.6335 29.6229C30.7109 30.917 28.8714 32.312 26.9885 33.6602C25.8152 34.5002 24.6051 35.2717 23.5256 36.2334C22.8545 36.8313 22.0167 37.2068 21.2596 37.6816C20.3685 38.2404 19.6165 38.9763 18.7462 39.5486C18.3143 39.8327 17.838 40.0502 17.4018 40.3306C16.0909 41.1733 14.6579 41.7166 13.4283 42.7003C12.4097 43.5152 11.4326 44.1032 10.2008 44.5594C9.78864 44.7121 9.52416 45.0389 9.08777 45.1698C8.66703 45.296 8.22936 45.4188 7.8311 45.6046C6.96578 46.0084 6.23986 46.7479 5.42944 47.2882" stroke="white" stroke-linecap="round"/>
<path d="M47.0075 17.6304C45.6946 18.4011 44.3534 19.5238 43.413 20.7222C42.2914 22.1518 40.5223 23.0362 39.0566 24.0614C37.4151 25.2095 35.8681 26.4645 34.4168 27.8394C33.6032 28.6102 32.6443 29.2419 31.72 29.8661C31.0703 30.3048 30.4137 30.7209 29.8529 31.2744C29.4315 31.6902 29.0702 32.1638 28.6561 32.5869C27.9251 33.3335 27.0847 33.9614 26.1906 34.4978C25.021 35.1996 23.979 36.0672 23.003 37.0192C21.5762 38.4109 20.1 39.6048 18.4949 40.7972C17.4156 41.5989 16.2625 42.3072 15.2595 43.1988C14.832 43.5788 14.2349 43.657 13.7435 43.9289C13.3731 44.1338 13.1433 44.3136 12.8419 44.6151C12.4549 45.002 11.8878 45.2619 11.4216 45.5087C11.0548 45.7029 10.5559 45.73 10.2008 45.9795C9.83318 46.2378 9.48263 46.6099 9.16357 46.929" stroke="white" stroke-linecap="round"/>
<path d="M47.0794 20.6465C46.2807 21.8619 45.4976 23.0356 44.6139 24.1931C43.9128 25.1114 43.1329 26.1106 42.1883 26.7902C41.1923 27.5069 40.0259 28.0841 39.1723 28.9685C38.4664 29.6998 37.7313 30.5424 36.7866 30.9632C34.7595 31.8662 32.688 32.4956 30.9101 33.8715C30.1973 34.4231 29.4269 34.8571 28.6321 35.2798C27.965 35.6346 27.2765 35.926 26.7212 36.4487C26.2496 36.8925 25.8918 37.4506 25.3927 37.865C24.9838 38.2044 24.517 38.5507 24.0841 38.8544C23.5992 39.1945 23.0117 39.3984 22.5123 39.7241C21.77 40.2082 21.19 40.801 20.5974 41.4475C20.1928 41.8889 19.6225 42.2025 19.1532 42.5805C18.9123 42.7746 18.7619 42.9958 18.5548 43.2108C17.8336 43.9598 16.9924 44.6205 16.2329 45.3332C15.8869 45.6579 15.3833 45.9837 15.0919 46.3545C14.9102 46.5858 14.6105 46.6632 14.4775 46.929" stroke="white" stroke-linecap="round"/>
<path d="M16.4165 47.1444C16.6635 46.6999 17.3843 46.4849 17.7969 46.2149C19.1661 45.319 20.5174 44.3718 21.7943 43.3465C22.7875 42.5489 23.7578 41.715 24.7066 40.865C25.3364 40.3008 25.8914 39.8 26.6654 39.4328C27.1958 39.1812 27.892 39.0512 28.3849 38.7347C29.3462 38.1173 30.1286 37.1491 31.0139 36.4248C31.6853 35.8755 32.3356 35.3065 32.9967 34.7452C33.2718 34.5116 33.582 34.1218 33.9302 33.9952C34.3137 33.8557 34.6583 33.657 35.0233 33.4766C35.7513 33.1167 36.512 32.827 37.1936 32.3795C37.6294 32.0933 38.029 31.7603 38.4702 31.4818C38.9567 31.1748 39.453 30.9092 39.8825 30.5204C40.4784 29.9808 41.0563 29.4581 41.6777 28.9485C41.9356 28.737 42.1426 28.4707 42.4118 28.2823C42.8536 27.973 43.394 27.8663 43.8719 27.62C44.5947 27.2477 45.1454 26.4606 45.8028 25.9604C46.0845 25.7461 46.4183 25.6004 46.5608 25.2583C46.6184 25.12 46.8635 24.9551 47.0076 24.9551" stroke="white" stroke-linecap="round"/>
<path d="M47.0793 20.2876C45.7808 20.9977 44.6748 21.7737 43.7442 22.9326C43.213 23.5941 42.5946 24.1665 42.0287 24.7957C41.6331 25.2356 41.2685 25.7115 40.8478 26.1282C40.5702 26.4031 40.2588 26.4858 39.9103 26.6388C38.6385 27.1972 37.3823 27.7321 36.252 28.5458C35.5982 29.0164 34.9918 29.4945 34.2892 29.8902C33.7155 30.2133 33.1082 30.471 32.5338 30.7918C31.6904 31.2629 30.9546 31.8998 30.18 32.4714C28.5337 33.6864 26.9229 34.9436 25.269 36.1537C23.5247 37.4299 21.7529 38.6682 20.0229 39.9636C19.5861 40.2906 19.174 40.4427 18.6864 40.6697C17.7911 41.0865 16.9102 41.5703 16.0933 42.1259C15.4991 42.5299 14.9729 43.0012 14.3339 43.3387C13.8073 43.6168 13.338 43.8978 12.8698 44.2642C12.5045 44.5501 12.052 44.8386 11.7248 45.1658C11.2644 45.6262 10.84 46.1269 10.2407 46.4265" stroke="white" stroke-linecap="round"/>
<path d="M47.223 26.5352C46.9139 26.7 46.6724 27.0735 46.4331 27.3211C46.0305 27.7375 45.6179 28.1661 45.1405 28.498C44.7112 28.7964 44.2398 29.001 43.824 29.3238C43.3593 29.6846 42.9007 30.0497 42.4197 30.389C41.8163 30.8145 41.3796 31.378 40.7441 31.7613C40.1857 32.0982 39.5847 32.3602 39.0287 32.6949C38.6505 32.9225 38.373 33.2581 38.0433 33.5446C37.5671 33.9583 37.0208 34.2796 36.5233 34.6657C36.154 34.9522 35.7696 35.2267 35.4142 35.5274C34.549 36.2595 33.6976 36.9164 32.9807 37.8014C32.5996 38.2718 32.0571 38.424 31.5764 38.7668C31.0852 39.1171 30.7844 39.6284 30.2838 39.9557C29.7867 40.2807 29.3035 40.5042 28.7758 40.7775C27.1245 41.6328 25.7043 42.8087 24.0124 43.5701C23.3579 43.8647 23.0634 44.5848 22.4724 44.9664C21.6519 45.4964 20.8979 46.3183 20.2942 47.0729" stroke="white" stroke-linecap="round"/>
<path d="M23.1665 47.4318C24.3547 46.4134 25.5836 45.5103 26.9405 44.7349C27.2383 44.5648 27.524 44.2657 27.7863 44.0647C28.6803 43.3796 29.6273 42.7557 30.4832 42.0221C31.4051 41.2319 32.2 40.5678 33.3396 40.1391C33.6947 40.0055 33.9142 39.7593 34.1774 39.4928C34.6948 38.969 35.2267 38.4845 35.8211 38.0486C36.7016 37.4029 37.4402 36.667 38.2466 35.9342C38.9475 35.2974 39.7097 34.8827 40.3371 34.1709C40.7469 33.7059 41.2305 33.3342 41.7254 32.9661C42.256 32.5714 42.6573 32.0921 43.0819 31.5937C43.3081 31.3281 43.5823 31.1867 43.8478 30.9713C44.2245 30.6657 44.5604 30.3566 44.8931 30.0139C45.1055 29.795 45.4669 29.6016 45.7867 29.5511C46.0686 29.5066 46.7613 29.1373 46.9357 28.9048" stroke="white" stroke-linecap="round"/>
<path d="M47.1512 31.0591C46.5273 31.4542 45.8277 31.704 45.1964 32.0963C44.4879 32.5366 43.9076 33.1513 43.2057 33.5724C42.0724 34.2524 40.7096 35.0298 40.0819 36.2254C39.5633 37.2132 38.478 37.4814 37.7521 38.28C36.9203 39.195 35.9917 39.8904 35.0432 40.7016C34.6229 41.0611 34.3244 41.606 33.9023 41.9343C33.5841 42.1818 33.3091 42.4404 33.0046 42.7163C32.5511 43.1271 31.9869 43.4081 31.4926 43.7655C30.733 44.3148 30.0592 44.9618 29.3184 45.5328C28.7463 45.9738 28.3203 46.5514 27.6907 46.9291" stroke="white" stroke-linecap="round"/>
<path d="M29.7732 47.2163C29.9244 47.2163 30.0637 47.2106 30.212 47.1684C31.2786 46.8653 32.3063 46.1577 33.244 45.5926C34.0665 45.0969 34.8045 44.4596 35.6457 44.0008C35.7687 43.9337 35.8521 43.7726 35.9289 43.6697C36.3052 43.1654 36.7074 42.6775 37.1457 42.2255C38.2271 41.1103 39.2976 39.919 40.5407 38.99C40.8443 38.7632 41.3347 38.53 41.582 38.232C41.9009 37.8477 42.1613 37.4138 42.4796 37.0272C42.8971 36.5202 43.5594 36.059 43.832 35.4554C44.0012 35.0808 44.3994 34.7731 44.7416 34.5617C45.214 34.27 45.6541 33.9756 46.1459 33.716C46.3671 33.5992 46.4507 33.3569 46.7204 33.3569" stroke="white" stroke-linecap="round"/>
<path d="M46.9358 35.2241C46.4204 35.445 45.8993 36.138 45.4836 36.5007C44.6172 37.2568 44.0227 38.1726 43.2495 39.0061C42.5595 39.7501 41.5541 40.1548 40.8239 40.8652C40.2526 41.421 39.8778 41.8791 39.2042 42.3333C38.7189 42.6606 38.2056 42.9766 37.748 43.3427C37.5782 43.4785 37.5426 43.6733 37.401 43.8254C37.0907 44.1586 36.7803 44.4609 36.4515 44.7749C36.2316 44.9847 35.9441 45.1864 35.8211 45.477C35.5806 46.0455 35.1455 46.3681 34.728 46.7856" stroke="white" stroke-linecap="round"/>
<path d="M36.0205 47.2884C37.1704 47.2884 37.9235 46.2364 38.7014 45.533C39.4792 44.8298 40.3872 44.2782 41.127 43.5383C41.7042 42.9611 42.2465 42.399 42.9063 41.9106C43.1543 41.7271 43.4282 41.5791 43.6164 41.3282C43.9158 40.929 44.1376 40.6395 44.5141 40.2989C44.9998 39.8594 45.4874 39.4332 45.9463 38.9744C46.1429 38.7778 46.2159 38.5083 46.4968 38.3879C46.619 38.3355 46.8882 38.0955 46.9357 37.9531" stroke="white" stroke-linecap="round"/>
<path d="M47.4385 39.6763C46.9258 40.6589 46.2807 41.5087 45.5794 42.3572C45.1946 42.8228 44.8491 43.3376 44.3986 43.7455C43.5953 44.4728 42.6451 45.027 41.8533 45.7642C41.5643 46.0333 41.2191 46.1974 40.9198 46.4424C40.7708 46.5643 40.5647 46.7755 40.4011 46.8573" stroke="white" stroke-linecap="round"/>
<path d="M6.21213 21.5389C16.6879 17.2796 27.2523 12.982 37.9037 8.64677L6.21213 21.5389ZM6.21213 21.5389C6.18808 21.5487 6.16336 21.5587 6.13806 21.569C5.84412 21.6881 5.47167 21.8391 5.17052 22.0733C4.81076 22.3531 4.54307 22.7545 4.50574 23.3379M6.21213 21.5389L40.463 10.8522L6.21213 21.5389ZM40.463 10.8522C38.7137 20.1448 36.9014 29.8469 35.0261 39.9587C34.8358 40.9822 33.8272 41.6944 32.809 41.4536C32.4907 41.3791 32.1729 41.2171 31.8588 40.9972C28.9849 38.9949 26.2306 37.0837 23.5957 35.2636C22.2117 36.2821 20.7868 37.3351 19.3211 38.4225C18.9174 38.7226 18.4255 38.9024 17.929 38.8812C17.4187 38.8593 16.9325 38.6244 16.587 38.1527C16.3895 37.8839 16.2487 37.5229 16.1429 37.1099C15.4122 34.2744 14.6799 31.4139 13.946 28.5283C11.0317 27.3888 8.31637 26.3317 5.80009 25.3571C5.37625 25.1931 5.02426 24.9404 4.79161 24.578C4.55872 24.2152 4.47626 23.7905 4.50574 23.3379M40.463 10.8522C40.6007 10.1203 40.3441 9.42214 39.8561 8.978L40.463 10.8522ZM40.463 10.8522L39.8561 8.978L40.463 10.8522ZM4.50574 23.3379L5.00468 23.3704L4.50574 23.3379ZM4.50574 23.3379C4.50572 23.3381 4.50576 23.3377 4.50574 23.3379L5.00468 23.3704L4.50574 23.3379ZM5.00468 23.3704C4.95628 24.1136 5.28161 24.6204 5.98068 24.8908C8.5383 25.8814 11.3014 26.9572 14.2699 28.1181M5.00468 23.3704C5.05697 22.5487 5.70215 22.2862 6.33745 22.0277L14.2699 28.1181M14.2699 28.1181C14.2997 28.1299 14.3264 28.1487 14.3478 28.173C14.3692 28.1973 14.3848 28.2264 14.3932 28.2579C15.1395 31.193 15.8842 34.1021 16.6271 36.9854C16.7262 37.372 16.8472 37.6625 16.9902 37.857C17.4968 38.549 18.3664 38.5093 19.0232 38.0209L14.2699 28.1181ZM17.7415 28.2792C21.9008 24.1866 26.1375 20.0208 30.4515 15.7819L11.4917 23.493C12.8428 24.0253 14.2078 24.5553 15.5867 25.0831C15.6069 25.0908 15.6276 25.0987 15.6483 25.1066C16.2402 25.3324 17.0478 25.6404 17.3033 26.6194L17.7415 28.2792ZM17.7415 28.2792C17.6023 27.7567 17.4562 27.2032 17.3033 26.6194L17.7415 28.2792ZM39.8561 8.978C39.3604 8.52695 38.6351 8.34896 37.9037 8.64677L39.8561 8.978ZM31.8713 36.3805L21.9209 29.4846L35.6786 15.9575L31.8713 36.3805ZM19.1764 33.8119L18.6637 31.8419L20.2991 32.9777L19.1764 33.8119Z" fill="#302E2F"/>
<path d="M6.21213 21.5389C16.6879 17.2796 27.2523 12.982 37.9037 8.64677M6.21213 21.5389L37.9037 8.64677M6.21213 21.5389C6.18808 21.5487 6.16336 21.5587 6.13806 21.569C5.84412 21.6881 5.47167 21.8391 5.17052 22.0733C4.81076 22.3531 4.54307 22.7545 4.50574 23.3379M6.21213 21.5389L40.463 10.8522M37.9037 8.64677C38.6351 8.34896 39.3604 8.52695 39.8561 8.978M37.9037 8.64677L39.8561 8.978M4.50574 23.3379C4.47626 23.7905 4.55872 24.2152 4.79161 24.578C5.02426 24.9404 5.37625 25.1931 5.80009 25.3571C8.31637 26.3317 11.0317 27.3888 13.946 28.5283C14.6799 31.4139 15.4122 34.2744 16.1429 37.1099C16.2487 37.5229 16.3895 37.8839 16.587 38.1527C16.9325 38.6244 17.4187 38.8593 17.929 38.8812C18.4255 38.9024 18.9174 38.7226 19.3211 38.4225C20.7868 37.3351 22.2117 36.2821 23.5957 35.2636C26.2306 37.0837 28.9849 38.9949 31.8588 40.9972C32.1729 41.2171 32.4907 41.3791 32.809 41.4536C33.8272 41.6944 34.8358 40.9822 35.0261 39.9587C36.9014 29.8469 38.7137 20.1448 40.463 10.8522M4.50574 23.3379L5.00468 23.3704M4.50574 23.3379C4.50572 23.3381 4.50576 23.3377 4.50574 23.3379ZM40.463 10.8522C40.6007 10.1203 40.3441 9.42214 39.8561 8.978M40.463 10.8522L39.8561 8.978M5.00468 23.3704C4.95628 24.1136 5.28161 24.6204 5.98068 24.8908C8.5383 25.8814 11.3014 26.9572 14.2699 28.1181M5.00468 23.3704C5.05697 22.5487 5.70215 22.2862 6.33745 22.0277L14.2699 28.1181M14.2699 28.1181C14.2997 28.1299 14.3264 28.1487 14.3478 28.173C14.3692 28.1973 14.3848 28.2264 14.3932 28.2579C15.1395 31.193 15.8842 34.1021 16.6271 36.9854C16.7262 37.372 16.8472 37.6625 16.9902 37.857C17.4968 38.549 18.3664 38.5093 19.0232 38.0209L14.2699 28.1181ZM17.7415 28.2792C21.9008 24.1866 26.1375 20.0208 30.4515 15.7819L11.4917 23.493C12.8428 24.0253 14.2078 24.5553 15.5867 25.0831C15.6069 25.0908 15.6276 25.0987 15.6483 25.1066C16.2402 25.3324 17.0478 25.6404 17.3033 26.6194M17.7415 28.2792L17.3033 26.6194M17.7415 28.2792C17.6023 27.7567 17.4562 27.2032 17.3033 26.6194M31.8713 36.3805L21.9209 29.4846L35.6786 15.9575L31.8713 36.3805ZM19.1764 33.8119L18.6637 31.8419L20.2991 32.9777L19.1764 33.8119Z" stroke="white"/>
</g>
<defs>
<clipPath id="clip0_1_1123">
<rect width="49" height="48" fill="white"/>
</clipPath>
</defs>
</svg>
