<svg width="48" height="48" viewBox="0 0 48 48" fill="none" xmlns="http://www.w3.org/2000/svg">
<g clip-path="url(#clip0_1_1170)">
<path d="M40.392 1.09047C42.4578 1.70948 44.381 3.57076 45.4788 5.22005C46.2682 6.40437 46.8589 7.79079 47.2507 9.3793C47.7348 11.3522 47.984 13.5725 47.9984 16.04C48.0099 18.5585 47.9595 21.0882 47.8471 23.6293C47.8356 23.9035 47.8601 24.1819 47.9206 24.4646C47.984 24.7642 47.9955 25.0836 47.9552 25.4227C47.5576 28.8118 47.3732 32.263 47.402 35.7764C47.4077 36.4406 47.3314 37.1218 47.1729 37.82C46.9612 38.7612 47.1384 39.7321 46.7883 40.7242C45.9326 43.1437 44.2831 44.9174 41.8398 46.0452C40.7363 46.554 39.4282 46.8536 37.9155 46.944C36.4893 47.0317 34.9508 47.1829 33.2998 47.3977C31.9024 47.5786 30.5943 47.6662 29.3756 47.6606C25.7971 47.6464 22.1898 47.7044 18.5537 47.8344C18.2886 47.8429 18.0293 47.8881 17.7758 47.9701C17.4214 48.0845 17.1318 47.8344 16.7645 47.8259C14.543 47.7637 12.3101 47.5503 10.0656 47.1857C7.69724 46.7999 4.61145 45.8968 3.05559 44.0525C1.07042 41.6951 0.0663132 39.123 0.0432634 36.336C-0.0460546 25.4341 0.00292628 17.3713 0.190206 12.1479C0.224781 11.1727 0.371723 10.0888 0.631034 8.89596C1.14533 6.53439 2.34248 4.88086 3.97182 3.19342C5.55937 1.54837 7.39903 0.652357 9.4908 0.505377C11.6517 0.352744 14.2117 0.29056 17.1707 0.318825C18.9254 0.335784 20.6109 0.0517171 22.3656 0.0220384C27.7679 -0.0684109 32.9281 0.119554 37.8464 0.585933C38.705 0.667903 39.5535 0.836082 40.392 1.09047ZM21.7562 1.39574C21.7861 1.37297 21.8078 1.34112 21.818 1.30513C21.8281 1.26913 21.8262 1.23102 21.8124 1.19669C21.7986 1.16237 21.7737 1.13377 21.7417 1.11533C21.7096 1.09689 21.6722 1.08964 21.6352 1.09471C20.7406 1.21343 20.1139 1.06079 19.2971 1.64589C17.3033 3.09025 15.3757 4.59114 13.5144 6.14857C9.377 9.61673 5.22803 13.0312 1.06754 16.3919C1.04306 16.4119 1.02311 16.4366 1.00897 16.4643C0.994827 16.4921 0.986808 16.5223 0.985424 16.5531L0.920597 17.6554C0.920509 17.6613 0.922235 17.6672 0.925553 17.6721C0.928871 17.6771 0.933629 17.681 0.939211 17.6832C0.944793 17.6855 0.950944 17.6861 0.956871 17.6849C0.962797 17.6837 0.968227 17.6809 0.972459 17.6766C4.89669 14.3441 8.8166 11.054 12.9526 7.92081C15.7589 5.79242 18.6934 3.6174 21.7562 1.39574ZM15.4809 7.11948C10.7124 10.9664 6.01172 14.9956 1.37871 19.2072C0.963815 19.5845 0.994068 19.9619 0.886022 20.4494C0.819754 20.7575 0.898988 20.7999 1.12372 20.5766C1.32685 20.3731 1.6337 20.3138 1.85844 20.0933C6.97982 15.0903 12.6544 10.2527 17.953 5.7585C19.6039 4.36219 21.422 2.90652 23.4071 1.3915C23.5109 1.30953 23.5109 1.22897 23.4071 1.14983C23.3178 1.07916 23.2141 1.04242 23.096 1.03959C22.8799 1.03394 22.6883 1.09895 22.5212 1.23462C20.1269 3.13406 17.8536 5.20733 15.4809 7.11948ZM28.1179 1.46357C28.3945 1.27137 28.3628 1.17385 28.0229 1.17103L26.6658 1.15831C26.4756 1.15548 26.3071 1.21343 26.1601 1.33214L1.14101 21.2889C1.09852 21.3225 1.06327 21.3642 1.0373 21.4115C1.01133 21.4588 0.995164 21.5108 0.989746 21.5645L0.95085 22.0606C0.936444 22.2273 0.995509 22.2598 1.12804 22.1581C4.3651 19.682 7.62377 17.2823 10.8176 14.6409C16.3467 10.0591 22.1135 5.66664 28.1179 1.46357ZM29.7991 1.20919C29.6925 1.16679 29.5802 1.14418 29.462 1.14135C29.2555 1.13864 29.0536 1.20764 28.8915 1.33638C22.2129 6.6107 15.6926 11.9698 9.3309 17.4137C8.20722 18.3748 6.11113 20.0283 3.04262 22.3743C2.47502 22.8068 1.8786 23.3565 1.25338 24.0236C1.13813 24.148 1.07042 24.2935 1.05025 24.4603C1.03008 24.6327 0.991187 24.7981 0.933562 24.9564C0.789501 25.3521 0.877378 25.41 1.19719 25.1302C2.76746 23.7565 4.28155 22.3842 5.73945 21.0133C9.2531 17.7021 12.9958 14.6579 16.7774 11.6688C21.0647 8.2826 25.4197 4.88934 29.8423 1.48901C29.9922 1.37312 29.9778 1.27985 29.7991 1.20919ZM1.10644 25.8171L0.886022 26.364C0.87703 26.386 0.87552 26.4103 0.881715 26.4332C0.887911 26.4562 0.901482 26.4765 0.920412 26.4913C0.939343 26.506 0.962622 26.5144 0.986792 26.5152C1.01096 26.5159 1.03473 26.509 1.05457 26.4954C2.10622 25.7436 3.10024 24.9281 4.03664 24.049C4.80017 23.3339 5.66021 22.6047 6.61678 21.8613C10.7369 18.6673 14.9651 15.2953 19.3014 11.7451C21.3413 10.0718 23.8984 8.15682 26.9726 6.00017C29.0169 4.56712 30.9531 2.99415 33.1097 1.47629C33.1302 1.46207 33.1462 1.44247 33.1559 1.41975C33.1656 1.39702 33.1686 1.37208 33.1645 1.34777C33.1604 1.32346 33.1495 1.30076 33.1329 1.28225C33.1164 1.26375 33.0948 1.25018 33.0708 1.2431C32.8835 1.18375 32.6948 1.15972 32.5046 1.17103C32.2597 1.18799 32.0393 1.26996 31.8434 1.41694C20.8428 9.74393 13.1082 15.7715 8.6394 19.4997C6.16443 21.5659 3.68513 23.6279 1.20152 25.6856C1.15902 25.7217 1.12639 25.7669 1.10644 25.8171ZM12.568 1.53141L12.676 1.4127C12.8085 1.26572 12.7826 1.23038 12.5982 1.3067C12.2309 1.45933 11.9154 1.44661 11.5955 1.69676C8.72296 3.92408 5.88495 6.16553 3.08152 8.4211C2.31511 9.03446 1.66828 9.64782 1.14101 10.2612C1.1254 10.2797 1.11357 10.3009 1.1062 10.3237C1.09884 10.3465 1.09608 10.3704 1.09809 10.394C1.10009 10.4177 1.10683 10.4406 1.1179 10.4614C1.12898 10.4823 1.14417 10.5007 1.16262 10.5156L1.24906 10.5876C1.39888 10.712 1.54438 10.7078 1.68556 10.5749C4.90677 7.56749 8.43051 4.69431 12.2568 1.95539C12.3922 1.85929 12.4902 1.72927 12.5507 1.56533C12.5564 1.55402 12.5622 1.54272 12.568 1.53141ZM0.968137 13.034C5.46861 9.02316 10.165 5.41084 15.0573 2.19706C15.3512 2.00627 15.5154 1.71796 15.7618 1.48477C15.9664 1.29257 15.9347 1.24169 15.6667 1.33214C15.3584 1.43672 15.0328 1.48901 14.69 1.48901C14.5257 1.49184 14.3788 1.5413 14.2491 1.63741L1.36575 11.2406C1.27067 11.3141 1.2116 11.4073 1.18855 11.5204L0.894666 12.9959C0.892711 13.0049 0.893807 13.0143 0.897786 13.0226C0.901766 13.031 0.908412 13.0378 0.916718 13.0421C0.925024 13.0465 0.934537 13.048 0.943816 13.0465C0.953095 13.0451 0.961633 13.0407 0.968137 13.034ZM14.167 3.64284C13.0736 4.48232 12.1358 5.38964 11.064 6.22064C9.04998 7.77241 7.11379 9.41039 5.2554 11.1346C3.90699 12.3811 2.48942 13.5513 1.14101 14.7808C1.00847 14.8995 0.936444 15.0465 0.924919 15.2218L0.894666 15.5991C0.893077 15.6297 0.900673 15.6601 0.916514 15.6866C0.932355 15.713 0.955747 15.7343 0.983797 15.7478C1.01185 15.7614 1.04332 15.7666 1.07434 15.7627C1.10535 15.7589 1.13454 15.7462 1.1583 15.7263C3.27312 13.8664 5.3332 12.0023 7.33853 10.134C10.0613 7.59858 12.8878 5.13101 15.805 2.73976C16.3496 2.29034 16.9503 1.97659 17.4127 1.44662C17.5337 1.31094 17.5021 1.25441 17.3177 1.27702C16.8884 1.33073 16.5628 1.47205 16.3409 1.701C15.6408 2.41612 14.9162 3.0634 14.167 3.64284ZM33.6499 1.52293C31.2729 3.60044 28.9477 5.62283 26.5707 7.27636C26.5492 7.29265 26.5331 7.3148 26.5243 7.34004C26.5156 7.36527 26.5146 7.39248 26.5215 7.41826C26.5284 7.44404 26.5429 7.46725 26.5632 7.485C26.5835 7.50274 26.6086 7.51423 26.6355 7.51802C27.232 7.5901 27.7333 7.48411 28.226 7.07708C29.9345 5.68077 31.5135 4.28446 32.9627 2.88815C33.4511 2.41753 34.121 2.07835 34.5877 1.51869C34.7289 1.34627 34.6886 1.2643 34.4667 1.27278L34.2636 1.28126C34.0273 1.28692 33.8228 1.36747 33.6499 1.52293ZM10.6923 1.46357C9.86536 1.53989 9.16234 1.8282 8.58322 2.3285C7.80817 3.00121 7.41488 3.34181 7.40336 3.35029C5.48734 4.6929 3.61887 6.14857 1.79793 7.7173C1.77906 7.73279 1.76352 7.75181 1.75221 7.77325C1.7409 7.79469 1.73403 7.81812 1.73202 7.84218C1.73001 7.86624 1.73289 7.89045 1.7405 7.91341C1.7481 7.93637 1.76028 7.95762 1.77632 7.97593L1.84979 8.06072C1.88725 8.10312 1.92759 8.10595 1.9708 8.0692C4.6417 5.84471 7.38463 3.8944 10.1996 2.21826C10.4791 2.05149 10.711 1.81124 10.8954 1.49749C10.953 1.39856 10.9257 1.36182 10.8133 1.38726C10.7614 1.39856 10.7211 1.424 10.6923 1.46357ZM29.3151 7.26788C29.3871 7.22548 29.4663 7.20993 29.5528 7.22124C29.6219 7.23226 29.6934 7.2155 29.7516 7.1746L37.3969 1.90451C37.4255 1.88516 37.4481 1.85859 37.4624 1.82756C37.4766 1.79652 37.4821 1.76215 37.4781 1.72799C37.4741 1.69383 37.4609 1.66114 37.4398 1.63328C37.4187 1.60543 37.3905 1.58343 37.358 1.56957C37.2428 1.52434 37.1232 1.49749 36.9993 1.48901C36.6507 1.4664 36.3381 1.5625 36.0615 1.77732C33.7738 3.57783 31.4457 5.33876 29.0774 7.06013C28.965 7.14209 28.8728 7.24102 28.8008 7.35691C28.6942 7.53216 28.7345 7.57456 28.9218 7.48411C29.0601 7.41627 29.1912 7.34419 29.3151 7.26788ZM38.6548 1.51174C38.6453 1.50069 38.6336 1.4916 38.6205 1.48498C38.6074 1.47836 38.5931 1.47434 38.5783 1.47315C38.5636 1.47196 38.5488 1.47362 38.5348 1.47805C38.5207 1.48247 38.5077 1.48957 38.4964 1.49893L31.4032 7.40033C31.3805 7.41924 31.3663 7.44623 31.3639 7.47536C31.3614 7.50449 31.3709 7.53338 31.3902 7.55567L31.5579 7.74969C31.5674 7.76073 31.5791 7.76983 31.5922 7.77645C31.6053 7.78307 31.6196 7.78709 31.6344 7.78828C31.6491 7.78947 31.6639 7.7878 31.6779 7.78338C31.692 7.77895 31.705 7.77186 31.7163 7.76249L38.8095 1.8611C38.8322 1.84219 38.8464 1.8152 38.8488 1.78607C38.8513 1.75694 38.8418 1.72805 38.8225 1.70575L38.6548 1.51174ZM3.91563 5.16917L8.42763 2.11651C8.44266 2.10549 8.45282 2.08925 8.45604 2.07112C8.45925 2.05299 8.45527 2.03434 8.44492 2.01899L8.4406 2.01051C8.39703 1.94865 8.29505 1.92721 8.14048 1.94743C7.98592 1.96765 7.7818 2.02913 7.53978 2.12835C7.29777 2.22757 7.0226 2.36259 6.73001 2.5257C6.43741 2.6888 6.13313 2.8768 5.83453 3.07894L5.74809 3.13406C5.44937 3.33626 5.16218 3.54866 4.90295 3.75913C4.64372 3.96959 4.41753 4.17399 4.23731 4.36063C4.05709 4.54728 3.92637 4.71251 3.85264 4.84688C3.7789 4.98125 3.76359 5.08212 3.80759 5.14373L3.81191 5.15221C3.81751 5.1601 3.82466 5.16681 3.83294 5.17195C3.84122 5.17708 3.85046 5.18055 3.86013 5.18213C3.86979 5.18371 3.87968 5.18337 3.88921 5.18115C3.89875 5.17892 3.90773 5.17485 3.91563 5.16917ZM41.2045 2.5956C41.0057 2.39775 40.7651 2.28044 40.4827 2.2437C40.4337 2.23805 40.3891 2.24935 40.3487 2.27762L31.9384 8.39991C31.78 8.51579 31.695 8.67125 31.6835 8.86628L31.6618 9.23939C31.6503 9.42594 31.7166 9.45986 31.8606 9.34114C34.0302 7.57738 37.1419 5.3642 41.1958 2.7016C41.2448 2.67051 41.2477 2.63518 41.2045 2.5956ZM37.4618 7.14916C35.5976 8.62462 33.9222 9.98701 32.4355 11.2363C32.2511 11.389 32.2395 11.5543 32.4009 11.7324L32.4916 11.8342C32.524 11.8721 32.5705 11.896 32.6213 11.9008C32.6721 11.9055 32.7233 11.8908 32.7639 11.8596C34.3241 10.6724 35.8583 9.5489 37.384 8.22183C39.0551 6.76617 40.8097 5.32887 42.648 3.90995C42.6757 3.8881 42.6985 3.86069 42.7146 3.82955C42.7308 3.79841 42.74 3.76425 42.7416 3.72935C42.7432 3.69445 42.7373 3.6596 42.7241 3.62714C42.7109 3.59468 42.6909 3.56534 42.6652 3.54108L42.4059 3.29517C42.2763 3.16798 42.1452 3.16656 42.0126 3.29093C40.6239 4.56005 39.1069 5.84613 37.4618 7.14916ZM43.0369 4.25761C40.3315 7.20004 37.4661 10.0153 34.4538 12.6567C34.2521 12.8347 34.2823 12.9563 34.5445 13.0213L34.8903 13.1061C35.1092 13.1598 35.3008 13.1103 35.4651 12.9577C37.9458 10.6626 40.3401 8.38577 42.648 6.12737C42.9851 5.8009 43.5296 5.54651 43.8538 5.16493C43.9834 5.0123 43.982 4.86249 43.8494 4.71551L43.4389 4.26185C43.3063 4.11487 43.1723 4.11346 43.0369 4.25761ZM44.8132 6.58527C44.9025 6.56831 44.989 6.57537 45.0725 6.60646C45.2627 6.67713 45.3059 6.62766 45.2022 6.45807C45.1359 6.35066 45.0495 6.27435 44.9429 6.22912C44.8046 6.16976 44.6778 6.18672 44.5625 6.28L36.1349 12.9577C35.6797 13.3195 35.7373 13.4354 36.3078 13.3054C36.6709 13.2234 37.0339 13.1683 37.3969 13.14C37.5583 13.1259 37.6937 13.0623 37.8032 12.9492C39.9468 10.7389 42.2057 8.65429 44.5798 6.6955C44.649 6.63897 44.7268 6.60223 44.8132 6.58527ZM38.123 14.4628C38.1211 14.4778 38.124 14.4929 38.1314 14.5062C38.1387 14.5194 38.1501 14.53 38.164 14.5366C38.1778 14.5431 38.1934 14.5453 38.2085 14.5427C38.2236 14.5401 38.2376 14.5329 38.2483 14.5222C40.5821 12.3768 42.9793 10.2442 45.4399 8.12432C45.6358 7.95755 45.7352 7.74556 45.7381 7.48835C45.7381 7.31875 45.6732 7.28908 45.5436 7.39931C43.6247 9.02174 41.6583 10.5566 39.6443 12.0037C39.0882 12.4023 38.571 12.8475 38.0927 13.3393C38.0149 13.4213 37.9948 13.5145 38.0322 13.6191C38.1273 13.8792 38.1576 14.1604 38.123 14.4628ZM1.31388 28.9291C1.27931 28.8895 1.28075 28.8542 1.31821 28.8231C4.52933 25.9951 7.48547 23.1502 10.7874 20.4876C15.599 16.6039 20.3948 12.7471 25.1748 8.91716C25.3073 8.80975 25.3779 8.6331 25.3865 8.38719C25.3952 8.23738 25.3376 8.20629 25.2137 8.29391C24.721 8.66136 24.2297 9.03164 23.7399 9.40474C20.5273 11.8723 16.6449 14.9801 12.0926 18.7281C9.74579 20.6614 7.12676 22.599 4.90965 24.6341C3.82631 25.6263 2.59891 26.6933 1.22745 27.8352C1.20153 27.8567 1.18045 27.8829 1.16557 27.9121C1.15069 27.9412 1.14233 27.9728 1.14101 28.0048L1.0589 30.7098C1.05601 30.7324 1.06322 30.7352 1.0805 30.7183C2.76314 29.0252 4.1346 27.7236 5.1949 26.8134C11.0928 21.7624 17.6144 16.7693 24.7599 11.8342C25.0566 11.6278 25.205 11.3466 25.205 10.9904V10.6173C25.205 10.2725 25.0696 10.2089 24.7988 10.4265C20.6642 13.7279 16.4907 16.9926 12.2784 20.2205C10.4949 21.5885 8.71287 23.0301 6.93228 24.5451C5.17761 26.0403 3.4287 27.5384 1.68556 29.0393C1.64566 29.0747 1.59276 29.0928 1.53847 29.0897C1.48418 29.0865 1.43294 29.0623 1.396 29.0223L1.31388 28.9291ZM31.2426 17.1212C31.2976 17.0669 31.3631 17.0238 31.4352 16.9946C31.5074 16.9653 31.5847 16.9505 31.6628 16.9509C31.7408 16.9513 31.818 16.9669 31.8898 16.9969C31.9616 17.0268 32.0266 17.0705 32.0811 17.1254C32.8532 17.9056 34.5186 18.4483 37.0771 18.7535C37.152 18.762 37.188 18.7281 37.1852 18.6518L37.0166 14.7511C37.0137 14.689 36.9806 14.6565 36.9172 14.6536C34.9234 14.5886 33.3531 14.0177 32.2064 12.9407C31.0568 11.8554 30.6073 10.3234 30.858 8.34479C30.8602 8.33093 30.859 8.31675 30.8546 8.30342C30.8502 8.29008 30.8426 8.27795 30.8325 8.26804C30.8224 8.25812 30.81 8.25068 30.7964 8.24634C30.7828 8.24199 30.7684 8.24086 30.7543 8.24303L26.6658 8.77301C26.6344 8.77784 26.6057 8.79312 26.5844 8.81628C26.5632 8.83945 26.5507 8.86908 26.5491 8.9002C26.4627 10.5424 26.4612 12.1719 26.5448 13.7887C26.7782 18.1727 26.6183 22.6499 26.7263 26.9703C26.7465 27.7363 26.6759 28.5461 26.5145 29.3997C26.0953 31.6553 25.2353 33.8006 23.1046 34.9199C22.4073 35.2874 21.6208 35.3807 20.7449 35.1998C18.6401 34.7588 17.3522 33.6989 16.1248 32.0326C15.4189 31.0716 15.0789 29.9777 15.1049 28.751C15.1711 25.8312 16.7299 23.9741 19.7811 23.1799C19.9511 23.1375 20.0318 23.0301 20.0231 22.8577C19.9626 21.8147 19.7854 20.8395 19.4915 19.9322C19.4512 19.8107 19.3691 19.7697 19.2452 19.8092C17.917 20.2304 16.7745 20.7349 15.818 21.3229C13.6225 22.6739 12.094 24.4646 11.2325 26.6947C10.2759 29.1594 10.6102 31.88 12.2352 34.8563C12.8402 35.9672 13.7233 36.8278 14.8845 37.4384C17.976 39.0636 21.0171 39.3972 24.0079 38.439C28.1698 37.1034 29.2805 34.3603 30.1449 30.608C31.0698 26.6099 30.9098 22.6202 30.8321 18.1812C30.8234 17.7543 30.9603 17.401 31.2426 17.1212ZM46.4296 9.97712L46.0709 8.31935C46.0593 8.26565 46.0348 8.25858 45.9974 8.29815L38.3132 16.2732C38.2899 16.2971 38.2754 16.3278 38.2723 16.3602C38.2691 16.3926 38.2775 16.4248 38.2959 16.4513L38.365 16.5531C38.3823 16.5789 38.4052 16.6007 38.432 16.617C38.4588 16.6332 38.4889 16.6435 38.5202 16.6472C38.5515 16.6508 38.5832 16.6477 38.6131 16.638C38.6431 16.6283 38.6705 16.6124 38.6935 16.5912C41.1512 14.2876 43.7097 12.1394 46.3691 10.1467C46.4267 10.1043 46.4469 10.0478 46.4296 9.97712ZM33.6715 9.17579C33.8674 9.09382 34.0043 8.95815 34.0821 8.76877C34.1627 8.57939 34.121 8.54689 33.9567 8.67125C33.7406 8.83519 33.575 9.0274 33.4597 9.24787C33.3618 9.44007 33.3992 9.46975 33.5721 9.3369C33.6268 9.29451 33.66 9.2408 33.6715 9.17579ZM46.7969 11.5289C46.7191 11.2971 46.6846 11.0682 46.6932 10.842C46.7018 10.5198 46.5909 10.4732 46.3604 10.7021L38.4471 18.5458C38.4032 18.5905 38.3726 18.6459 38.3589 18.7058C38.3451 18.7657 38.3488 18.8277 38.3693 18.885L38.4169 19.0206C38.425 19.0436 38.439 19.0642 38.4575 19.0804C38.4759 19.0967 38.4982 19.1081 38.5224 19.1136C38.5466 19.1191 38.5718 19.1185 38.5956 19.1119C38.6195 19.1053 38.6413 19.0929 38.6589 19.0758C41.059 16.7693 43.3726 14.5095 45.5998 12.2963C45.8994 11.9967 46.2553 11.813 46.6673 11.7451C46.6912 11.7409 46.7139 11.7317 46.7338 11.718C46.7537 11.7044 46.7704 11.6867 46.7827 11.6662C46.795 11.6457 46.8027 11.6228 46.8051 11.5991C46.8076 11.5754 46.8048 11.5514 46.7969 11.5289ZM25.0408 12.1649C22.1452 14.6098 19.3201 16.9587 16.5657 19.2114C16.4014 19.3471 16.2747 19.511 16.1853 19.7032C16.096 19.8954 16.1392 19.9294 16.315 19.805C16.8163 19.4573 17.322 19.4404 17.8103 19.0037C20.0289 17.0336 22.3627 15.1624 24.8117 13.3902C25.0076 13.2488 25.1301 13.0609 25.1791 12.8263L25.2828 12.3005C25.3375 12.0264 25.2569 11.9811 25.0408 12.1649ZM31.9514 27.9115C36.8005 23.5869 41.896 18.7578 46.6975 14.0177C46.9395 13.7802 46.9612 13.5131 47.0087 13.1994C47.0548 12.8828 46.9626 12.8376 46.7321 13.0637C41.955 17.7614 37.0584 22.3136 32.0422 26.7201C31.9586 26.7936 31.9154 26.8869 31.9125 27C31.9039 27.2515 31.8477 27.5073 31.744 27.7674C31.6057 28.1094 31.6748 28.1574 31.9514 27.9115ZM24.6475 14.6451C24.9212 14.4925 25.1676 14.2593 25.3865 13.9456C25.3981 13.9314 25.3966 13.9187 25.3822 13.9074L25.2569 13.7675C25.2374 13.7459 25.2098 13.733 25.1799 13.7314C25.15 13.7298 25.1203 13.7397 25.097 13.759C23.325 15.2345 21.6481 16.7749 20.0663 18.3804C19.9828 18.4652 19.941 18.5684 19.941 18.6899C19.941 18.7578 19.9554 18.8199 19.9842 18.8765C20.0059 18.9215 20.0388 18.9605 20.0799 18.9898C20.121 19.0191 20.1689 19.0378 20.2193 19.0441C20.2697 19.0504 20.3209 19.0442 20.3682 19.026C20.4155 19.0079 20.4573 18.9783 20.4899 18.9401C21.6942 17.5522 22.8309 16.3114 23.8998 15.2175C24.1246 14.9886 24.3738 14.7978 24.6475 14.6451ZM31.839 30.4808C31.6662 30.5374 31.5091 30.6193 31.368 30.7268C31.2986 30.78 31.2415 30.8465 31.2006 30.9218C31.1596 30.9971 31.1356 31.0794 31.1303 31.1635C31.0928 31.7372 30.907 32.2884 30.5727 32.817C30.5555 32.8452 30.5612 32.8664 30.59 32.8806L30.7067 32.9357C30.7449 32.9549 30.7885 32.9611 30.8308 32.9535C30.873 32.9458 30.9114 32.9246 30.9401 32.8933C32.7322 30.8384 34.5517 28.8146 36.3986 26.8219C38.038 25.0581 39.7869 23.1559 41.6453 21.1151C43.4 19.1874 45.2079 17.3261 47.0692 15.5313C47.1182 15.486 47.1412 15.4295 47.1383 15.3617L47.0865 14.4586C47.0857 14.4486 47.082 14.439 47.0757 14.4311C47.0694 14.4232 47.0609 14.4173 47.0512 14.4141C47.0415 14.411 47.031 14.4107 47.0212 14.4133C47.0113 14.4159 47.0025 14.4214 46.9957 14.4289C45.9498 15.6585 44.914 16.8922 43.8883 18.1303C42.8295 19.4065 41.5891 20.4494 40.5086 21.6875C37.8983 24.6681 34.994 27.4112 32.215 30.2477C32.1128 30.3534 31.9837 30.4335 31.839 30.4808ZM25.2102 15.951C25.1851 15.9214 25.1544 15.8971 25.1197 15.8792C25.085 15.8613 25.0471 15.8504 25.0081 15.8469C24.9691 15.8434 24.9298 15.8475 24.8924 15.8589C24.855 15.8703 24.8203 15.8889 24.7902 15.9134L20.5334 19.3927C20.5034 19.4173 20.4785 19.4475 20.4603 19.4815C20.4421 19.5155 20.4309 19.5527 20.4274 19.591C20.4238 19.6292 20.428 19.6678 20.4396 19.7045C20.4513 19.7412 20.4702 19.7752 20.4952 19.8047L20.5063 19.8178C20.5314 19.8473 20.5621 19.8717 20.5968 19.8895C20.6315 19.9074 20.6694 19.9184 20.7084 19.9219C20.7474 19.9253 20.7867 19.9213 20.8241 19.9098C20.8615 19.8984 20.8962 19.8799 20.9263 19.8553L25.1831 16.376C25.2131 16.3514 25.238 16.3212 25.2562 16.2872C25.2744 16.2532 25.2856 16.216 25.2891 16.1778C25.2927 16.1395 25.2885 16.1009 25.2769 16.0642C25.2652 16.0276 25.2463 15.9935 25.2213 15.964L25.2102 15.951ZM21.0647 21.4076C21.041 21.4326 21.0246 21.4634 21.0172 21.4967L20.9307 21.9207C20.9231 21.9612 20.9291 22.003 20.9477 22.0399C20.9664 22.0767 20.9967 22.1067 21.0341 22.1253C21.0716 22.1439 21.1141 22.1502 21.1555 22.1431C21.1968 22.136 21.2347 22.116 21.2635 22.086L25.1099 18.143C25.1359 18.1173 25.1539 18.085 25.1618 18.0497L25.2958 17.401C25.3047 17.3602 25.2996 17.3176 25.2815 17.2798C25.2633 17.242 25.233 17.2111 25.1952 17.1919C25.1574 17.1726 25.1143 17.1661 25.0723 17.1732C25.0304 17.1803 24.9919 17.2008 24.963 17.2314L21.0647 21.4076ZM31.8693 33.4445C34.5488 30.9006 37.0469 27.9836 39.9209 25.4609C42.3152 23.3537 44.5064 21.1151 46.8531 18.9274C46.9406 18.8443 47.0102 18.7448 47.0577 18.6348C47.1053 18.5248 47.1297 18.4066 47.1297 18.2871L47.1254 17.9437C47.1225 17.6837 47.0274 17.6455 46.8401 17.8292C41.3514 23.2816 36.1133 28.351 31.1259 33.0374C30.5439 33.5858 30.1492 34.2712 29.9417 35.0938C29.8899 35.3001 29.9432 35.3312 30.1017 35.187C30.724 34.6401 31.2642 34.0211 31.8693 33.4445ZM32.349 19.398C32.5075 19.2482 32.6357 19.0772 32.7337 18.885C32.823 18.7069 32.7682 18.6221 32.5694 18.6306L32.215 18.6433C32.0623 18.6489 31.9889 18.7267 31.9946 18.8765L32.0119 19.2665C32.0136 19.3041 32.0263 19.3404 32.0485 19.3711C32.0707 19.4017 32.1015 19.4254 32.1371 19.4393C32.1727 19.4532 32.2117 19.4567 32.2493 19.4493C32.2869 19.442 32.3215 19.4242 32.349 19.398ZM33.5202 19.1054C33.3877 19.0687 33.2739 19.1012 33.1788 19.2029C32.7437 19.6665 32.4513 20.0198 32.3015 20.2629C31.7396 21.1702 31.8952 21.3101 32.7682 20.6826C33.3243 20.2869 33.8876 19.7923 34.4581 19.1987C34.5359 19.1167 34.5186 19.0899 34.4062 19.1181C34.1094 19.1916 33.8141 19.1874 33.5202 19.1054ZM33.0794 22.0267L36.0744 19.5888C36.0875 19.578 36.0958 19.5627 36.0974 19.546C36.099 19.5293 36.0939 19.5127 36.0831 19.4997L36.0744 19.4955C35.9717 19.3732 35.7141 19.3853 35.3583 19.5292C35.0025 19.6731 34.5776 19.937 34.1772 20.2629L34.1037 20.3223C33.9049 20.4841 33.7181 20.6564 33.5542 20.8292C33.3902 21.0019 33.2523 21.1717 33.1483 21.3289C33.0443 21.4861 32.9763 21.6275 32.9481 21.7451C32.92 21.8626 32.9323 21.954 32.9843 22.0139L32.9886 22.0182C32.9996 22.031 33.0153 22.0391 33.0323 22.0407C33.0492 22.0423 33.0662 22.0373 33.0794 22.0267ZM23.7572 45.4516C27.6252 41.2966 31.3204 37.2221 35.3138 33.224C36.812 31.7259 38.3204 30.1459 39.8388 28.4839C41.821 26.3188 44.005 24.0773 46.3907 21.7596C46.9957 21.1702 47.0951 20.4961 47.0822 19.716C47.0793 19.4898 47.0044 19.4644 46.8574 19.6396C45.2929 21.5052 43.7371 23.43 42.017 25.126C39.8561 27.2501 37.8723 29.582 35.8022 31.7231C32.6688 34.9666 29.596 38.1888 26.3157 41.4238C24.6417 43.0773 22.9778 44.858 21.324 46.766C21.2001 46.9073 21.2332 46.9723 21.4234 46.961L23.1565 46.8423C23.193 46.8395 23.2286 46.8291 23.2606 46.8116C23.2927 46.7942 23.3206 46.7701 23.3423 46.7412C23.3641 46.7122 23.3792 46.6789 23.3866 46.6437C23.3941 46.6085 23.3937 46.5721 23.3855 46.537C23.2861 46.1173 23.4676 45.7611 23.7572 45.4516ZM32.1718 25.7831L37.6346 20.1527C37.8334 19.9492 37.7888 19.8389 37.5006 19.822L37.116 19.8008C36.9945 19.7942 36.8731 19.8122 36.7593 19.8538C36.6455 19.8954 36.5418 19.9596 36.4548 20.0424C35.308 21.1476 34.2074 22.3249 33.1529 23.5742C32.9253 23.8455 32.653 24.0604 32.336 24.2186C32.1056 24.3345 31.9845 24.5197 31.973 24.7741L31.9298 25.6814C31.9183 25.9273 31.9989 25.9612 32.1718 25.7831ZM21.203 23.4173C21.1295 24.2865 20.1917 24.2356 19.6428 24.7401C18.3981 25.8849 17.2874 27.1399 16.3107 28.5051C16.109 28.7849 16.1608 28.8414 16.4663 28.6747C16.7083 28.5418 16.9301 28.3737 17.1318 28.1701C19.5996 25.7068 22.3742 23.5742 25.0019 21.2423C25.1661 21.0953 25.2439 20.913 25.2353 20.6954L25.205 20.0297C25.1935 19.8347 25.1128 19.8022 24.963 19.9322L21.4018 23.0273C21.2808 23.1318 21.2145 23.2619 21.203 23.4173ZM31.6705 23.1502C31.7223 23.153 31.7512 23.129 31.7569 23.0781C31.7944 22.705 31.8333 22.3305 31.8736 21.9546C31.8794 21.8924 31.8549 21.8387 31.8001 21.7935C31.7022 21.7087 31.6561 21.7299 31.6618 21.8571C31.6705 22.2669 31.6431 22.6598 31.5797 23.0357C31.5711 23.1036 31.6013 23.1403 31.6705 23.146V23.1502ZM24.9284 21.997C23.6794 23.218 22.7243 24.5875 21.4709 25.7959C20.1283 27.0932 18.9311 28.3737 17.8795 29.6371C17.6375 29.9283 17.3378 30.1826 16.9806 30.4003C16.5829 30.6434 16.6118 30.8186 17.067 30.926C17.2514 30.9684 17.407 30.9204 17.5337 30.7819C20.1672 27.9242 22.6652 25.3266 25.0278 22.9891C25.1287 22.8873 25.1863 22.7658 25.2007 22.6245L25.2526 22.1496C25.29 21.8019 25.182 21.7511 24.9284 21.997ZM46.9266 22.0987C46.7249 22.1694 46.5463 22.3051 46.3907 22.5058C43.23 26.5873 39.8777 30.5784 36.3338 34.479C35.1928 35.7382 33.9567 36.9169 32.8244 38.2015C30.2659 41.1016 27.5345 43.8829 24.9371 46.7405C24.8996 46.7829 24.9097 46.7999 24.9673 46.7914L26.3935 46.6091C26.4742 46.5978 26.5405 46.5596 26.5923 46.4946C29.6003 42.5403 32.0422 39.5653 33.9178 37.5698C37.8882 33.347 42.1193 28.9305 46.6111 24.3204C46.6812 24.2515 46.7254 24.1634 46.7364 24.0702L46.9741 22.1369C46.977 22.1001 46.9612 22.0874 46.9266 22.0987ZM10.8651 24.0024C7.50564 26.7215 4.33197 29.5905 1.34414 32.6092C1.09779 32.8551 1.06322 33.0629 1.02432 33.3936C0.995509 33.6254 1.07186 33.6649 1.25338 33.5123C2.71704 32.2799 4.12884 31.0179 5.48878 29.7262C6.74211 28.539 8.14671 27.5935 9.46055 26.3979C10.2212 25.7111 10.5626 24.8419 11.0942 24.0279C11.1173 23.9911 11.1245 23.9501 11.1158 23.9049C11.1158 23.8908 11.1144 23.8766 11.1115 23.8625C11.1086 23.8116 11.0884 23.8031 11.051 23.8371C10.9934 23.8936 10.9314 23.9487 10.8651 24.0024ZM18.2944 32.3845L25.3779 24.3034C25.387 24.2934 25.394 24.2818 25.3985 24.2691C25.403 24.2564 25.4049 24.243 25.4041 24.2296C25.4033 24.2162 25.3998 24.2031 25.3939 24.191C25.3879 24.179 25.3795 24.1682 25.3692 24.1593L25.326 24.1211C25.284 24.0858 25.2395 24.0541 25.1952 24.0279C25.1508 24.0017 25.1075 23.9815 25.0677 23.9685C25.0279 23.9554 24.9925 23.9499 24.9634 23.9521C24.9343 23.9543 24.9121 23.9642 24.8982 23.9812L17.8968 31.9648C17.8821 31.9811 17.8758 32.0043 17.8783 32.033C17.8807 32.0617 17.8919 32.0953 17.9112 32.1319C17.9305 32.1686 17.9575 32.2075 17.9906 32.2465C18.0237 32.2855 18.0623 32.3237 18.1042 32.3591L18.1474 32.393C18.1576 32.4019 18.1695 32.4088 18.1825 32.4133C18.1954 32.4177 18.2091 32.4195 18.2227 32.4188C18.2364 32.418 18.2497 32.4145 18.262 32.4087C18.2743 32.4028 18.2853 32.3946 18.2944 32.3845ZM8.62242 24.8135C8.61398 24.8045 8.5931 24.8068 8.56097 24.8204C8.52884 24.8339 8.48608 24.8584 8.43514 24.8924C8.3842 24.9265 8.32607 24.9694 8.26408 25.0188C8.20209 25.0681 8.13745 25.123 8.07385 25.1801C7.94541 25.2956 7.82899 25.4136 7.75021 25.5081C7.67142 25.6027 7.63671 25.666 7.65372 25.6843C7.66215 25.6933 7.68304 25.691 7.71517 25.6775C7.7473 25.6639 7.79006 25.6395 7.841 25.6054C7.89194 25.5714 7.95006 25.5284 8.01205 25.4791C8.07404 25.4297 8.13869 25.3749 8.20229 25.3177C8.33073 25.2022 8.44715 25.0843 8.52593 24.9897C8.60472 24.8952 8.63943 24.8318 8.62242 24.8135ZM34.1166 27.3434C33.4943 27.9822 32.9022 28.5856 32.3404 29.1538C32.3087 29.1849 32.3101 29.216 32.3447 29.2471V29.2513C32.3879 29.2909 32.4297 29.2895 32.47 29.2471C33.7896 27.8988 35.1107 26.5435 36.4332 25.1811C36.4648 25.1472 36.4648 25.1132 36.4332 25.0793C36.3842 25.0284 36.3352 25.027 36.2862 25.0751C35.9923 25.3719 35.6826 25.6743 35.357 25.9824C35.1957 26.1379 35.0084 26.2156 34.7952 26.2156C34.7203 26.2156 34.677 26.2523 34.6655 26.3258C34.6021 26.6933 34.4192 27.0325 34.1166 27.3434ZM17.1691 26.2943C17.1775 26.3026 17.1988 26.2981 17.2319 26.2812C17.2649 26.2642 17.309 26.2351 17.3616 26.1955C17.4143 26.1558 17.4744 26.1065 17.5387 26.0502C17.6029 25.9939 17.67 25.9318 17.736 25.8675C17.8021 25.8032 17.8658 25.7378 17.9236 25.6752C17.9814 25.6126 18.0321 25.5539 18.0729 25.5025C18.1137 25.4512 18.1437 25.4081 18.1612 25.3758C18.1787 25.3436 18.1834 25.3227 18.175 25.3144C18.1666 25.3061 18.1453 25.3105 18.1122 25.3275C18.0792 25.3444 18.0351 25.3736 17.9825 25.4132C17.9298 25.4528 17.8697 25.5022 17.8054 25.5585C17.7412 25.6147 17.6741 25.6768 17.6081 25.7412C17.542 25.8055 17.4783 25.8708 17.4205 25.9335C17.3627 25.9961 17.3119 26.0548 17.2712 26.1061C17.2304 26.1575 17.2004 26.2005 17.1829 26.2328C17.1654 26.2651 17.1607 26.286 17.1691 26.2943ZM25.4643 26.7583C25.4817 26.7406 25.4941 26.7188 25.5001 26.695C25.5062 26.6712 25.5058 26.6462 25.4989 26.6226L25.3606 26.1774C25.3536 26.1542 25.3406 26.1331 25.3227 26.1162C25.3049 26.0994 25.283 26.0874 25.259 26.0814C25.235 26.0754 25.2098 26.0756 25.186 26.0821C25.1621 26.0885 25.1404 26.1009 25.1229 26.1181L18.4716 32.6855C18.4549 32.7019 18.4425 32.7221 18.4357 32.7442C18.4289 32.7664 18.4278 32.7899 18.4325 32.8126C18.4372 32.8353 18.4476 32.8565 18.4627 32.8743C18.4778 32.892 18.4972 32.9059 18.5191 32.9145L19.1804 33.1731C19.2068 33.1833 19.2357 33.1855 19.2634 33.1795C19.2912 33.1734 19.3164 33.1594 19.336 33.1392L25.4643 26.7583ZM19.7778 26.5719C19.7686 26.5628 19.7227 26.5897 19.6427 26.651C19.5627 26.7122 19.4502 26.8067 19.3116 26.929C19.1729 27.0513 19.0109 27.199 18.8347 27.3637C18.6586 27.5284 18.4717 27.7069 18.2848 27.889C18.098 28.071 17.9147 28.2531 17.7456 28.4247C17.5765 28.5964 17.4248 28.7543 17.2991 28.8895C17.1735 29.0246 17.0764 29.1344 17.0134 29.2124C16.9504 29.2905 16.9228 29.3353 16.932 29.3444C16.9412 29.3535 16.9871 29.3266 17.0671 29.2654C17.1471 29.2041 17.2596 29.1096 17.3982 28.9873C17.5369 28.865 17.6989 28.7173 17.8751 28.5526C18.0512 28.3879 18.2381 28.2094 18.425 28.0273C18.6118 27.8453 18.7951 27.6632 18.9642 27.4916C19.1333 27.3199 19.285 27.162 19.4106 27.0268C19.5363 26.8917 19.6334 26.782 19.6964 26.7039C19.7594 26.6259 19.787 26.581 19.7778 26.5719ZM16.1075 27.6741C16.2747 27.4508 16.3856 27.1908 16.4403 26.894C16.4807 26.682 16.4317 26.6594 16.2934 26.8261C16.0715 27.1003 15.9692 27.4338 15.9865 27.8267C15.9894 27.9059 16.0197 27.9158 16.0773 27.8564C16.1263 27.8027 16.1364 27.7419 16.1075 27.6741ZM1.00703 35.7848C0.992627 35.7962 0.979662 35.8089 0.968137 35.823C0.873057 35.9728 0.90475 36.0053 1.06322 35.9205C1.46083 35.7085 1.80081 35.464 2.08317 35.187C4.58696 32.7279 7.03024 30.2957 9.41301 27.8903C9.58588 27.7179 9.68529 27.5186 9.71122 27.2925C9.75732 26.8742 9.63198 26.8148 9.33522 27.1144C6.8516 29.6103 4.15765 32.3124 1.25338 35.221C1.1583 35.3171 1.10644 35.4527 1.09779 35.628C1.09491 35.693 1.06466 35.7453 1.00703 35.7848ZM35.9405 39.4904C37.7124 37.4299 41.373 34.2246 44.0396 31.2482C44.8665 30.324 45.6848 29.4534 46.4944 28.6365C46.7422 28.3878 46.856 28.0882 46.8358 27.7377C46.8243 27.5483 46.8041 27.3603 46.7753 27.1738C46.7148 26.8092 46.5607 26.7654 46.3129 27.0424C44.3075 29.2725 42.4736 31.1719 40.8112 32.7407C35.9505 37.3225 31.4011 41.9312 27.1628 46.5667C26.9813 46.7674 27.0231 46.8366 27.2881 46.7744C27.9595 46.619 28.6769 46.5836 29.4404 46.6684C29.5345 46.6788 29.6294 46.6627 29.7137 46.6221C29.7981 46.5815 29.8682 46.5181 29.9158 46.4395C30.1607 46.0381 30.4416 45.6664 30.7586 45.3244C32.5219 43.4109 34.2492 41.4662 35.9405 39.4904ZM5.18111 27.7385C5.17269 27.7302 5.11977 27.7658 5.02537 27.8431C4.93097 27.9204 4.79694 28.038 4.63093 28.1892C4.46492 28.3404 4.27018 28.5221 4.05783 28.7241C3.84549 28.9261 3.61969 29.1444 3.39334 29.3664C3.16698 29.5885 2.94451 29.81 2.73861 30.0183C2.53272 30.2266 2.34743 30.4177 2.19334 30.5805C2.03925 30.7434 1.91937 30.8749 1.84054 30.9675C1.76171 31.0601 1.72548 31.112 1.73392 31.1202C1.74234 31.1285 1.79526 31.093 1.88966 31.0157C1.98406 30.9383 2.11809 30.8207 2.2841 30.6696C2.45011 30.5184 2.64485 30.3366 2.8572 30.1346C3.06955 29.9326 3.29534 29.7144 3.5217 29.4923C3.74805 29.2703 3.97052 29.0488 4.17642 28.8404C4.38232 28.6321 4.5676 28.4411 4.72169 28.2782C4.87578 28.1154 4.99567 27.9839 5.07449 27.8913C5.15332 27.7987 5.18955 27.7467 5.18111 27.7385ZM25.339 28.0514C25.3534 27.9808 25.3793 27.9186 25.4168 27.8649C25.5522 27.6783 25.509 27.6204 25.2871 27.691C25.192 27.7193 25.1143 27.7716 25.0537 27.8479C23.5152 29.7926 21.9752 31.7344 20.4337 33.6734C20.4168 33.694 20.4045 33.7178 20.3977 33.7434C20.3909 33.769 20.3897 33.7957 20.3942 33.8217C20.3987 33.8478 20.4088 33.8726 20.4238 33.8945C20.4388 33.9165 20.4584 33.9351 20.4812 33.949L20.585 34.0126C20.6093 34.027 20.6379 34.0327 20.6655 34.0289C20.6932 34.025 20.7182 34.0117 20.7362 33.9914C22.0933 32.5951 23.3927 31.2906 24.6345 30.0781C25.0033 29.7191 25.2338 29.0789 25.326 28.1574C25.3289 28.1235 25.3332 28.0882 25.339 28.0514ZM33.4035 46.2233C33.5591 45.771 33.7939 45.3696 34.108 45.0192C38.4126 40.2197 42.452 35.5757 46.2264 31.0871C46.65 30.584 46.7955 30.0173 46.6629 29.387C46.6255 29.2089 46.552 29.1919 46.4425 29.3361C45.6329 30.3819 44.8175 31.439 43.9964 32.5075C41.4767 35.7891 38.4428 38.6298 35.8281 41.8435C34.6381 43.3105 33.3286 44.8015 31.8995 46.3165C31.8792 46.3388 31.866 46.3665 31.8615 46.396C31.8571 46.4256 31.8616 46.4558 31.8744 46.4829C31.8873 46.51 31.9081 46.5328 31.934 46.5484C31.96 46.5641 31.9901 46.5719 32.0206 46.5709L33.0016 46.52C33.2062 46.5116 33.3402 46.4126 33.4035 46.2233ZM1.08915 37.0907C1.00847 37.1585 0.992627 37.2377 1.04161 37.3281C1.04547 37.3344 1.05069 37.3398 1.05688 37.344C1.06308 37.3481 1.07012 37.3509 1.07752 37.3521C1.08491 37.3533 1.09248 37.3529 1.09971 37.351C1.10695 37.349 1.11366 37.3456 1.1194 37.3409L9.292 30.0229C9.38382 29.941 9.44088 29.829 9.45191 29.7092L9.47784 29.4463C9.48111 29.4177 9.47539 29.3888 9.4614 29.3636C9.44741 29.3383 9.4258 29.3178 9.39933 29.3046C9.37287 29.2914 9.34275 29.2861 9.31285 29.2894C9.28294 29.2928 9.25462 29.3046 9.23149 29.3234C6.91211 31.2878 4.64746 33.3554 2.43756 35.5262C1.99241 35.9672 1.19287 36.247 1.16262 36.9381C1.16124 36.9677 1.15402 36.9965 1.14139 37.0227C1.12876 37.049 1.11099 37.0721 1.08915 37.0907ZM24.2715 39.783C23.5944 39.619 23.0138 39.7985 22.5298 40.3214C20.5936 42.4159 18.6301 44.557 16.6391 46.7448C16.6246 46.7615 16.6141 46.7813 16.6084 46.8025C16.6026 46.8236 16.6018 46.8457 16.606 46.867C16.6101 46.8883 16.6192 46.9082 16.6324 46.9252C16.6457 46.9422 16.6627 46.9559 16.6823 46.9652C16.8466 47.0415 17.005 46.9949 17.1577 46.8253C19.3071 44.4086 21.7346 42.1177 24.44 39.9526L18.1777 46.554C18.1475 46.5858 18.1266 46.6251 18.1172 46.6677C18.1079 46.7103 18.1104 46.7545 18.1246 46.7958C18.1387 46.837 18.164 46.8738 18.1977 46.9021C18.2314 46.9304 18.2723 46.9493 18.316 46.9568C18.9672 47.0726 19.712 47.05 20.5504 46.8889C20.7406 46.8522 20.7852 46.7532 20.6844 46.5921C20.549 46.3688 20.5979 46.1936 20.8313 46.0664C21.0013 45.9731 21.1526 45.8601 21.2851 45.7272C22.5212 44.4779 23.7874 43.2186 25.084 41.9495C25.2367 41.8026 25.4038 41.6725 25.5853 41.5595C25.7784 41.4408 25.9368 41.2895 26.0607 41.1058C26.2394 40.8345 26.4497 40.59 26.6917 40.3723C27.729 39.4396 28.7043 38.4164 29.6176 37.3027C30.4589 36.2795 31.4112 35.2506 32.4743 34.2161C33.7795 32.9555 35.0819 31.6652 36.3813 30.3452C36.3899 30.3339 36.3899 30.324 36.3813 30.3155L36.3035 30.2392C36.2826 30.2184 36.2545 30.2063 36.2253 30.2055C36.1962 30.2047 36.1683 30.2153 36.1479 30.2349C34.3961 31.8772 32.6703 33.5491 30.9703 35.2506C30.3883 35.8357 29.8207 35.9544 29.2675 35.6068C29.1465 35.5305 29.0471 35.5517 28.9693 35.6704C28.4248 36.5127 27.7261 37.1628 26.8732 37.6207C26.7888 37.6676 26.7211 37.737 26.6788 37.82C26.5837 38.0037 26.4324 38.097 26.225 38.0998C26.1769 38.0998 26.1307 38.1115 26.091 38.1337L24.8679 38.8417C24.7238 38.9265 24.6403 39.0495 24.6172 39.2106C24.574 39.5244 24.4588 39.7152 24.2715 39.783ZM35.5023 34.0198C35.5128 34.03 35.5689 33.9947 35.6676 33.9159C35.7662 33.8372 35.9053 33.7166 36.077 33.5609C36.2487 33.4052 36.4496 33.2176 36.6683 33.0087C36.887 32.7998 37.1191 32.5737 37.3515 32.3434C37.5838 32.113 37.8118 31.8829 38.0225 31.6662C38.2331 31.4495 38.4223 31.2504 38.5792 31.0804C38.736 30.9103 38.8575 30.7726 38.9368 30.675C39.016 30.5775 39.0514 30.522 39.0409 30.5118C39.0304 30.5016 38.9742 30.5369 38.8756 30.6157C38.777 30.6944 38.6379 30.8151 38.4662 30.9707C38.2945 31.1264 38.0936 31.314 37.8749 31.5229C37.6562 31.7318 37.4241 31.9579 37.1917 32.1883C36.9594 32.4186 36.7314 32.6487 36.5207 32.8654C36.3101 33.0821 36.1209 33.2812 35.964 33.4512C35.8071 33.6213 35.6856 33.7591 35.6064 33.8566C35.5272 33.9542 35.4918 34.0096 35.5023 34.0198ZM1.60345 39.3972C2.02987 39.1089 2.40155 38.7909 2.71848 38.4432C4.85347 36.0887 7.07634 33.7582 9.38708 31.4518C9.47928 31.3585 9.52538 31.2482 9.52538 31.1211L9.51674 30.7649C9.51385 30.4738 9.40437 30.4286 9.18828 30.6292C8.25764 31.4942 7.36878 32.4128 6.5217 33.3851C4.98313 35.1517 3.40421 36.8476 1.78496 38.4729C1.50837 38.7485 1.58616 38.9477 1.44786 39.2742C1.35278 39.4919 1.40464 39.5328 1.60345 39.3972ZM46.1616 34.356C46.2308 34.356 46.2942 34.3362 46.3518 34.2967C46.4584 34.2232 46.503 34.1214 46.4858 33.9914C46.3878 33.2876 46.4137 32.5725 46.5635 31.8461C46.6586 31.3797 46.5751 31.3472 46.3129 31.7485C43.0715 36.6922 39.4023 41.3984 35.3527 46.0028C35.3066 46.0537 35.3138 46.0975 35.3743 46.1342C35.5702 46.2473 35.7777 46.243 35.9966 46.1215C36.1782 46.0226 36.3193 45.9109 36.4202 45.7866C38.8433 42.7933 41.1944 39.9031 43.4734 37.1161C44.2514 36.1664 45.0812 35.2747 45.9628 34.4408C46.0154 34.3891 46.0864 34.3588 46.1616 34.356ZM24.1289 31.7909L21.3543 34.0253C21.3454 34.0334 21.3401 34.0445 21.3393 34.0563C21.3385 34.0681 21.3423 34.0798 21.3499 34.0889L21.3629 34.1101C21.4055 34.1617 21.4836 34.1838 21.5928 34.1753C21.7019 34.1667 21.84 34.1277 21.999 34.0603C22.158 33.993 22.3348 33.8987 22.5193 33.7828C22.7039 33.6669 22.8925 33.5318 23.0743 33.3851L23.1521 33.3215C23.519 33.0262 23.8366 32.7017 24.0352 32.4194C24.2337 32.1372 24.297 31.9202 24.211 31.8164L24.1937 31.7994C24.1861 31.7901 24.1751 31.7841 24.163 31.7825C24.151 31.7809 24.1387 31.784 24.1289 31.7909ZM2.0097 40.525C2.01125 40.5444 2.01846 40.563 2.03047 40.5785C2.04249 40.5941 2.0588 40.6059 2.07747 40.6126C2.09614 40.6193 2.11638 40.6206 2.13578 40.6163C2.15518 40.6121 2.17292 40.6024 2.1869 40.5886L10.1348 32.9272C10.1511 32.9115 10.1616 32.8909 10.1647 32.8686C10.1679 32.8464 10.1634 32.8238 10.152 32.8043L10.044 32.6262C10.0364 32.6129 10.0258 32.6015 10.013 32.5927C10.0002 32.584 9.98563 32.5782 9.97028 32.5758C9.95492 32.5733 9.9392 32.5743 9.92428 32.5786C9.90936 32.5829 9.89563 32.5905 9.88409 32.6007L1.98809 39.7363C1.97599 39.7469 1.96656 39.76 1.96056 39.7747C1.95456 39.7895 1.95215 39.8053 1.95352 39.8211L2.0097 40.525ZM5.43692 38.7442C5.56657 38.6976 5.68326 38.6382 5.81724 38.5958C5.88927 38.5704 5.95266 38.5322 6.0074 38.4814C7.39039 37.1161 8.82092 35.9106 10.299 34.8648C10.4891 34.7291 10.5468 34.5525 10.4719 34.3348L10.286 33.7879C10.2053 33.5533 10.0786 33.5279 9.9057 33.7116L5.35048 38.617C5.1949 38.7838 5.22371 38.8262 5.43692 38.7442ZM3.72547 43.1664L3.98478 43.6327C4.01359 43.6864 4.04961 43.6921 4.09283 43.6497L11.2671 36.3996C11.4169 36.247 11.427 36.0873 11.2973 35.9205L10.8997 35.399C10.8759 35.3683 10.8452 35.3433 10.81 35.3262C10.7748 35.309 10.7359 35.3001 10.6966 35.3001C10.6573 35.3001 10.6184 35.309 10.5832 35.3262C10.548 35.3433 10.5173 35.3683 10.4935 35.399C8.47085 37.9881 6.22782 40.4854 3.76437 42.8908C3.68081 42.9727 3.66785 43.0646 3.72547 43.1664ZM32.7682 37.1119C31.2786 38.1408 30.0498 39.3887 29.0817 40.8557C28.8714 41.1751 28.6495 41.4549 28.4161 41.6951C28.1655 41.9524 27.9105 42.1898 27.6512 42.4074C27.6339 42.4216 27.6324 42.4343 27.6469 42.4456L27.729 42.5261C27.7693 42.5629 27.8096 42.5629 27.85 42.5261C28.8008 41.6485 30.0757 40.6437 30.6894 39.5116C30.8594 39.1951 31.0842 38.9195 31.3636 38.6849C31.9255 38.2157 32.3937 37.6913 32.7682 37.1119C33.1572 36.9706 33.4756 36.712 33.7234 36.336C33.8184 36.1975 33.7896 36.1678 33.6369 36.247C33.2739 36.4392 32.9843 36.7275 32.7682 37.1119ZM38.6978 45.6085C41.095 42.7537 43.5296 40.1787 46.0017 37.8836C46.2351 37.6659 46.3518 37.3988 46.3518 37.0822L46.3475 36.5862C46.3475 36.2809 46.2408 36.2385 46.0276 36.459L36.9431 45.8968C36.7501 46.0975 36.7919 46.1724 37.0685 46.1215L38.1662 45.918C38.3823 45.8784 38.5595 45.7753 38.6978 45.6085ZM11.5696 36.6879C9.53834 39.4523 7.48115 41.9835 5.0566 44.6079C4.98457 44.6842 4.99609 44.7478 5.09117 44.7987L5.26405 44.8962C5.30473 44.9182 5.35156 44.9264 5.39702 44.9195C5.44247 44.9126 5.48392 44.8909 5.51471 44.858L12.4945 37.4087C12.5233 37.3776 12.5219 37.3479 12.4902 37.3197C12.3 37.1557 12.0479 36.9395 11.7338 36.671C11.7219 36.6607 11.7079 36.6529 11.6928 36.6481C11.6777 36.6434 11.6619 36.6417 11.6464 36.6433C11.6309 36.6449 11.616 36.6497 11.6027 36.6574C11.5895 36.6651 11.5782 36.6755 11.5696 36.6879ZM7.16566 44.9895C8.86414 42.6025 11.2541 40.5758 13.4669 38.5916C13.6455 38.4333 13.6513 38.268 13.4842 38.0955L13.4021 38.0107C13.2753 37.8779 13.1442 37.8765 13.0088 38.0065L6.04198 44.8072C5.92097 44.9259 5.93105 45.0347 6.07223 45.1336C6.51018 45.4446 6.87465 45.3965 7.16566 44.9895ZM41.373 45.1463C41.2837 45.2679 41.3067 45.2947 41.4422 45.2269C44.0151 43.9352 45.5897 41.9396 46.1659 39.2403C46.3215 38.5167 46.1818 38.4573 45.7467 39.0622L41.373 45.1463ZM15.0357 38.9562C14.9294 38.8798 14.7995 38.8419 14.6679 38.8489C14.5363 38.8558 14.4113 38.9072 14.314 38.9944C12.2136 40.8853 10.1722 43.1296 8.18993 45.7272C8.03434 45.9307 8.08621 46.0268 8.34552 46.0155C8.48958 46.0099 8.62932 46.0353 8.76474 46.0918C8.93473 46.1625 9.04998 46.1116 9.11048 45.9392C9.21133 45.6509 9.36835 45.4007 9.58156 45.1887C11.6445 43.1593 13.7521 41.3079 15.9044 39.6346C16.132 39.4565 16.1032 39.3406 15.818 39.2869C15.5327 39.2332 15.272 39.123 15.0357 38.9562ZM4.66331 41.2076C5.36921 40.6196 5.99011 39.9526 6.52602 39.2064C6.54346 39.1832 6.55096 39.1543 6.54692 39.1257C6.54288 39.0972 6.52762 39.0714 6.50441 39.0537L6.41798 38.9859C6.40933 38.9803 6.40213 38.9817 6.39637 38.9901C6.13129 39.3406 5.82877 39.6586 5.48878 39.9441C5.32455 40.0826 5.27989 40.0515 5.3548 39.8508C5.40667 39.7038 5.32455 39.5286 5.10846 39.3251C4.983 39.2069 4.81513 39.1419 4.6412 39.1443C4.46727 39.1467 4.30131 39.2162 4.17926 39.3378L2.1869 41.3305C2.10046 41.4181 2.07165 41.5213 2.10046 41.64C2.2013 42.0725 2.44909 42.3707 2.84382 42.5346C2.97347 42.5912 3.10169 42.5883 3.22846 42.5261C3.84648 42.2166 4.22248 41.5722 4.66331 41.2076ZM17.1024 40.0008C17.1286 39.9725 17.1423 39.9352 17.1405 39.897C17.1387 39.8588 17.1214 39.8229 17.0926 39.7971L16.9136 39.6374C16.8848 39.6117 16.8467 39.5982 16.8078 39.6C16.7689 39.6018 16.7323 39.6187 16.706 39.647L10.5921 46.2387C10.5658 46.2669 10.5521 46.3043 10.5539 46.3425C10.5558 46.3806 10.573 46.4166 10.6018 46.4423L10.7808 46.602C10.8097 46.6278 10.8477 46.6412 10.8866 46.6394C10.9256 46.6376 10.9622 46.6207 10.9884 46.5925L17.1024 40.0008ZM11.8116 46.6176L12.6933 46.6388C12.8806 46.6444 13.0362 46.5766 13.16 46.4353C14.8427 44.468 16.8221 42.529 19.0983 40.6182C19.2855 40.4628 19.2927 40.3002 19.1199 40.1307L19.0161 40.0331C18.9724 39.9905 18.9139 39.9656 18.8523 39.9633C18.7907 39.9609 18.7304 39.9813 18.6834 40.0204C16.3611 41.999 14.0431 44.1316 11.7295 46.4183C11.7139 46.4348 11.7034 46.4554 11.6992 46.4776C11.6951 46.4997 11.6974 46.5226 11.706 46.5435C11.7147 46.5644 11.7292 46.5825 11.7479 46.5956C11.7666 46.6087 11.7887 46.6163 11.8116 46.6176ZM16.7083 44.0737C15.6192 44.998 14.4652 45.6848 13.549 46.8338C13.5202 46.8677 13.5288 46.8833 13.5749 46.8804L14.5646 46.8296C14.6194 46.8267 14.664 46.8055 14.6986 46.766C16.181 45.1379 17.9746 43.8405 19.5607 42.2718C20.2724 41.5679 21.0128 40.9277 21.7821 40.3511C21.8397 40.3059 21.8484 40.2522 21.808 40.19L21.7346 40.0755C21.7219 40.0572 21.7056 40.0416 21.6865 40.0297C21.6675 40.0179 21.6463 40.0101 21.6242 40.0069C21.6022 40.0037 21.5798 40.0052 21.5586 40.0111C21.5374 40.0171 21.5178 40.0275 21.5012 40.0416C19.8992 41.3757 18.3016 42.7198 16.7083 44.0737ZM37.3178 42.4233C37.3263 42.4315 37.3551 42.419 37.4024 42.3865C37.4497 42.354 37.5146 42.3022 37.5934 42.234C37.6722 42.1658 37.7634 42.0826 37.8618 41.9891C37.9602 41.8957 38.0638 41.7937 38.1667 41.6892C38.2696 41.5846 38.3698 41.4795 38.4616 41.3798C38.5534 41.2801 38.635 41.1878 38.7017 41.1081C38.7684 41.0285 38.8189 40.963 38.8503 40.9155C38.8818 40.868 38.8936 40.8394 38.885 40.8313C38.8764 40.8231 38.8477 40.8357 38.8004 40.8681C38.7531 40.9006 38.6882 40.9524 38.6094 41.0206C38.5305 41.0888 38.4393 41.172 38.341 41.2655C38.2426 41.359 38.139 41.4609 38.0361 41.5654C37.9332 41.67 37.833 41.7751 37.7412 41.8748C37.6494 41.9745 37.5678 42.0668 37.5011 42.1465C37.4344 42.2261 37.3839 42.2916 37.3524 42.3391C37.321 42.3866 37.3092 42.4152 37.3178 42.4233ZM27.5783 42.6404C27.5609 42.6224 27.4569 42.686 27.2889 42.8173C27.121 42.9485 26.9029 43.1366 26.6827 43.3401C26.5736 43.441 26.4673 43.5426 26.3699 43.6391C26.2724 43.7357 26.1856 43.8253 26.1146 43.9029C26.0435 43.9805 25.9896 44.0445 25.9558 44.0913C25.9219 44.1381 25.909 44.1668 25.9176 44.1757C25.9349 44.1937 26.039 44.13 26.2069 43.9988C26.3749 43.8676 26.5929 43.6795 26.8131 43.4759C26.9222 43.3751 27.0285 43.2735 27.126 43.1769C27.2234 43.0804 27.3102 42.9907 27.3812 42.9132C27.4523 42.8356 27.5063 42.7715 27.5401 42.7247C27.5739 42.6779 27.5869 42.6493 27.5783 42.6404ZM31.5538 45.4092C31.3291 45.6495 31.3564 45.6806 31.6359 45.5025C31.9932 45.2764 32.3116 44.9739 32.591 44.5952C32.8619 44.2221 32.8259 44.191 32.483 44.5019C32.1603 44.7902 31.8506 45.0926 31.5538 45.4092Z" fill="white"/>
</g>
<defs>
<clipPath id="clip0_1_1170">
<rect width="48" height="48" fill="white"/>
</clipPath>
</defs>
</svg>
