<svg width="48" height="48" viewBox="0 0 48 48" fill="none" xmlns="http://www.w3.org/2000/svg">
<g clip-path="url(#clip0_1_1172)">
<path d="M41.3011 1.40052C45.1181 3.54177 47.1923 7.51353 47.5538 11.7705C47.6513 12.9114 47.7617 14.0125 47.8851 15.0739C48.2337 18.0708 47.6829 21.8425 47.6312 25.0267C47.6054 26.6557 47.548 28.2379 47.4591 29.7732C47.4204 30.4544 47.2138 31.1184 47.2181 31.7996C47.2353 34.0529 47.1765 36.1346 47.0417 38.0445C46.947 39.3599 46.7749 40.6711 46.2068 41.863C45.3921 43.5743 44.0021 44.9607 42.037 46.0221C41.096 46.5329 39.9141 46.8465 38.4911 46.9629C37.2747 47.0622 36.034 47.1757 34.7688 47.3035C33.409 47.4397 32.1266 47.7121 30.7496 47.7121C27.3801 47.7206 23.9892 47.6908 20.6499 47.9165C17.3851 48.1407 13.779 47.9136 9.83151 47.2353C8.54053 47.0111 7.28542 46.6564 6.06617 46.1711C3.70799 45.2303 2.49447 43.5658 1.31108 41.4799C0.866411 40.6966 0.565183 39.8835 0.407397 39.0407C0.172153 37.7891 0.0487934 36.6639 0.0373181 35.6649C-0.028665 28.7317 -0.00714809 21.6694 0.101867 14.4779C0.136293 12.2359 0.394488 10.1316 0.876451 8.16485C1.1576 7.03249 1.69263 5.94838 2.48156 4.91252C4.01782 2.90748 5.76494 1.12807 8.27373 0.655545C12.0606 -0.0596263 15.813 0.280932 19.7118 0.102139C24.1312 -0.106453 28.4732 0.0553122 32.785 0.140452C34.1276 0.165993 36.0999 0.333434 38.702 0.642774C39.4507 0.732171 40.1737 1.28132 40.8665 0.783254C41.0673 0.638517 41.1706 0.688182 41.1763 0.932249C41.1763 0.97198 41.1706 1.00887 41.1591 1.04293C41.1075 1.19902 41.1548 1.31821 41.3011 1.40052ZM1.48751 16.5766C1.12891 16.8008 0.962516 17.2194 0.988336 17.8324C0.994073 18.0112 1.06436 18.0396 1.19919 17.9176C7.64832 12.0061 14.8893 6.49753 22.922 1.392C23.2576 1.17915 23.2289 1.04435 22.8359 0.987589C22.6351 0.959209 22.4343 0.949276 22.2335 0.95779C21.8921 0.97198 21.5794 1.07273 21.2953 1.26004C14.4245 5.74972 7.98398 10.7332 1.97378 16.2105C1.82173 16.3467 1.65964 16.4688 1.48751 16.5766ZM26.0074 1.66019C26.0275 1.76236 26.0103 1.86311 25.9558 1.96244C25.907 2.04758 25.8381 2.11285 25.7492 2.15826C25.1927 2.43354 24.6777 2.76842 24.2043 3.1629C23.7683 3.52616 23.315 3.87382 22.8445 4.20586C15.6065 9.35964 8.42004 14.4723 1.28526 19.5437C1.11313 19.6686 1.03567 19.836 1.05288 20.0461L1.0701 20.2248C1.08731 20.4377 1.17911 20.4732 1.34551 20.3313C2.54468 19.3011 4.75798 17.6238 7.98541 15.2995C9.42843 14.2608 10.7725 13.3654 12.0176 12.6134C12.1811 12.5141 12.2671 12.5595 12.2757 12.7496C12.2872 12.9766 12.3934 13.164 12.5942 13.3115C12.7118 13.3995 12.828 13.3995 12.9428 13.3115C18.7693 9.05171 24.8484 5.23179 31.1799 1.85175C31.5371 1.66019 31.7479 1.37497 32.0578 1.14084C32.2701 0.981913 32.2471 0.933667 31.9889 0.996103C31.0336 1.22882 30.0725 1.28416 29.1057 1.16213C28.9451 1.14226 28.8002 1.17915 28.6711 1.27281C28.3914 1.47288 28.1978 1.73256 27.9051 1.91987C22.6695 5.23179 17.5314 8.74096 12.4909 12.4474C12.4565 12.4729 12.4249 12.4686 12.3962 12.4346C12.3676 12.3977 12.3704 12.3636 12.4048 12.3324C16.6249 8.82184 20.9812 5.60924 25.4738 2.69464C26.1064 2.28171 26.7131 1.73682 27.3285 1.27706C27.4174 1.20895 27.4318 1.12807 27.3715 1.03442L27.307 0.932249C27.2869 0.901031 27.2596 0.895355 27.2252 0.915221L26.0074 1.66019C26.1795 1.37639 26.2498 1.20328 26.2183 1.14084C26.1946 1.0923 26.1609 1.04918 26.1195 1.01436C26.0781 0.979534 26.03 0.953809 25.9782 0.9389C25.9265 0.923992 25.8724 0.920243 25.8196 0.927905C25.7667 0.935568 25.7163 0.954464 25.6717 0.983332C21.7185 3.56306 17.6663 6.25063 13.5151 9.04604C10.4856 11.0837 7.28829 13.4407 3.92315 16.1169C3.27479 16.6305 2.74119 17.1698 2.32234 17.7345C2.12152 18.0098 2.15308 18.0396 2.41701 17.8239C2.6666 17.6224 2.975 17.3897 3.34221 17.1258C8.52332 13.4052 15.0829 8.86866 23.021 3.51623C23.9992 2.85782 24.9947 2.23914 26.0074 1.66019ZM1.04428 14.7078V14.9505C1.04715 15.2853 1.17768 15.3435 1.43587 15.125C7.24238 10.2295 13.4132 5.75256 19.9484 1.69425C20.6742 1.24301 20.6126 1.06705 19.7634 1.16638C19.6515 1.18057 19.4062 1.21463 19.0275 1.26855C18.7808 1.30261 18.5542 1.38916 18.3476 1.52822C13.7173 4.60743 9.19462 7.83138 4.77949 11.2001C3.56168 12.1323 2.52029 13.1753 1.3326 14.1076C1.13751 14.2608 1.04141 14.4609 1.04428 14.7078ZM1.71128 11.7279C1.53054 11.8812 1.34551 11.8854 1.17338 12.0131C1.11785 12.0534 1.07609 12.1092 1.05377 12.1732C1.03144 12.2372 1.02963 12.3061 1.04858 12.3707L1.10022 12.5538C1.1086 12.5811 1.12366 12.606 1.14405 12.6263C1.16444 12.6466 1.18956 12.6616 1.21718 12.67C1.2448 12.6784 1.27409 12.6799 1.30247 12.6745C1.33085 12.6691 1.35745 12.6569 1.37993 12.6389C6.42764 8.54797 12.0649 5.07428 17.4827 1.62614C17.8069 1.41896 17.7796 1.28132 17.4009 1.21321C17.1398 1.16496 16.9003 1.20753 16.6823 1.34092C13.6585 3.17993 10.4139 5.27862 6.94833 7.63698C5.10224 8.89279 3.42828 10.2976 1.71128 11.7279ZM34.5752 1.30686C34.7215 1.20469 34.7057 1.1678 34.5278 1.19618C34.0918 1.27281 33.6586 1.28558 33.2282 1.23449C33.0733 1.21747 32.9328 1.25294 32.8065 1.34092C30.2074 3.17142 27.2855 4.81035 24.6734 6.55145C20.9669 9.02333 17.2532 11.5562 13.5323 14.1501C13.5076 14.168 13.487 14.1908 13.4718 14.217C13.4566 14.2432 13.447 14.2722 13.4438 14.3023C13.4405 14.3323 13.4437 14.3627 13.453 14.3915C13.4623 14.4203 13.4776 14.4468 13.4979 14.4694L13.6528 14.6312C13.7561 14.7419 13.8665 14.7504 13.9841 14.6567C15.0399 13.8507 16.1386 13.0646 17.2804 12.2984C22.9894 8.46425 28.6697 4.92387 34.3213 1.67722C34.4188 1.62046 34.4762 1.53816 34.4934 1.43031C34.5049 1.37639 34.5321 1.33524 34.5752 1.30686ZM1.45309 10.3018C5.38195 6.94309 10.2231 4.33783 14.8491 1.89432C15.7097 1.44025 15.6538 1.25152 14.6813 1.32815C14.4231 1.34801 14.1634 1.36078 13.9024 1.36646C13.7503 1.3693 13.6112 1.41045 13.485 1.48991C10.6749 3.2225 8.32967 4.66987 5.27867 6.75153C4.15696 7.51779 2.99939 8.2216 1.80595 8.86299C1.66251 8.93961 1.57501 9.05739 1.54345 9.21632L1.32829 10.2295C1.2996 10.3742 1.3412 10.3983 1.45309 10.3018ZM3.48852 6.55997C3.14426 6.86221 2.86455 6.89201 2.42562 6.84093C2.28505 6.8239 2.19181 6.88066 2.14591 7.01121L1.78444 8.04991C1.60657 8.55791 1.73567 8.65156 2.17173 8.33087L11.2774 1.68573C11.4667 1.54951 11.4467 1.45869 11.2171 1.41329C10.9762 1.36788 10.6721 1.45018 10.3049 1.66019C7.85775 3.05932 5.58564 4.69257 3.48852 6.55997ZM36.5504 1.4814L35.8145 1.31963C35.7428 1.30261 35.6754 1.31396 35.6122 1.35369C28.7271 5.80081 21.796 10.5487 14.819 15.5975C14.7931 15.6145 14.7917 15.6358 14.8147 15.6614C15.0499 15.931 15.2966 16.1211 15.5548 16.2318C15.5806 16.2403 15.6036 16.2375 15.6237 16.2233C22.6351 11.1206 29.615 6.22508 36.5633 1.53674C36.6006 1.5112 36.5963 1.49275 36.5504 1.4814ZM38.5471 1.7283L38.6546 1.61762C38.7407 1.52964 38.7221 1.49701 38.5987 1.51971L37.8585 1.66445C37.7628 1.68387 37.675 1.72802 37.6047 1.79216C36.942 2.37678 36.2491 2.91884 35.5262 3.41832C28.9508 7.9222 22.4156 12.2288 15.9206 16.3382C15.7858 16.4234 15.7858 16.5057 15.9206 16.5851L16.82 17.1258C16.9519 17.2052 17.0796 17.1981 17.203 17.1045C19.0878 15.6571 20.9683 14.1714 22.9005 12.822C27.832 9.38234 32.9112 5.85757 38.1383 2.24765C38.3133 2.12562 38.4467 1.95676 38.5385 1.74107C38.5413 1.73814 38.5443 1.73374 38.5471 1.7283ZM8.51041 2.10717C9.27352 1.65877 9.22762 1.5566 8.3727 1.80067C6.9096 2.21502 5.59424 3.03519 4.42663 4.2612C4.41515 4.27255 4.41372 4.28532 4.42233 4.29951L4.5213 4.41871C4.53564 4.43574 4.55142 4.43857 4.56864 4.42722L8.51041 2.10717ZM19.0491 18.0282C19.2527 18.1049 19.4392 18.0765 19.6085 17.9431C20.8478 16.9768 22.2507 16.3084 23.4212 15.2399C24.0466 14.6723 24.7336 14.2183 25.4824 13.8777C26.3603 13.4775 26.9455 12.5453 27.733 11.9536C30.5588 9.8279 33.5051 7.77178 36.5719 5.7852C38.1096 4.78623 39.6917 3.68367 41.3184 2.47753C41.37 2.44064 41.3657 2.41226 41.3054 2.39239L40.4663 2.14549C40.4089 2.1313 40.3559 2.13981 40.3071 2.17103L17.6204 17.2152C17.5958 17.2324 17.5763 17.2559 17.5641 17.2831C17.5518 17.3104 17.5472 17.3404 17.5508 17.37C17.5543 17.3996 17.5658 17.4278 17.5841 17.4514C17.6024 17.4751 17.6268 17.4935 17.6548 17.5046L19.0491 18.0282ZM39.6788 4.24843C36.0555 6.91755 32.5742 9.37808 29.2434 12.1494C29.2191 12.17 29.2017 12.1976 29.1934 12.2284C29.1852 12.2591 29.1866 12.2915 29.1975 12.321C29.2084 12.3505 29.2282 12.3756 29.2542 12.3929C29.2801 12.4102 29.311 12.4188 29.3424 12.4176L30.1385 12.4005C30.2838 12.3978 30.4242 12.3485 30.5387 12.2601C34.3629 9.33977 37.9962 6.64085 41.4388 4.16329C41.6454 4.01572 41.9007 3.78442 42.2048 3.4694C42.3626 3.30764 42.3397 3.17709 42.136 3.07776L41.8089 2.916C41.5679 2.7968 41.3513 2.82802 41.1591 3.00965C40.6858 3.45805 40.1923 3.87098 39.6788 4.24843ZM34.1147 10.6083C33.2828 11.2582 32.5727 11.8883 31.9846 12.4984C31.9672 12.5165 31.9544 12.5384 31.9472 12.5623C31.94 12.5862 31.9387 12.6115 31.9433 12.636C31.9479 12.6605 31.9584 12.6836 31.9738 12.7034C31.9892 12.7231 32.0091 12.739 32.0319 12.7496L32.174 12.822C32.3031 12.8844 32.4235 12.8731 32.5354 12.7879L43.3538 4.55068C43.4513 4.47405 43.4571 4.39033 43.371 4.29951L42.889 3.80145C42.7714 3.67941 42.6466 3.67374 42.5147 3.78442C39.8897 6.01224 37.0897 8.28688 34.1147 10.6083ZM44.4898 5.39781C44.4726 5.3524 44.4439 5.34247 44.4038 5.36801L33.3789 12.673C32.917 12.9795 32.9557 13.198 33.4951 13.3286C33.7877 13.3995 34.0588 13.5485 34.3084 13.7755C34.5121 13.9572 34.6397 13.9146 34.6914 13.6478L34.7602 13.2988C34.7918 13.1427 34.8692 13.0135 34.9926 12.9114C37.9876 10.4508 41.3829 8.45858 44.7825 6.47057C44.8083 6.45461 44.8279 6.4307 44.8381 6.40282C44.8483 6.37494 44.8484 6.34477 44.8384 6.31732L44.4898 5.39781ZM38.8225 12.7624C38.8425 12.8731 38.8999 12.9426 38.9946 12.971C39.1409 13.0164 39.2714 12.9908 39.3862 12.8943L45.3935 7.84983C45.5427 7.72496 45.57 7.57738 45.4753 7.4071L45.187 6.88775C45.17 6.85745 45.1466 6.8311 45.1185 6.81047C45.0904 6.78984 45.0581 6.77541 45.0238 6.76815C44.9896 6.76089 44.9542 6.76097 44.92 6.76838C44.8857 6.77579 44.8535 6.79037 44.8255 6.81113C41.3456 9.40504 38.7751 11.3633 37.1141 12.6857C36.9276 12.8362 36.7827 13.0192 36.6795 13.2349C36.5618 13.479 36.5977 13.5031 36.787 13.3073C37.2001 12.8773 37.7467 12.7453 38.2717 12.4857C38.3255 12.4597 38.3846 12.4465 38.4445 12.447C38.5043 12.4475 38.5633 12.4617 38.6166 12.4885C38.67 12.5153 38.7164 12.554 38.7521 12.6015C38.7878 12.649 38.8119 12.7041 38.8225 12.7624ZM45.4624 10.9659C45.7148 10.7985 45.9716 10.6523 46.2327 10.5275C46.4048 10.4452 46.4636 10.3132 46.4091 10.1316L46.1165 9.12266C46.0562 8.91549 45.9386 8.87576 45.7636 9.00347C43.5058 10.658 41.2222 12.2515 38.9128 13.784C38.4911 14.065 38.1096 14.4382 37.7682 14.9036C37.6649 15.0427 37.7008 15.1151 37.8758 15.1207C38.3104 15.1293 38.7235 15.1505 39.1065 14.9249C41.1864 13.7046 43.305 12.3849 45.4624 10.9659ZM46.6802 12.4261C46.7548 12.375 46.7835 12.3055 46.7663 12.2175L46.4736 10.8425C46.4719 10.8306 46.4669 10.8193 46.4593 10.8099C46.4516 10.8005 46.4416 10.7932 46.4303 10.7889C46.4189 10.7846 46.4065 10.7833 46.3945 10.7853C46.3825 10.7872 46.3712 10.7922 46.3618 10.7999C43.7999 12.7837 41.2825 14.695 38.8096 16.5341C37.9633 17.1612 37.3335 17.9459 36.9204 18.8882C36.8258 19.1067 36.8774 19.1478 37.0754 19.0116L46.6802 12.4261ZM46.8695 13.4818L46.7447 12.9497C46.7304 12.8816 46.6945 12.8702 46.6372 12.9156C43.4212 15.5464 40.2296 18.0836 37.0624 20.5271C36.7612 20.7612 36.5891 21.1656 36.5073 21.5275C36.3954 22.027 36.526 22.0993 36.8989 21.7446C39.8796 18.9123 43.1874 16.1992 46.8222 13.6053C46.8652 13.574 46.881 13.5329 46.8695 13.4818ZM36.886 15.7635C36.8264 15.748 36.7721 15.7169 36.7288 15.6735C36.6855 15.6301 36.6548 15.576 36.6399 15.5169C36.6249 15.4577 36.6263 15.3957 36.6439 15.3372C36.6614 15.2788 36.6945 15.2261 36.7397 15.1846C37.0868 14.8667 37.3235 14.4765 37.4497 14.0139C37.5042 13.8181 37.444 13.7741 37.269 13.882C36.4127 14.4226 35.1518 14.9675 34.1578 14.546C33.6729 14.3417 33.1838 14.1147 32.6903 13.8649C29.0498 12.0217 24.9875 14.2183 24.682 18.1985C24.5873 19.4245 23.8601 20.2291 22.5132 19.9652C18.9357 19.2755 15.9048 17.7743 13.4204 15.4613C13.1737 15.2314 12.9585 14.976 12.7749 14.695C12.402 14.1274 12.1624 14.1785 12.0563 14.8483C11.7249 16.93 12.4909 18.6115 13.3946 20.4122C13.4692 20.5626 13.4591 20.7059 13.3645 20.8421C13.1091 21.211 12.7262 21.3501 12.2155 21.2593C11.854 21.194 11.7536 21.326 11.9143 21.6552C12.6889 23.2345 14.0143 24.6436 15.1632 26.0016C15.2102 26.0562 15.2448 26.1201 15.2647 26.1891C15.2846 26.2581 15.2895 26.3306 15.2789 26.4018C15.2683 26.473 15.2426 26.5413 15.2034 26.6022C15.1641 26.6631 15.1123 26.7152 15.0513 26.755C14.621 27.0303 14.1606 27.1963 13.67 27.2531C13.6241 27.2591 13.5807 27.2775 13.5448 27.3065C13.5088 27.3354 13.4818 27.3737 13.4666 27.417C13.4514 27.4603 13.4487 27.5069 13.4588 27.5517C13.4689 27.5964 13.4913 27.6375 13.5237 27.6703C14.6813 28.8282 16.1444 29.6711 17.2632 30.8588C17.3278 30.9277 17.374 31.0115 17.3974 31.1026C17.4207 31.1937 17.4207 31.2892 17.3971 31.3802C17.3736 31.4713 17.3273 31.5551 17.2626 31.6238C17.1978 31.6926 17.1167 31.7443 17.0265 31.774L11.9788 33.4385C11.3104 33.657 11.2975 33.9096 11.9401 34.1962C14.5694 35.3541 17.4698 36.2736 20.1722 35.9033C23.0554 35.5088 25.6689 34.568 28.0127 33.0809C29.493 32.1415 30.8514 30.8928 32.0879 29.3348C32.9428 28.2592 33.6586 26.9523 34.2352 25.4141C35.2551 22.6854 35.7629 20.6591 36.0297 18.058C36.049 17.856 36.1477 17.6683 36.3051 17.5344L37.6606 16.3893C38.1368 15.9863 38.0608 15.7976 37.4325 15.8231C37.2547 15.8317 37.0725 15.8118 36.886 15.7635ZM11.3204 13.9926C7.87783 16.1169 4.517 18.3603 1.29817 20.7953C1.18055 20.8833 1.11456 20.9996 1.10022 21.1444C1.08301 21.309 1.03854 21.4679 0.966819 21.6211C0.854935 21.8624 0.912312 21.912 1.13895 21.7701L11.002 15.5762C11.1024 15.511 11.1526 15.4201 11.1526 15.3038C11.144 14.8554 11.2258 14.441 11.3979 14.0608C11.4467 13.9529 11.4208 13.9302 11.3204 13.9926ZM46.9685 14.8994C43.2677 17.3854 39.8596 19.9042 36.744 22.4555C36.1028 22.9834 36.0942 23.4303 35.7973 24.1072C35.5592 24.6521 35.6825 24.7486 36.1674 24.3967C39.5182 21.9617 43.0841 19.223 46.8652 16.1807C46.9743 16.0956 47.0087 15.9877 46.9685 15.8572C46.8566 15.4797 46.8796 15.1832 47.0374 14.9675C47.1435 14.8199 47.1206 14.7972 46.9685 14.8994ZM24.1656 15.7423C22.7742 16.6107 21.3269 17.445 19.8236 18.2454C19.819 18.2473 19.8151 18.2506 19.8124 18.2548C19.8096 18.2589 19.8081 18.2638 19.8081 18.2688C19.8081 18.2737 19.8096 18.2786 19.8124 18.2828C19.8151 18.2869 19.819 18.2902 19.8236 18.2922C20.274 18.4539 20.713 18.6086 21.1404 18.7562C21.2208 18.7846 21.291 18.769 21.3513 18.7094C22.0886 17.9999 22.9091 17.3769 23.8127 16.8406C23.8762 16.805 23.9239 16.7456 23.9461 16.6745L24.2388 15.7933C24.2646 15.711 24.2402 15.694 24.1656 15.7423ZM10.86 17.5557C11.0608 17.4365 11.1598 17.2606 11.1569 17.0279L11.1354 16.168C11.1325 15.9324 11.0364 15.8884 10.8471 16.036C7.72578 18.4823 4.50552 20.801 1.18628 22.9919C1.12751 23.0295 1.08139 23.0837 1.0538 23.1473C1.02621 23.211 1.0184 23.2814 1.03137 23.3495L1.0701 23.5495C1.10739 23.734 1.2035 23.7723 1.35841 23.6645C4.5256 21.4594 7.69279 19.4231 10.86 17.5557ZM35.2422 26.5763C34.4977 27.1424 34.601 27.8789 33.9684 28.4834C33.7848 28.6593 33.8178 28.7189 34.0674 28.6622C34.2223 28.6281 34.3743 28.5416 34.5235 28.4025C36.2907 26.782 38.6632 24.6933 41.6411 22.1362C42.8087 21.1316 43.9634 20.0702 45.1052 18.952C45.4868 18.5802 45.9874 18.2269 46.607 17.892C46.7993 17.787 46.9126 17.6267 46.947 17.411L47.046 16.7895C47.0833 16.5624 47.0158 16.5255 46.8437 16.6788C44.4196 18.8044 42.0872 20.8492 39.8466 22.8131C38.3491 24.1271 36.8143 25.3815 35.2422 26.5763ZM10.378 19.8162C10.7911 19.5522 11.1684 19.3025 11.5098 19.067C11.5365 19.0492 11.5573 19.0236 11.5695 18.9934C11.5818 18.9631 11.5849 18.9295 11.5786 18.8967C11.5729 18.8796 11.4983 18.5277 11.3549 17.8409C11.3405 17.7672 11.3032 17.753 11.243 17.7984L1.75001 24.9331C1.66968 24.9955 1.57788 25.0352 1.4746 25.0523L1.28526 25.0821C1.11026 25.1104 1.02706 25.2126 1.03567 25.3886L1.04858 25.6099C1.05023 25.6419 1.05964 25.6731 1.07601 25.7008C1.09239 25.7285 1.11525 25.7519 1.14267 25.769C1.17009 25.7861 1.20127 25.7964 1.23357 25.7991C1.26588 25.8018 1.29836 25.7968 1.32829 25.7845C1.81026 25.5801 2.15452 25.1374 2.61066 24.8394C5.06064 23.2189 7.64976 21.5445 10.378 19.8162ZM23.688 18.0368C23.6947 17.9934 23.6885 17.9491 23.6702 17.9092C23.6518 17.8692 23.6221 17.8355 23.5847 17.812C23.5472 17.7885 23.5037 17.7763 23.4594 17.7769C23.415 17.7775 23.3719 17.7909 23.3351 17.8154L22.1904 18.5817C22.1509 18.6076 22.1205 18.645 22.1035 18.6888C22.0865 18.7326 22.0838 18.7806 22.0956 18.826C22.1074 18.8714 22.1333 18.9121 22.1696 18.9423C22.2058 18.9725 22.2507 18.9908 22.298 18.9946L23.3179 19.0755C23.375 19.0793 23.4315 19.0617 23.4762 19.0262C23.5208 18.9907 23.5503 18.9399 23.5589 18.8839L23.688 18.0368ZM46.3661 19.3649C44.8284 21.2664 43.8257 22.4371 43.3581 22.8769C38.4323 27.4858 33.9053 31.6633 29.777 35.4095C25.5427 39.2521 21.215 43.011 16.7942 46.6862C16.4126 47.004 16.4685 47.1275 16.962 47.0565C17.1972 47.0225 17.4425 47.0225 17.6978 47.0565C17.8556 47.0793 17.9704 47.0197 18.0421 46.8778C18.8554 45.2814 20.4734 44.3321 21.7386 43.1444C24.5529 40.5051 27.132 38.1992 29.4758 36.2268C31.8656 34.2175 33.9211 32.4083 35.6424 30.7992C37.9489 28.6423 39.9958 26.7962 41.7831 25.2608C43.7913 23.5354 45.448 21.973 46.7533 20.5739C46.8452 20.4746 46.8896 20.3582 46.8867 20.2248L46.8652 19.1947C46.8654 19.1725 46.8608 19.1505 46.8517 19.1302C46.8426 19.1099 46.8293 19.0917 46.8127 19.0768C46.796 19.0619 46.7764 19.0507 46.755 19.0439C46.7337 19.037 46.7111 19.0348 46.6888 19.0372C46.5425 19.0513 46.4593 19.1095 46.4392 19.2117C46.4249 19.2684 46.4005 19.3195 46.3661 19.3649ZM11.7551 20.1355C11.9358 20.1156 12.0219 20.0148 12.0133 19.8332C12.0018 19.626 11.9258 19.4813 11.7852 19.399C11.6676 19.3309 11.5499 19.3451 11.4323 19.4416C11.2803 19.5636 11.1311 19.7027 10.9848 19.8587C10.9557 19.889 10.9369 19.9272 10.9309 19.9684C10.9249 20.0095 10.9319 20.0516 10.9511 20.0891C10.9702 20.1266 11.0006 20.1576 11.0382 20.1781C11.0757 20.1985 11.1186 20.2074 11.1612 20.2036L11.7551 20.1355ZM5.22273 25.2906C6.9096 24.1072 8.69114 23.0302 10.5329 21.9404C10.6706 21.8581 10.7323 21.7389 10.718 21.5828L10.6018 20.4334C10.5817 20.2546 10.5014 20.222 10.3608 20.3355C8.01984 22.2171 5.55121 24.1044 2.95492 25.9973C2.07419 26.6387 1.42727 27.2971 1.01416 27.9725C0.821943 28.2876 0.877885 28.3386 1.18198 28.1258C2.54181 27.1751 3.88872 26.23 5.22273 25.2906ZM43.272 21.8851C43.6048 21.4168 43.9921 20.9798 44.4339 20.5739C44.4482 20.5597 44.4612 20.5597 44.4726 20.5739C44.4927 20.5995 44.4884 20.5952 44.4597 20.5611C44.454 20.5555 44.4482 20.5555 44.4425 20.5611C41.2065 23.4531 37.9833 26.1534 34.7731 28.6622C32.9614 30.084 31.5715 31.7612 29.8975 33.264C29.0154 34.0558 27.9137 34.5581 26.9928 35.3584C23.4871 38.4262 19.9972 41.548 16.5231 44.7237C15.7743 45.4048 14.9696 45.9795 14.2509 46.6734C14.2355 46.6891 14.2242 46.7083 14.2179 46.7292C14.2115 46.7501 14.2105 46.7721 14.2147 46.7932C14.219 46.8143 14.2285 46.8339 14.2423 46.8501C14.2561 46.8664 14.2739 46.8788 14.294 46.8863L14.5952 47.0097C14.7013 47.0551 14.7974 47.0395 14.8835 46.9629C19.2126 43.2139 23.7625 39.2322 28.5334 35.0178C31.7551 32.1713 34.9467 29.3575 38.1081 26.5763C39.6315 25.2353 41.1763 24.0604 42.5276 22.5151C42.7556 22.2512 43.0698 22.166 43.272 21.8851ZM27.4705 40.7562C32.9328 35.9856 38.2415 31.3143 43.3968 26.7423C44.3751 25.8767 45.3677 24.9004 46.3747 23.8135C46.6329 23.5354 46.7663 23.2076 46.7749 22.8301L46.805 21.5062C46.8136 21.1486 46.7031 21.1075 46.4736 21.3827C43.7927 24.5925 40.6255 27.4532 37.5702 30.3905C36.0526 31.8521 34.1563 33.5662 31.8813 35.5329C28.7428 38.2489 25.6158 41.0656 22.5003 43.983C21.4029 45.0089 20.1593 45.8816 19.1695 47.014C19.0261 47.1786 19.0591 47.2297 19.2685 47.1672C19.7218 47.0338 20.1679 46.9856 20.6068 47.0225C20.7589 47.0338 20.8865 46.9842 20.9898 46.8735C22.9205 44.8812 25.0808 42.8421 27.4705 40.7562ZM11.0794 22.596C11.1684 22.4427 11.1253 22.3377 10.9503 22.281C10.9129 22.2691 10.8732 22.266 10.8344 22.272C10.7956 22.2779 10.7587 22.2926 10.7266 22.315C7.80611 24.4208 4.93154 26.633 2.10288 28.9516C1.44448 29.488 0.902271 29.8158 1.13895 30.8332C1.14668 30.8642 1.16233 30.8928 1.18434 30.9161C1.20636 30.9394 1.23397 30.9567 1.26444 30.9662C1.2949 30.9756 1.32715 30.977 1.35799 30.9701C1.38882 30.9632 1.41715 30.9483 1.44018 30.9269C4.34917 28.262 7.87783 26.2314 11.3721 24.2009C11.6762 24.0249 11.735 23.7894 11.5485 23.4942L11.0837 22.7407C11.0696 22.7189 11.0617 22.6939 11.0609 22.6683C11.0602 22.6428 11.0666 22.6177 11.0794 22.596ZM1.79304 31.8804C1.65534 31.8776 1.52194 31.8521 1.39284 31.8038C1.18055 31.7243 1.09305 31.7953 1.13034 32.0167C1.17338 32.2976 1.16477 32.5757 1.10452 32.851C1.09592 32.8882 1.09925 32.927 1.11404 32.9622C1.12882 32.9974 1.15434 33.0271 1.18702 33.0473C1.21971 33.0674 1.25793 33.077 1.29637 33.0746C1.3348 33.0722 1.37154 33.0581 1.40145 33.0341C4.57724 30.5679 7.73583 28.2152 10.8772 25.976C11.1583 25.7717 11.636 25.485 12.3102 25.1161C12.4909 25.0168 12.5555 24.8692 12.5038 24.6734L12.4522 24.4648C12.4393 24.4181 12.4152 24.3752 12.3818 24.3399C12.3485 24.3045 12.3069 24.2777 12.2607 24.2617C12.2145 24.2458 12.1651 24.2413 12.1168 24.2484C12.0684 24.2556 12.0225 24.2744 11.9831 24.303C9.98068 25.7589 8.06 27.1595 6.22108 28.5047C4.80962 29.5348 3.5875 30.7396 2.16312 31.7698C2.05405 31.8444 1.92456 31.8831 1.79304 31.8804ZM46.6415 25.8483L46.7404 24.3882C46.7403 24.3798 46.7377 24.3717 46.733 24.3648C46.7283 24.3579 46.7216 24.3526 46.7138 24.3494C46.706 24.3462 46.6975 24.3454 46.6892 24.347C46.6809 24.3486 46.6733 24.3525 46.6673 24.3584C39.1495 32.1784 30.8916 39.4621 23.0898 46.7075C23.0009 46.7926 23.0152 46.8551 23.1328 46.8948L23.3996 46.9884C23.4205 46.996 23.443 46.9976 23.4643 46.993C23.4857 46.9885 23.5051 46.978 23.5201 46.9629C25.0033 45.5098 26.3043 44.2881 27.4232 43.2976C28.4215 42.4122 29.4672 41.4444 30.5602 40.3944C31.5672 39.4238 32.6229 38.4504 33.7274 37.4741C37.8715 33.8003 41.8606 29.9563 46.1724 26.2953C46.2556 26.2215 46.346 26.1647 46.4435 26.125C46.5669 26.0711 46.6329 25.9789 46.6415 25.8483ZM12.5942 26.257C12.5736 26.2733 12.5584 26.2953 12.5504 26.3202C12.5425 26.3451 12.5422 26.3717 12.5495 26.3968C12.5569 26.4219 12.5716 26.4442 12.5918 26.461C12.612 26.4778 12.6368 26.4883 12.663 26.4911C12.9643 26.5223 13.2598 26.4755 13.5495 26.3506C13.6092 26.3248 13.6607 26.2834 13.6986 26.231C13.7365 26.1785 13.7593 26.1169 13.7647 26.0526C13.7704 25.959 13.7446 25.8795 13.6872 25.8143C13.6098 25.7234 13.5165 25.7022 13.4075 25.7504C13.1206 25.8753 12.8495 26.0441 12.5942 26.257ZM11.7723 26.755C8.31246 29.1304 4.80962 31.3824 1.25944 33.6301C1.19346 33.6726 1.15903 33.7336 1.15616 33.8131C1.11887 34.6418 1.12604 35.1143 1.17768 35.2307C1.17941 35.234 1.18187 35.2369 1.18486 35.2392C1.18786 35.2415 1.19133 35.2431 1.19503 35.2439C1.19872 35.2447 1.20255 35.2447 1.20625 35.2439C1.20994 35.2431 1.21341 35.2415 1.21641 35.2392C4.25163 32.8695 7.35857 30.5381 10.5372 28.245C11.0622 27.8661 11.5012 27.3808 11.9831 26.9466C12.0003 26.9296 12.0032 26.9111 11.9917 26.8913L11.9186 26.7848C11.8813 26.7252 11.8325 26.7153 11.7723 26.755ZM38.9171 34.0047C34.1463 38.1396 29.3926 42.3114 24.6562 46.5202C24.2545 46.8806 24.3191 47.0083 24.8498 46.9033C25.1109 46.8522 25.3777 46.8281 25.6502 46.8309C25.8138 46.8338 25.9515 46.7742 26.0633 46.6521C26.8867 45.761 27.7158 44.8685 28.5506 43.9745C30.4484 41.9439 32.5655 40.1475 34.5493 38.1808C34.9366 37.7976 35.3612 37.4471 35.8231 37.1293C36.9549 36.346 37.8585 35.2732 38.9774 34.4133C40.3329 33.3661 41.5163 32.1188 42.8546 31.0376C44.0939 30.0414 45.23 28.8069 46.5812 28.0023C46.6355 27.9704 46.6799 27.9242 46.7095 27.8686C46.7391 27.8131 46.7527 27.7504 46.749 27.6873L46.7189 27.1935C46.7185 27.1739 46.7122 27.1549 46.7007 27.139C46.6893 27.123 46.6733 27.1108 46.6547 27.1039C46.6362 27.097 46.616 27.0958 46.5968 27.1004C46.5775 27.105 46.5601 27.1152 46.5468 27.1297C44.9331 28.8112 43.0224 30.1904 41.3614 31.7825C40.6097 32.5062 39.795 33.2469 38.9171 34.0047ZM1.2035 36.8483C1.20924 36.9533 1.2537 36.9732 1.3369 36.9079C5.08646 33.9876 8.6309 31.6321 11.9702 29.8413C12.3489 29.637 12.6889 29.2965 13.0546 29.0496C13.1407 28.99 13.1493 28.9218 13.0805 28.8452L12.5555 28.2578C12.4981 28.1953 12.4335 28.1868 12.3618 28.2322L1.22932 35.5712C1.17481 35.6081 1.14899 35.6578 1.15186 35.7202L1.2035 36.8483ZM29.3209 46.0647C29.3725 45.7213 29.5203 45.4261 29.7641 45.1792C33.7432 41.084 36.5446 38.3298 38.1684 36.9164C41.1663 34.3083 44.0079 31.7272 46.6931 29.173C46.7447 29.1248 46.7462 29.0751 46.6974 29.024V29.0198C46.663 28.9857 46.6271 28.9843 46.5898 29.0155C42.5104 32.4268 38.4467 35.8252 34.3987 39.2109C32.316 40.9535 29.6695 43.4779 26.4592 46.7841C26.4549 46.7883 26.452 46.7936 26.4508 46.7995C26.4496 46.8053 26.4502 46.8114 26.4525 46.8168C26.4548 46.8223 26.4588 46.827 26.4638 46.8303C26.4688 46.8336 26.4747 46.8353 26.4808 46.8352C28.5463 46.8323 30.0094 46.8238 30.8701 46.8096C30.9389 46.8096 30.9992 46.7855 31.0508 46.7373L46.2111 32.5914C46.2771 32.5318 46.313 32.4594 46.3187 32.3742L46.4952 30.1308C46.4966 30.1224 46.4952 30.1137 46.491 30.1062C46.4869 30.0987 46.4804 30.0927 46.4725 30.0893C46.4646 30.0859 46.4557 30.0852 46.4474 30.0873C46.439 30.0894 46.4316 30.0943 46.4263 30.101C41.4145 35.1838 36.11 40.5945 30.5129 46.3329C30.2547 46.5996 29.9104 46.6507 29.4801 46.4861C29.3367 46.4322 29.2836 46.2917 29.3209 46.0647ZM13.855 29.5646L13.7259 29.4029C13.6169 29.261 13.4921 29.2468 13.3516 29.3603C12.4335 30.0897 11.4524 30.8048 10.4081 31.5058C7.31554 33.5747 4.37212 35.9004 1.57788 38.483C1.55778 38.5018 1.54269 38.5252 1.53395 38.5512C1.52521 38.5771 1.52309 38.6048 1.52777 38.6318C1.53246 38.6587 1.5438 38.6841 1.5608 38.7057C1.5778 38.7273 1.59993 38.7444 1.62522 38.7555L1.7371 38.8023C1.76579 38.8136 1.79448 38.8094 1.82317 38.7895C5.76781 35.645 9.76122 32.6808 13.8034 29.8967C13.9382 29.803 13.9554 29.6924 13.855 29.5646ZM15.5591 31.2972C15.8058 31.2263 15.8331 31.1071 15.6409 30.9396L14.9954 30.3735C14.8606 30.2543 14.7186 30.2443 14.5694 30.3437L11.8798 32.1784C11.8253 32.2125 11.8096 32.2593 11.8325 32.3189C11.8526 32.37 11.8842 32.3998 11.9272 32.4083C11.9817 32.4225 12.0448 32.4168 12.1165 32.3913C13.2899 31.9798 14.4374 31.6151 15.5591 31.2972ZM46.3445 35.5968L46.4091 33.3108C46.4104 33.2626 46.3965 33.2151 46.3693 33.1749C46.3422 33.1347 46.3032 33.1039 46.2579 33.087C46.2126 33.07 46.1634 33.0677 46.1171 33.0803C46.0709 33.093 46.03 33.12 46.0003 33.1575C44.7667 34.6645 43.4413 36.1246 42.0241 37.538C39.0864 40.4582 36.1014 43.3927 33.069 46.3414C32.9084 46.4975 32.9399 46.5698 33.1637 46.5585C33.4448 46.5471 33.7662 46.5329 34.1276 46.5159C34.3629 46.5046 34.535 46.3939 34.644 46.1839C34.9998 45.4857 35.5563 44.8245 36.3137 44.2001C38.8755 42.083 41.5106 39.8963 44.2187 37.6401C44.7638 37.186 45.3433 36.7419 45.9572 36.3077C46.2068 36.1346 46.3359 35.8976 46.3445 35.5968ZM8.46307 35.0604C9.05692 34.9213 9.44134 34.6404 9.61634 34.2175C9.71388 33.9848 9.64933 33.9252 9.4227 34.0387C8.88049 34.3055 8.32967 34.6886 7.77025 35.1881C7.63542 35.3101 7.65837 35.3641 7.8391 35.3499C7.96533 35.3414 8.07148 35.2974 8.15754 35.2179C8.24648 35.1384 8.34832 35.0859 8.46307 35.0604ZM11.1741 35.1796L10.3006 34.7965C10.1686 34.7397 10.0481 34.7425 9.93909 34.805C7.2223 36.3744 4.60019 38.1084 2.07275 40.007C1.95513 40.095 1.93075 40.2042 1.9996 40.3348L2.35677 40.9904C2.45144 41.1692 2.58054 41.199 2.74406 41.0798C5.22847 39.2549 8.04709 37.4443 11.1999 35.6479C11.2421 35.6233 11.2767 35.5878 11.2998 35.5451C11.323 35.5024 11.3338 35.4543 11.3311 35.4059C11.3285 35.3576 11.3124 35.3109 11.2847 35.271C11.257 35.2311 11.2188 35.1994 11.1741 35.1796ZM3.97479 43.4381L13.7302 36.5716C13.9024 36.4496 13.8909 36.3488 13.6958 36.2694L12.3747 35.7415C12.2526 35.6936 12.1199 35.6778 11.9895 35.6957C11.859 35.7136 11.7353 35.7646 11.6303 35.8437L3.20881 42.3015C3.1875 42.3172 3.17017 42.3376 3.15811 42.3611C3.14605 42.3846 3.13957 42.4106 3.13916 42.4372C3.13875 42.4638 3.14441 42.4903 3.15572 42.5147C3.16704 42.5391 3.18371 42.5608 3.20451 42.5782C3.46844 42.8024 3.66639 43.0734 3.79835 43.3913C3.80527 43.4073 3.81577 43.4215 3.82906 43.4329C3.84235 43.4443 3.85808 43.4526 3.87507 43.4571C3.89206 43.4616 3.90986 43.4622 3.92714 43.459C3.94441 43.4557 3.9607 43.4485 3.97479 43.4381ZM25.3662 35.7926C24.8412 36.0736 24.3851 36.2183 23.8945 36.5972C19.7835 39.7729 15.7298 43.0039 11.7335 46.2903C11.701 46.3176 11.6773 46.3541 11.6657 46.3949C11.6542 46.4357 11.6552 46.4789 11.6688 46.5187C11.6823 46.5584 11.7077 46.5929 11.7416 46.6175C11.7755 46.6421 11.8162 46.6557 11.8583 46.6564L12.2327 46.6692C12.4852 46.6748 12.7075 46.5982 12.8997 46.4393C16.6407 43.3402 20.4476 40.2099 24.3205 37.0484C24.7422 36.7036 25.1984 36.4609 25.5556 36.014C25.8711 35.6252 25.808 35.5514 25.3662 35.7926ZM5.12806 44.6003C6.16084 43.4849 7.28398 42.476 8.58787 41.6672C10.9604 40.2057 13.4591 38.6632 16.0841 37.0399C16.0905 37.0367 16.0958 37.0316 16.0991 37.0254C16.1025 37.0191 16.1038 37.012 16.1029 37.0049C16.1019 36.9979 16.0988 36.9913 16.0939 36.9861C16.089 36.981 16.0825 36.9774 16.0755 36.976C15.6108 36.8455 15.1216 36.7093 14.6081 36.5674C14.5335 36.5475 14.4661 36.5617 14.4059 36.6099C12.2026 38.3979 9.78417 40.3305 7.15058 42.4079C6.32723 43.0578 5.52826 43.746 4.75368 44.4726C4.73933 44.4868 4.73933 44.5024 4.75368 44.5194L4.83113 44.6003C4.84945 44.6208 4.872 44.6372 4.89732 44.6485C4.92265 44.6597 4.9502 44.6655 4.97818 44.6655C5.00616 44.6655 5.03395 44.6597 5.05977 44.6485C5.08559 44.6372 5.10885 44.6208 5.12806 44.6003ZM39.1753 43.2125C39.0089 43.3232 38.9344 43.4466 38.9516 43.5829C38.956 43.6179 38.9706 43.6509 38.9935 43.6779C39.0165 43.7049 39.0468 43.7248 39.0809 43.7351C39.115 43.7454 39.1514 43.7458 39.1857 43.7362C39.22 43.7265 39.2508 43.7073 39.2743 43.6808C40.5868 42.1908 42.6222 40.7264 43.6292 39.8325C44.3579 39.1826 45.0823 38.527 45.8023 37.8657C45.9257 37.7551 46.0261 37.6359 46.1036 37.5082C46.2212 37.3067 46.2857 37.1662 46.2972 37.0867C46.3747 36.4879 46.1925 36.3999 45.7507 36.8228C43.6909 38.8065 41.6153 40.8414 39.5239 42.9273C39.4178 43.0351 39.3016 43.1302 39.1753 43.2125ZM10.378 46.3456L10.6879 46.699C10.7062 46.7203 10.7323 46.7335 10.7605 46.7359C10.7887 46.7383 10.8167 46.7296 10.8385 46.7117L10.8901 46.6692C13.8519 44.1312 16.6696 41.67 18.7263 39.8245C20.783 37.979 21.911 36.8997 21.8634 36.8228L21.8548 36.8143C21.7841 36.7572 20.5431 37.7079 18.4034 39.4584C16.2637 41.2088 13.3997 43.6164 10.4383 46.1541L10.3909 46.1966C10.3694 46.2148 10.356 46.2406 10.3536 46.2685C10.3511 46.2964 10.3599 46.3241 10.378 46.3456ZM7.55509 45.1239C8.57639 44.1646 9.6522 43.2395 10.7825 42.3483C12.9686 40.6314 15.0772 38.9782 17.1083 37.389C17.1972 37.3209 17.1987 37.2513 17.1126 37.1804L16.9534 37.0527C16.9311 37.0354 16.9034 37.0261 16.8746 37.0261C16.8459 37.0261 16.8176 37.0354 16.7942 37.0527C14.0458 39.0932 11.3706 41.0471 8.7686 42.9145C7.9725 43.4807 7.32702 44.1788 6.58255 44.8046C6.14649 45.1735 6.21678 45.3708 6.79341 45.3963C6.97702 45.402 7.14054 45.4573 7.28398 45.5623C7.75447 45.9001 8.29955 46.1044 8.91922 46.1754C9.09135 46.1981 9.17311 46.1229 9.1645 45.9497C9.15876 45.7766 9.21901 45.6361 9.34524 45.5283C12.6358 42.7868 16.097 40.1645 19.729 37.6614C20.3286 37.2499 20.2669 37.0924 19.5439 37.1889C18.7952 37.2911 18.0306 37.6188 17.2503 38.1722C14.0544 40.4398 10.8672 42.7712 7.68849 45.1665C7.65693 45.1892 7.62107 45.1977 7.58091 45.192C7.52353 45.1835 7.51492 45.1608 7.55509 45.1239ZM38.1038 45.9114C38.0827 45.9334 38.0691 45.9613 38.0649 45.9913C38.0607 46.0212 38.0662 46.0518 38.0804 46.0785C38.0947 46.1053 38.117 46.127 38.1444 46.1406C38.1717 46.1541 38.2027 46.1588 38.2329 46.1541L40.2641 45.7667C40.2897 45.7616 40.3134 45.7499 40.3329 45.7326L45.613 40.9776C45.635 40.9571 45.65 40.9303 45.656 40.901L46.1595 38.4958C46.1655 38.4655 46.1616 38.4342 46.1484 38.4063C46.1351 38.3784 46.1132 38.3554 46.0858 38.3407C46.0585 38.326 46.0271 38.3203 45.9962 38.3244C45.9653 38.3286 45.9366 38.3424 45.9142 38.3638L38.1038 45.9114ZM30.9145 38.6506C30.9095 38.6446 30.8891 38.6511 30.8546 38.6698C30.82 38.6885 30.7719 38.7191 30.7131 38.7597C30.6543 38.8004 30.5859 38.8503 30.5117 38.9067C30.4376 38.963 30.3592 39.0247 30.281 39.0883C30.2028 39.1518 30.1264 39.2159 30.0561 39.2769C29.9858 39.3379 29.923 39.3946 29.8712 39.4438C29.8195 39.493 29.7799 39.5337 29.7546 39.5636C29.7294 39.5935 29.719 39.612 29.724 39.618C29.729 39.6241 29.7494 39.6175 29.784 39.5988C29.8185 39.5801 29.8666 39.5496 29.9254 39.5089C29.9842 39.4683 30.0527 39.4184 30.1268 39.362C30.2009 39.3056 30.2793 39.2439 30.3575 39.1804C30.4357 39.1168 30.5121 39.0527 30.5824 38.9917C30.6527 38.9307 30.7156 38.874 30.7673 38.8248C30.819 38.7756 30.8586 38.7349 30.8839 38.705C30.9091 38.6751 30.9195 38.6567 30.9145 38.6506ZM42.8804 44.4896H42.8761C42.8618 44.4782 42.8618 44.4669 42.8761 44.4555C43.6622 43.8255 44.3622 43.1075 44.9761 42.3015C45.1167 42.117 45.0751 42.0574 44.8513 42.1227C44.7366 42.1568 44.6376 42.215 44.5544 42.2973C43.929 42.8904 43.4054 43.6127 42.9837 44.464C42.9608 44.5123 42.9263 44.5208 42.8804 44.4896ZM30.3652 45.5571C30.3758 45.5674 30.5003 45.4621 30.7114 45.2644C30.9226 45.0666 31.2029 44.7927 31.4909 44.5028C31.7788 44.213 32.0507 43.931 32.2469 43.7187C32.443 43.5065 32.5473 43.3814 32.5368 43.371C32.5262 43.3607 32.4017 43.466 32.1906 43.6637C31.9795 43.8615 31.6991 44.1354 31.4111 44.4253C31.1232 44.7151 30.8513 44.9971 30.6551 45.2094C30.459 45.4216 30.3547 45.5467 30.3652 45.5571Z" fill="white"/>
</g>
<defs>
<clipPath id="clip0_1_1172">
<rect width="48" height="48" fill="white"/>
</clipPath>
</defs>
</svg>
